<svg width="336" height="96" viewBox="0 0 336 96" fill="none" xmlns="http://www.w3.org/2000/svg">
<g clip-path="url(#clip0_272_18)">
<path d="M42.5972 46.4998C42.2238 46.5418 41.755 46.5534 41.1909 46.5345C40.6502 46.5145 40.151 46.6214 39.6933 46.8554C38.4503 46.8703 37.1787 46.781 35.8784 46.5875C34.5781 46.394 33.3803 46.1368 32.2848 45.8158C32.038 45.57 31.7922 45.3475 31.5477 45.1485C31.3019 44.926 30.9778 44.7779 30.5752 44.704C29.9912 44.2872 29.508 43.7715 29.1254 43.157C28.7417 42.519 28.4265 41.8424 28.1797 41.1272C27.9329 40.412 27.7558 39.6816 27.6484 38.936C27.5397 38.1671 27.4796 37.4309 27.4681 36.7274C27.7669 35.6566 28.2136 34.7309 28.8084 33.9504C29.4254 33.1453 30.0547 32.3514 30.6963 31.5685C30.9937 31.413 31.2091 31.2614 31.3425 31.114C31.4982 30.942 31.6551 30.7934 31.8132 30.6682C31.9934 30.5184 32.1626 30.381 32.3206 30.2558C32.5009 30.106 32.6566 29.934 32.7878 29.7397C33.2735 29.5983 33.6867 29.4134 34.0274 29.1853C34.3903 28.9326 34.7415 28.6805 35.081 28.4289C35.4193 28.154 35.7705 27.9018 36.1345 27.6725C36.4986 27.4432 36.9235 27.2578 37.4093 27.1163C37.5861 26.8963 37.8003 26.7214 38.052 26.5916C38.3025 26.4383 38.5536 26.2968 38.8052 26.1669C39.0792 26.0125 39.3297 25.8592 39.5568 25.7072C39.8073 25.5539 39.9969 25.3567 40.1257 25.1157C40.2521 25.2971 40.4195 25.3592 40.6278 25.3019C40.835 25.2212 41.0305 25.1411 41.2142 25.0615C41.3301 25.0323 41.4249 25.0511 41.4986 25.1178C41.5958 25.1834 41.6812 25.2495 41.7549 25.3162C41.8286 25.383 41.8895 25.4269 41.9375 25.448C42.0077 25.4445 42.0633 25.383 42.1043 25.2637C42.2213 25.2578 42.2594 25.3146 42.2184 25.434C42.1774 25.5534 42.1463 25.637 42.1252 25.685C42.3114 25.6523 42.4658 25.6916 42.5887 25.8028C42.7338 25.8894 42.9474 25.9375 43.2295 25.9469C43.3289 26.0593 43.357 26.1518 43.3137 26.2243C43.2692 26.2735 43.2504 26.3683 43.2574 26.5087C43.9701 26.6845 44.4318 27.0018 44.6423 27.4606C44.8517 27.8961 44.8867 28.3637 44.7473 28.8634C44.6079 29.3631 44.338 29.8341 43.9376 30.2765C43.5372 30.7188 43.0947 31.0224 42.6101 31.1873C41.5016 31.5475 40.4534 31.9398 39.4654 32.3644C38.4997 32.7645 37.7183 33.3313 37.1212 34.065C36.5676 34.2568 36.0753 34.5042 35.6446 34.8072C35.236 35.0857 34.8415 35.4104 34.461 35.7813C34.1028 36.1276 33.7574 36.4968 33.4249 36.8888C33.1146 37.2562 32.781 37.6248 32.4239 37.9946C32.4636 38.3211 32.4179 38.5815 32.2867 38.7758C32.1778 38.9455 32.0695 39.1268 31.9618 39.3199C32.0261 39.6687 32.1237 39.9807 32.2547 40.2558C32.3846 40.5074 32.5261 40.7585 32.6794 41.009C34.2476 41.4004 35.9008 41.6115 37.6389 41.6424C39.4003 41.6721 41.1595 41.655 42.9163 41.5911C43.0918 41.8171 43.2901 42.0302 43.5112 42.2304C43.7546 42.406 43.9758 42.6062 44.1747 42.831C44.3724 43.0323 44.5368 43.2705 44.6678 43.5456C44.7977 43.7973 44.8374 44.1239 44.787 44.5253C44.4767 44.8927 44.1302 45.2385 43.7474 45.5626C43.3634 45.8633 42.98 46.1757 42.5972 46.4998ZM66.403 34.6856C66.3936 34.9677 66.4304 35.2357 66.5134 35.4897C66.5965 35.7437 66.6912 35.9971 66.7976 36.25C66.9263 36.4782 67.0439 36.7188 67.1503 36.9716C67.2568 37.2245 67.3398 37.4785 67.3994 37.7336C67.4625 38.059 67.4806 38.4218 67.4535 38.8221C67.4253 39.199 67.362 39.5776 67.2636 39.958C67.164 40.3149 67.0282 40.6502 66.8561 40.9638C66.6828 41.254 66.4708 41.4758 66.2203 41.629C65.9136 42.0667 65.5319 42.4142 65.0754 42.6716C64.6189 42.9289 64.1998 43.2314 63.8181 43.5789C63.5688 43.7555 63.282 43.8871 62.9578 43.9737C62.6569 44.059 62.3444 44.145 62.0202 44.2315C61.7697 44.3847 61.4729 44.552 61.13 44.7333C60.7858 44.8913 60.43 45.0498 60.0624 45.2088C59.6937 45.3445 59.3238 45.4568 58.9528 45.5456C58.5806 45.6111 58.2534 45.6391 57.9714 45.6296C57.2819 45.922 56.5995 46.1202 55.9241 46.2242C55.2734 46.3504 54.4986 46.342 53.5997 46.199C52.7628 46.358 51.9769 46.3619 51.2419 46.2107C50.5303 46.0583 49.8838 45.7971 49.3022 45.4271C48.7428 45.0326 48.2385 44.5648 47.7892 44.024C47.3622 43.4586 47.0042 42.8662 46.7152 42.247C46.4616 40.922 46.4485 39.7142 46.6758 38.6234C46.902 37.5092 47.2499 36.4829 47.7195 35.5443C48.2113 34.5812 48.7775 33.6965 49.4179 32.8903C50.0572 32.0606 50.6742 31.2556 51.269 30.4751C51.4118 30.5149 51.5171 30.5097 51.585 30.4593C51.6751 30.3845 51.753 30.2985 51.8186 30.2013C51.883 30.0808 51.948 29.972 52.0135 29.8748C52.1025 29.7765 52.2049 29.7128 52.3208 29.6836C52.4672 29.3243 52.6885 29.0551 52.9846 28.8762C53.3031 28.6726 53.5477 28.4023 53.7187 28.0653C53.9271 28.008 54.0991 27.929 54.2349 27.8284C54.3707 27.7278 54.4942 27.616 54.6055 27.4932C54.7401 27.3691 54.8753 27.2568 55.0111 27.1562C55.1457 27.0322 55.3055 26.9421 55.4905 26.886L55.4712 26.4997C55.8833 26.2915 56.1771 26.0657 56.3527 25.8223C56.5506 25.5543 56.7813 25.2378 57.0447 24.8727C57.2542 24.8388 57.4175 24.8189 57.5346 24.8131C57.675 24.8061 57.8728 24.7728 58.128 24.7132C58.2989 24.3762 58.4506 24.1222 58.5829 23.9514C58.7386 23.7794 58.964 23.5922 59.259 23.3898C59.5468 23.5163 59.8558 23.5948 60.1859 23.6253C60.5393 23.6546 60.8512 23.7917 61.1215 24.0363C61.1565 24.2693 61.2361 24.453 61.3601 24.5877C61.483 24.6989 61.6175 24.8095 61.7638 24.9196C61.9089 25.0062 62.0429 25.1052 62.1658 25.2164C62.312 25.3265 62.4138 25.4857 62.4711 25.694C62.5659 25.7128 62.6239 25.6982 62.6449 25.6502C62.6894 25.601 62.7591 25.5858 62.8539 25.6046C62.9404 25.9288 63.0334 26.1471 63.1328 26.2595C63.2311 26.3485 63.3347 26.5428 63.4434 26.8425C63.338 27.0824 63.2566 27.3328 63.1992 27.5938C63.164 27.8302 63.0323 28.0128 62.804 28.1414C62.7888 28.3065 62.8402 28.3978 62.9584 28.4154C63.0755 28.4095 63.1486 28.4646 63.1779 28.5804C63.2117 28.79 63.1842 28.9439 63.0952 29.0421C63.7024 29.9271 64.254 30.8736 64.75 31.8814C65.2448 32.8659 65.7958 33.8006 66.403 34.6856ZM62.1798 38.2396C62.2606 37.9774 62.3672 37.7609 62.4995 37.5901C62.6552 37.4181 62.7366 37.1676 62.7437 36.8388C62.6174 36.6573 62.5402 36.5204 62.5121 36.4279C62.4829 36.312 62.4625 36.137 62.4508 35.9029C61.8997 35.2029 61.4166 34.4525 61.0013 33.6518C60.5848 32.8278 60.1245 32.0645 59.6202 31.3621C59.5781 31.4581 59.5008 31.5558 59.3884 31.6553C59.276 31.7547 59.1461 31.7377 58.9987 31.6043C58.9612 31.7938 58.8862 31.9384 58.7738 32.0378C58.6603 32.1139 58.5333 32.1554 58.3928 32.1624C58.2512 32.146 58.0973 32.1184 57.9311 32.0797C57.7872 32.0165 57.6544 31.941 57.5327 31.8532C56.8806 32.4253 56.2279 32.9858 55.5747 33.5345C54.9214 34.0833 54.3425 34.7104 53.8379 35.4161C53.7466 35.4675 53.6892 35.4939 53.6658 35.495C53.6412 35.4728 53.5716 35.488 53.4569 35.5406C53.2917 35.9947 53.078 36.416 52.8157 36.8045C52.5757 37.1684 52.3362 37.5441 52.0974 37.9314C51.8585 38.3187 51.6559 38.7277 51.4896 39.1584C51.3233 39.5891 51.2424 40.0859 51.2469 40.6489C51.6612 40.9568 52.1392 41.1325 52.6811 41.1759C53.223 41.2194 53.7737 41.2037 54.3332 41.129C54.9161 41.0531 55.4744 40.9549 56.0081 40.8345C56.5641 40.6895 57.0762 40.6054 57.5443 40.5821C58.5159 40.2991 59.3434 39.9529 60.0271 39.5434C60.7095 39.1106 61.4271 38.676 62.1798 38.2396ZM93.3354 43.2726C93.1072 43.4013 92.89 43.5176 92.684 43.6218C92.5014 43.7247 92.2813 43.7826 92.0238 43.7954C91.0772 43.1619 90.5385 42.0037 90.4079 40.3206C90.3006 38.6363 90.557 36.4764 91.1768 33.8408C91.2904 33.7648 91.3419 33.6214 91.3314 33.4107L90.9979 33.0753C90.9043 33.08 90.8113 33.0963 90.7188 33.1244C90.6497 33.1513 90.5953 33.2361 90.5554 33.3789C89.9689 33.8539 89.3251 34.3553 88.6239 34.8829C87.9215 35.3872 87.1828 35.8698 86.4079 36.3307C85.6552 36.7671 84.8756 37.1344 84.0691 37.4326C83.286 37.7297 82.5082 37.8975 81.7357 37.9359C79.7694 38.0337 78.2452 37.1121 77.1631 35.1713L76.856 34.6586L76.5978 35.129C76.5322 35.2261 76.4368 35.4303 76.3115 35.7416C76.185 36.0295 76.0608 36.3642 75.939 36.7458C75.8172 37.1273 75.7076 37.5199 75.6104 37.9237C75.5354 38.3029 75.5166 38.6323 75.5539 38.9121C75.3537 39.1332 75.1436 39.3901 74.9235 39.6826C74.7034 39.9752 74.5435 40.2999 74.4439 40.6569C74.4064 40.8465 74.4386 41.0209 74.5403 41.1801C74.504 41.3931 74.4068 41.5622 74.2488 41.6874C74.161 41.8091 74.0614 41.9313 73.9502 42.0542C73.8612 42.1525 73.7845 42.2619 73.7201 42.3825C73.6791 42.5018 73.6499 42.6206 73.6323 42.7388C73.6381 42.8559 73.6322 42.9735 73.6146 43.0917C73.6228 43.2556 73.6069 43.4089 73.5671 43.5517C73.2099 44.3907 72.9201 44.9332 72.6976 45.1789C72.4763 45.448 72.1667 45.5925 71.7688 45.6123C71.5815 45.6216 71.2755 45.6016 70.8506 45.5523C70.53 45.2397 70.227 44.8089 69.9415 44.2599C69.6784 43.6864 69.4602 43.0754 69.2872 42.4269C69.1376 41.7773 69.0464 41.1248 69.0138 40.4693C69.0035 39.7893 69.0914 39.1983 69.2777 38.6962C69.2765 38.6728 69.3585 38.4341 69.5236 37.98C69.6888 37.5259 69.8944 36.9408 70.1403 36.2245C70.4097 35.5071 70.7107 34.7178 71.0434 33.8564C71.3748 32.9717 71.708 32.1221 72.043 31.3076C72.3768 30.4696 72.6907 29.7031 72.9846 29.0079C73.302 28.3116 73.569 27.7821 73.7856 27.4193C73.9589 27.1291 74.11 26.8635 74.2388 26.6224C74.3898 26.3568 74.5298 26.1034 74.6586 25.8623C75.0438 25.1157 75.4121 24.499 75.7634 24.0122C76.1369 23.5008 76.6912 23.0861 77.4263 22.7679C77.9517 22.953 78.3385 23.1801 78.5866 23.4494L78.676 23.8322C78.7813 24.0616 78.9275 24.1716 79.1148 24.1623C79.3758 24.2198 79.59 24.2795 79.7573 24.3416C79.9469 24.3791 80.1482 24.416 80.3612 24.4523C80.5344 24.6315 80.6976 24.8463 80.8509 25.0968C81.0521 25.3684 81.2416 25.6406 81.4195 25.9133C81.6195 26.1615 81.7734 26.4237 81.881 26.6999C82.0108 26.9516 82.0827 27.2179 82.0967 27.4988C82.1341 27.7786 82.1018 28.0735 81.9999 28.3836L82.0525 28.733C82.18 28.9379 82.218 29.2293 82.1664 29.6073C82.1511 29.7724 82.1481 29.9485 82.1574 30.1358C82.1656 30.2996 82.1983 30.4857 82.2556 30.6941C82.6933 31.0008 83.0759 31.1461 83.4037 31.1298C83.7782 31.1112 84.1135 31.0123 84.4097 30.8334C84.7281 30.6298 85.0231 30.4274 85.2947 30.2262C85.475 30.0764 85.6564 29.95 85.839 29.8471C86.0205 29.7207 86.2043 29.6412 86.3904 29.6085C86.7919 29.1896 87.149 28.8198 87.4616 28.4992C87.7976 28.1774 88.1453 27.8551 88.5047 27.5321C89.179 26.9354 89.8276 26.293 90.4504 25.605C91.0733 24.917 91.5592 24.0715 91.9083 23.0685C92.1354 22.9164 92.3777 22.834 92.6352 22.8212C92.8927 22.8084 93.1648 22.8535 93.4515 22.9566C93.7382 23.0596 94.0133 23.1633 94.2766 23.2675C94.3491 23.3109 94.4094 23.3431 94.4574 23.3641C94.5288 23.3841 94.5884 23.4046 94.6364 23.4256C94.6481 23.6597 94.7516 23.854 94.947 24.0086C95.0441 24.0742 95.105 24.1181 95.1296 24.1403C95.1541 24.1626 95.1904 24.1842 95.2384 24.2053C95.5988 24.3751 95.8305 24.5513 95.9335 24.7339C96.1241 25.2642 96.4371 25.6593 96.8724 25.9192C96.8372 26.1556 96.8483 26.378 96.9056 26.5864C96.9851 26.7701 97.077 26.965 97.1811 27.1711C97.208 27.2401 97.2349 27.3092 97.2618 27.3782C97.2887 27.4473 97.3279 27.5275 97.3793 27.6188L96.7087 27.5818L96.8472 28.2437C96.9103 28.569 96.8933 28.9336 96.796 29.3374C96.7222 29.74 96.6208 30.0618 96.492 30.3029C96.5457 30.9104 96.5813 31.3897 96.5987 31.7408C96.6384 32.0673 96.6424 32.3839 96.6108 32.6906C96.5779 32.9738 96.5211 33.2465 96.4402 33.5086C96.3828 33.7696 96.2915 34.0558 96.1661 34.3671C96.3343 35.8606 96.2268 37.2387 95.8437 38.5015C95.4829 39.7397 95.0952 40.9088 94.6806 42.0089C94.6396 42.1283 94.5869 42.2482 94.5225 42.3687C94.4815 42.4881 94.4405 42.6075 94.3995 42.7269C94.1923 42.8076 94.0091 42.8988 93.8499 43.0006C93.6895 43.079 93.518 43.1696 93.3354 43.2726ZM105.675 40.8286C105.827 41.525 105.807 42.0774 105.616 42.4858C105.449 42.8931 105.182 43.1997 104.817 43.4056C104.476 43.6337 104.073 43.7711 103.606 43.8178C103.139 43.8645 102.693 43.8632 102.268 43.8139C102.017 43.4979 101.786 43.0987 101.575 42.6164C101.363 42.1342 101.162 41.6396 100.973 41.1328C100.782 40.6025 100.604 40.0834 100.438 39.5754C100.295 39.0662 100.167 38.615 100.054 38.2217C100.157 37.935 100.211 37.6155 100.217 37.2632C100.246 36.8863 100.25 36.5106 100.232 36.1361C100.236 35.7604 100.23 35.3853 100.211 35.0107C100.215 34.6116 100.231 34.2353 100.26 33.8819C100.375 32.8906 100.563 31.9426 100.823 31.0379C101.106 30.1321 101.318 29.1947 101.457 28.2256C101.494 28.0126 101.461 27.8148 101.358 27.6322C101.278 27.4484 101.258 27.2734 101.296 27.1072C101.315 27.0124 101.382 26.9504 101.498 26.9212C101.613 26.8685 101.679 26.7831 101.697 26.6649C101.754 26.4039 101.755 26.1927 101.7 26.0311C101.669 25.8684 101.706 25.6671 101.811 25.4272C101.919 25.2341 102.046 24.958 102.192 24.5987C102.361 24.2148 102.412 23.8251 102.345 23.4295C102.549 23.2785 102.74 23.1048 102.918 22.9082C103.096 22.7116 103.275 22.5385 103.455 22.3887C103.658 22.2144 103.873 22.0628 104.101 21.9342C104.353 21.8043 104.654 21.7307 105.006 21.7132C105.204 21.938 105.334 22.1896 105.395 22.4682C105.479 22.7456 105.552 23.0236 105.613 23.3022C105.697 23.5796 105.804 23.8441 105.934 24.0958C106.062 24.3241 106.271 24.5015 106.559 24.6279C106.568 24.8152 106.579 25.0493 106.593 25.3302C106.607 25.6111 106.633 25.8914 106.67 26.1712C106.707 26.4275 106.766 26.671 106.848 26.9015C106.952 27.1076 107.099 27.241 107.29 27.3019C106.924 28.4465 106.582 29.5782 106.262 30.697C105.966 31.8147 105.728 32.9412 105.55 34.0764C105.371 35.1883 105.274 36.3077 105.259 37.4348C105.268 38.5608 105.407 39.692 105.675 40.8286ZM128.48 22.341C128.511 22.5037 128.518 22.6325 128.499 22.7272C128.502 22.7975 128.494 22.8683 128.474 22.9397C128.478 23.0099 128.482 23.0918 128.487 23.1855C128.49 23.2557 128.519 23.3716 128.574 23.5331C128.122 24.3534 127.576 24.9321 126.936 25.269C126.318 25.5813 125.638 25.8263 124.896 26.004C124.152 26.1583 123.386 26.3255 122.597 26.5055C121.832 26.6844 121.075 27.0271 120.325 27.5337C120.015 27.4318 119.734 27.4457 119.483 27.5756C119.254 27.7043 118.905 27.7569 118.434 27.7333C118.301 27.8808 118.131 27.9948 117.923 28.0755C117.715 28.1328 117.507 28.2018 117.3 28.2825C117.404 28.4885 117.45 28.7092 117.439 28.9444C117.449 29.1551 117.493 29.3289 117.57 29.4659C118.393 29.4954 119.294 29.4388 120.272 29.2963C121.274 29.1526 122.254 29.0452 123.213 28.9741C123.242 29.09 123.235 29.1725 123.19 29.2216C123.144 29.2473 123.136 29.3065 123.164 29.3989C123.333 29.5078 123.505 29.6518 123.678 29.8309C123.85 29.9867 124.022 30.1424 124.194 30.2981C124.366 30.4538 124.537 30.5861 124.706 30.695C124.898 30.7793 125.111 30.8039 125.344 30.7689C125.447 30.9515 125.516 31.1593 125.551 31.3922C125.608 31.6005 125.596 31.8241 125.514 32.0628C125.152 32.3389 124.791 32.6268 124.43 32.9263C124.069 33.2024 123.682 33.4563 123.271 33.6879C122.884 33.9184 122.46 34.1155 121.998 34.2792C121.559 34.4184 121.058 34.4902 120.495 34.4948C120.378 34.5006 120.285 34.5052 120.215 34.5087C120.168 34.5111 120.096 34.4794 119.999 34.4139C119.817 34.5402 119.55 34.5887 119.196 34.5594C118.866 34.5289 118.611 34.5768 118.429 34.7031C118.166 34.5989 117.847 34.5678 117.474 34.6098C117.123 34.6273 116.805 34.5962 116.519 34.5165C116.169 35.0267 115.856 35.5703 115.579 36.1472C115.303 36.7242 115.063 37.3345 114.861 37.9782C115.662 38.0556 116.32 38.0698 116.834 38.0208C117.371 37.9706 117.873 37.9105 118.339 37.8404C118.803 37.7469 119.28 37.6645 119.77 37.5932C120.258 37.4986 120.877 37.4443 121.627 37.4305C122.082 37.1497 122.624 36.9585 123.253 36.8568C123.904 36.7306 124.494 36.5605 125.023 36.3464C125.213 36.4073 125.384 36.5279 125.534 36.7082C125.682 36.8651 125.819 37.0225 125.944 37.1806C126.092 37.314 126.238 37.4358 126.385 37.5459C126.531 37.6559 126.709 37.694 126.918 37.6601C127.017 37.7491 127.081 37.8632 127.111 38.0025C127.164 38.1172 127.205 38.2325 127.234 38.3484C127.263 38.4643 127.304 38.5679 127.355 38.6592C127.429 38.7259 127.536 38.7441 127.675 38.7137C127.362 39.5036 126.982 40.1209 126.535 40.5656C126.11 40.9856 125.61 41.3156 125.035 41.5553C124.461 41.7951 123.813 41.9916 123.093 42.1447C122.397 42.2967 121.62 42.4761 120.762 42.683C120.554 42.7403 120.377 42.7374 120.233 42.6741C120.091 42.6343 119.926 42.619 119.738 42.6283C119.206 42.7722 118.567 42.9095 117.823 43.0404C117.078 43.1713 116.319 43.2442 115.546 43.2592C114.772 43.2742 114.03 43.2056 113.318 43.0532C112.608 42.9243 112.019 42.6485 111.552 42.2259C111.357 42.0713 111.219 41.8904 111.138 41.6833C111.079 41.4515 110.918 41.2835 110.655 41.1793C110.617 40.8761 110.553 40.539 110.464 40.168C110.375 39.7969 110.286 39.4142 110.196 39.0197C110.105 38.6019 110.026 38.1951 109.959 37.7995C109.916 37.4027 109.921 37.0387 109.975 36.7075C110.028 36.3529 110.153 36.0299 110.349 35.7385C110.57 35.446 110.636 35.1376 110.55 34.8134C110.666 34.7841 110.733 34.7221 110.752 34.6273C110.769 34.5091 110.861 34.4576 111.026 34.4729C111.145 34.0446 111.278 33.6391 111.423 33.2564C111.568 32.8737 111.714 32.5027 111.86 32.1434C112.03 31.783 112.188 31.4231 112.335 31.0638C112.503 30.68 112.658 30.2616 112.8 29.8087C112.457 29.5207 112.195 29.2052 112.014 28.8622C111.855 28.4947 111.731 28.1371 111.644 27.7894C111.555 27.4184 111.478 27.0468 111.412 26.6745C111.346 26.2789 111.244 25.8851 111.107 25.4929C111.324 25.1302 111.591 24.8353 111.908 24.6083C112.247 24.3568 112.613 24.1509 113.004 23.9906C113.395 23.8304 113.822 23.6918 114.285 23.5749C114.749 23.458 115.235 23.3282 115.744 23.1855C116.666 22.8347 117.485 22.5593 118.202 22.3593C118.943 22.1582 119.663 21.9934 120.36 21.8648C121.08 21.7117 121.824 21.5691 122.592 21.437C123.36 21.305 124.23 21.1209 125.204 20.8847C125.425 21.0849 125.63 21.1804 125.817 21.171C125.9 20.9557 126.002 20.892 126.124 20.9798C126.268 21.043 126.323 20.9699 126.289 20.7604C126.543 21.1467 126.853 21.4715 127.218 21.735C127.605 21.9738 128.026 22.1759 128.48 22.341ZM135.501 35.403C135.292 35.4602 135.146 35.5966 135.063 35.8119C134.979 36.0038 134.895 36.2074 134.812 36.4228C134.752 36.637 134.68 36.84 134.596 37.0319C134.534 37.1993 134.421 37.287 134.257 37.2952C134.243 37.4836 134.181 37.651 134.071 37.7972C133.984 37.9423 133.898 38.0992 133.813 38.2677C133.726 38.4128 133.664 38.5801 133.626 38.7697C133.588 38.9359 133.621 39.1337 133.726 39.3632C133.546 39.5129 133.439 39.7177 133.405 39.9775C133.371 40.2374 133.325 40.4861 133.266 40.7236C133.231 40.96 133.147 41.1637 133.015 41.3345C132.882 41.5054 132.628 41.5884 132.253 41.5836C132.187 41.6807 132.178 41.7398 132.226 41.7609C132.274 41.782 132.313 41.8622 132.344 42.0015C132.084 41.9675 131.886 41.9891 131.749 42.0663C131.636 42.1657 131.487 42.2318 131.301 42.2645C130.849 42.1462 130.462 41.919 130.141 41.583C129.842 41.2459 129.566 40.8724 129.311 40.4627C129.078 40.0284 128.857 39.5936 128.647 39.1581C128.461 38.7215 128.278 38.3434 128.098 38.0239C128.156 37.7629 128.155 37.5165 128.097 37.2847C128.037 37.0296 127.945 36.823 127.819 36.6649C128.845 34.1734 129.968 31.5128 131.189 28.683C132.409 25.8533 133.561 23.0622 134.644 20.3097C135.193 20.4936 135.732 20.7132 136.261 20.9685C136.812 21.1992 137.307 21.4796 137.746 21.8098C138.208 22.1388 138.603 22.5298 138.931 22.9829C139.257 23.4125 139.481 23.9059 139.603 24.463C139.563 24.6058 139.507 24.6672 139.436 24.6473C139.387 24.6028 139.341 24.6169 139.297 24.6894C139.397 24.8018 139.448 24.8814 139.45 24.9282C139.476 24.9739 139.478 25.0207 139.457 25.0687C139.459 25.1155 139.463 25.1857 139.467 25.2794C139.471 25.3496 139.511 25.4532 139.588 25.5901C139.494 25.5714 139.424 25.5866 139.38 25.6357C139.358 25.6837 139.288 25.6872 139.169 25.6462C139.275 25.899 139.309 26.1086 139.271 26.2747C139.255 26.4398 139.216 26.5943 139.153 26.7382C139.088 26.8587 139.037 27.0021 138.998 27.1683C138.958 27.3111 138.979 27.4977 139.061 27.7283C138.991 27.7318 138.934 27.7582 138.889 27.8073C138.867 27.8319 138.845 27.8681 138.824 27.9161C138.802 27.9407 138.769 27.9776 138.724 28.0267C138.702 28.0513 138.655 28.0536 138.584 28.0337C138.679 28.5452 138.728 29.059 138.731 29.5752C138.733 30.0913 138.736 30.6192 138.739 31.1587C138.765 31.6737 138.804 32.2232 138.856 32.8073C138.908 33.3679 139.019 33.9491 139.189 34.5507C140.008 34.0172 140.643 33.352 141.096 32.5551C141.573 31.757 141.94 30.8705 142.196 29.8956C142.476 28.9196 142.671 27.8774 142.78 26.769C142.889 25.6607 143.009 24.5283 143.139 23.372C143.339 23.1508 143.49 22.8852 143.592 22.5751C143.694 22.2649 143.784 21.9437 143.861 21.6113C143.937 21.2555 144.014 20.9114 144.091 20.5791C144.167 20.2233 144.269 19.9014 144.395 19.6136C144.749 19.6429 145.047 19.7454 145.291 19.921C145.556 20.0721 145.8 20.2477 146.021 20.4479C146.241 20.6247 146.472 20.8009 146.716 20.9765C146.958 21.1288 147.256 21.2195 147.609 21.2489C147.91 21.6329 148.187 22.0063 148.439 22.3692C148.692 22.7321 148.864 23.1225 148.955 23.5403C148.848 23.7334 148.764 23.9488 148.706 24.1863C148.671 24.4228 148.624 24.6598 148.565 24.8973C148.507 25.1349 148.424 25.3619 148.317 25.5784C148.21 25.7715 148.054 25.9435 147.85 26.0945C147.81 26.7066 147.745 27.2731 147.653 27.7939C147.584 28.2901 147.503 28.7869 147.411 29.2843C147.341 29.7806 147.285 30.2996 147.242 30.8415C147.197 31.36 147.202 31.9347 147.257 32.5655C147.096 33.1132 146.926 33.6966 146.746 34.3157C146.565 34.9348 146.429 35.4931 146.336 35.9905C145.977 36.3134 145.702 36.6908 145.512 37.1226C145.323 37.5545 145.121 37.9869 144.908 38.4199C144.819 38.5182 144.762 38.5445 144.736 38.4988C144.71 38.4532 144.627 38.4221 144.485 38.4057C144.513 38.4982 144.517 38.5684 144.495 38.6164C144.474 38.6644 144.442 38.7129 144.397 38.7621C144.375 38.7867 144.354 38.8346 144.334 38.906C144.337 38.9763 144.365 39.0687 144.418 39.1834C144.097 39.3402 143.815 39.5537 143.57 39.824C143.325 40.0943 143.056 40.3424 142.762 40.5682C142.492 40.7928 142.148 40.9507 141.73 41.0419C141.335 41.1319 140.804 41.0762 140.137 40.8747C139.143 40.2202 138.248 39.4551 137.454 38.5794C136.683 37.7025 136.032 36.6437 135.501 35.403ZM163.526 40.486C163.152 40.528 162.684 40.5396 162.12 40.5207C161.579 40.5007 161.08 40.6076 160.622 40.8416C159.379 40.8565 158.107 40.7672 156.807 40.5737C155.507 40.3803 154.309 40.123 153.214 39.802C152.967 39.5562 152.721 39.3337 152.476 39.1347C152.231 38.9123 151.906 38.7641 151.504 38.6903C150.92 38.2734 150.437 37.7577 150.054 37.1432C149.67 36.5052 149.355 35.8286 149.108 35.1134C148.862 34.3982 148.685 33.6679 148.577 32.9223C148.468 32.1533 148.408 31.4171 148.397 30.7137C148.696 29.6428 149.142 28.7171 149.737 27.9366C150.354 27.1315 150.983 26.3376 151.625 25.5548C151.922 25.3992 152.138 25.2477 152.271 25.1002C152.427 24.9282 152.584 24.7796 152.742 24.6544C152.922 24.5047 153.091 24.3672 153.249 24.242C153.43 24.0922 153.585 23.9202 153.716 23.726C154.202 23.5845 154.615 23.3997 154.956 23.1715C155.319 22.9188 155.67 22.6667 156.01 22.4151C156.348 22.1402 156.699 21.8881 157.063 21.6587C157.427 21.4294 157.852 21.2441 158.338 21.1026C158.515 20.8826 158.729 20.7077 158.981 20.5778C159.231 20.4245 159.482 20.283 159.734 20.1531C160.008 19.9987 160.258 19.8455 160.485 19.6934C160.736 19.5401 160.926 19.343 161.054 19.1019C161.181 19.2833 161.348 19.3454 161.556 19.2881C161.764 19.2074 161.959 19.1273 162.143 19.0478C162.259 19.0185 162.354 19.0373 162.427 19.104C162.524 19.1696 162.61 19.2357 162.684 19.3025C162.757 19.3692 162.818 19.4131 162.866 19.4342C162.936 19.4307 162.992 19.3693 163.033 19.2499C163.15 19.2441 163.188 19.3008 163.147 19.4202C163.106 19.5396 163.075 19.6233 163.054 19.6712C163.24 19.6385 163.395 19.6778 163.517 19.789C163.662 19.8756 163.876 19.9237 164.158 19.9331C164.258 20.0455 164.286 20.138 164.242 20.2105C164.198 20.2597 164.179 20.3545 164.186 20.4949C164.899 20.6707 165.36 20.988 165.571 21.4469C165.78 21.8823 165.815 22.3499 165.676 22.8496C165.537 23.3494 165.267 23.8204 164.866 24.2627C164.466 24.705 164.023 25.0086 163.539 25.1735C162.43 25.5337 161.382 25.9261 160.394 26.3507C159.428 26.7507 158.647 27.3175 158.05 28.0512C157.496 28.243 157.004 28.4904 156.573 28.7935C156.165 29.0719 155.77 29.3966 155.39 29.7675C155.031 30.1138 154.686 30.483 154.354 30.875C154.043 31.2424 153.71 31.611 153.353 31.9808C153.392 32.3073 153.347 32.5678 153.215 32.762C153.107 32.9317 152.998 33.1131 152.89 33.3062C152.955 33.655 153.052 33.9669 153.183 34.242C153.313 34.4937 153.455 34.7447 153.608 34.9953C155.176 35.3866 156.829 35.5977 158.568 35.6286C160.329 35.6584 162.088 35.6413 163.845 35.5774C164.02 35.8033 164.219 36.0164 164.44 36.2166C164.683 36.3922 164.904 36.5924 165.103 36.8172C165.301 37.0185 165.466 37.2568 165.597 37.5318C165.726 37.7835 165.766 38.1101 165.716 38.5115C165.405 38.8789 165.059 39.2247 164.676 39.5488C164.292 39.8495 163.909 40.1619 163.526 40.486ZM185.644 19.4983C185.675 19.661 185.681 19.7897 185.663 19.8845C185.666 19.9547 185.658 20.0255 185.638 20.0969C185.642 20.1671 185.646 20.2491 185.65 20.3427C185.654 20.4129 185.683 20.5288 185.738 20.6903C185.286 21.5107 184.74 22.0893 184.1 22.4262C183.481 22.7385 182.801 22.9836 182.059 23.1613C181.316 23.3156 180.55 23.4827 179.761 23.6628C178.996 23.8416 178.238 24.1844 177.489 24.6909C177.179 24.589 176.898 24.603 176.646 24.7328C176.418 24.8615 176.069 24.9141 175.598 24.8906C175.465 25.038 175.294 25.1521 175.087 25.2328C174.879 25.2901 174.671 25.3591 174.464 25.4398C174.568 25.6458 174.614 25.8664 174.602 26.1017C174.613 26.3124 174.657 26.4862 174.734 26.6231C175.557 26.6526 176.457 26.5961 177.436 26.4536C178.438 26.3099 179.418 26.2025 180.377 26.1313C180.406 26.2472 180.398 26.3297 180.354 26.3789C180.308 26.4046 180.299 26.4637 180.327 26.5562C180.497 26.6651 180.668 26.8091 180.842 26.9882C181.014 27.1439 181.186 27.2996 181.358 27.4553C181.53 27.611 181.701 27.7433 181.87 27.8522C182.062 27.9366 182.275 27.9612 182.507 27.9261C182.61 28.1088 182.679 28.3165 182.714 28.5494C182.772 28.7578 182.759 28.9813 182.677 29.2201C182.316 29.4962 181.955 29.784 181.594 30.0836C181.232 30.3597 180.846 30.6135 180.435 30.8452C180.048 31.0756 179.623 31.2727 179.162 31.4365C178.723 31.5756 178.222 31.6475 177.659 31.652C177.542 31.6578 177.449 31.6625 177.378 31.666C177.331 31.6683 177.26 31.6367 177.162 31.5711C176.981 31.6975 176.713 31.746 176.36 31.7166C176.03 31.6861 175.774 31.734 175.593 31.8604C175.329 31.7561 175.011 31.725 174.638 31.7671C174.287 31.7845 173.968 31.7534 173.683 31.6738C173.333 32.184 173.019 32.7275 172.743 33.3045C172.467 33.8814 172.227 34.4917 172.024 35.1354C172.826 35.2129 173.484 35.2271 173.998 35.1781C174.535 35.1279 175.037 35.0677 175.502 34.9976C175.967 34.9041 176.444 34.8218 176.933 34.7505C177.421 34.6558 178.041 34.6016 178.791 34.5877C179.246 34.3069 179.788 34.1157 180.417 34.0141C181.067 33.8878 181.657 33.7177 182.186 33.5037C182.377 33.5646 182.547 33.6852 182.697 33.8655C182.846 34.0223 182.983 34.1798 183.108 34.3378C183.255 34.4713 183.402 34.5931 183.548 34.7031C183.695 34.8132 183.873 34.8513 184.082 34.8174C184.18 34.9063 184.245 35.0205 184.275 35.1598C184.328 35.2745 184.369 35.3898 184.398 35.5057C184.427 35.6215 184.468 35.7251 184.519 35.8164C184.593 35.8832 184.699 35.9013 184.839 35.8709C184.526 36.6609 184.146 37.2782 183.699 37.7228C183.274 38.1429 182.774 38.4728 182.199 38.7126C181.624 38.9524 180.977 39.1488 180.257 39.3019C179.561 39.4539 178.784 39.6334 177.926 39.8403C177.717 39.8976 177.541 39.8946 177.397 39.8314C177.254 39.7915 177.089 39.7763 176.902 39.7856C176.37 39.9294 175.731 40.0668 174.987 40.1977C174.242 40.3285 173.483 40.4015 172.71 40.4165C171.936 40.4315 171.193 40.3628 170.482 40.2105C169.771 40.0815 169.183 39.8058 168.716 39.3831C168.52 39.2286 168.382 39.0477 168.302 38.8405C168.243 38.6088 168.082 38.4408 167.819 38.3365C167.78 38.0334 167.717 37.6963 167.628 37.3252C167.539 36.9542 167.45 36.5714 167.36 36.177C167.268 35.7591 167.189 35.3524 167.123 34.9568C167.08 34.56 167.085 34.196 167.139 33.8648C167.192 33.5102 167.316 33.1872 167.513 32.8958C167.733 32.6032 167.8 32.2948 167.714 31.9706C167.829 31.9414 167.897 31.8794 167.915 31.7846C167.933 31.6664 168.024 31.6149 168.189 31.6302C168.309 31.2018 168.441 30.7963 168.586 30.4136C168.732 30.0309 168.878 29.6599 169.024 29.3007C169.194 28.9402 169.352 28.5804 169.498 28.2211C169.667 27.8372 169.822 27.4189 169.964 26.966C169.621 26.6779 169.359 26.3624 169.178 26.0195C169.018 25.6519 168.895 25.2943 168.807 24.9467C168.719 24.5756 168.641 24.204 168.576 23.8318C168.509 23.4362 168.408 23.0423 168.271 22.6502C168.487 22.2874 168.754 21.9925 169.072 21.7656C169.411 21.514 169.776 21.3081 170.167 21.1479C170.558 20.9876 170.985 20.8491 171.449 20.7321C171.913 20.6152 172.399 20.4854 172.908 20.3428C173.829 19.9919 174.649 19.7165 175.366 19.5166C176.107 19.3154 176.826 19.1506 177.524 19.0221C178.244 18.8689 178.988 18.7263 179.755 18.5943C180.523 18.4622 181.394 18.2781 182.368 18.042C182.589 18.2422 182.793 18.3376 182.981 18.3283C183.064 18.113 183.166 18.0492 183.288 18.137C183.432 18.2003 183.487 18.1271 183.453 17.9176C183.707 18.3039 184.016 18.6288 184.381 18.8922C184.769 19.1311 185.189 19.3331 185.644 19.4983ZM217.52 34.7737C217.399 35.1786 217.209 35.5988 216.949 36.0341C216.711 36.4448 216.413 36.8234 216.055 37.1697C215.719 37.4915 215.334 37.7688 214.899 38.0016C214.465 38.2344 214.003 38.3747 213.512 38.4226C213.205 38.3675 212.99 38.296 212.868 38.2082C212.771 38.1426 212.662 38.0776 212.542 38.0132C212.469 37.9699 212.397 37.9383 212.326 37.9184C212.277 37.8739 212.228 37.8411 212.18 37.82L211.75 37.6654L211.868 37.202C211.905 37.0124 211.887 36.8725 211.812 36.7824C211.736 36.6688 211.588 36.5236 211.368 36.3468C211.294 36.2801 211.22 36.2134 211.146 36.1466C211.073 36.0799 211.011 36.0126 210.96 35.9447L210.33 35.3072L211.266 35.0143C211.843 34.8213 212.219 34.5915 212.393 34.3246C212.591 34.0567 212.652 33.6195 212.575 33.0132C212.102 32.9429 211.703 32.951 211.379 33.0375C211.078 33.1229 210.766 33.2205 210.443 33.3304C210.028 33.4684 209.6 33.5953 209.16 33.7111C208.742 33.8022 208.275 33.8606 207.76 33.8862C207.573 33.8956 207.398 33.9043 207.234 33.9124C207.069 33.8972 206.892 33.8825 206.704 33.8684L206.349 33.8156C206.289 33.5605 206.236 33.4224 206.188 33.4013C206.138 33.3568 206.089 33.3123 206.04 33.2678C205.917 33.1566 205.781 33.0108 205.631 32.8305C205.504 32.6257 205.467 32.3694 205.523 32.0616C205.395 31.8567 205.314 31.6495 205.28 31.44C205.154 31.7279 205.063 32.0257 205.008 32.3335L204.885 32.6917L204.537 32.7793C204.492 32.8051 204.46 32.8653 204.441 32.9601C204.421 33.0315 204.412 33.0906 204.414 33.1375L204.269 33.7431C204.224 33.7922 204.18 33.8414 204.135 33.8905C204.089 33.9163 204.044 33.9537 204 34.0029C203.964 34.2159 203.916 34.4295 203.856 34.6436C203.796 34.8578 203.736 35.0603 203.675 35.251C203.573 35.5612 203.483 35.8707 203.404 36.1797C203.348 36.4641 203.338 36.7461 203.376 37.0259L203.255 37.4191C203.145 37.5654 203.022 37.6888 202.886 37.7894C202.749 37.8666 202.612 37.9439 202.475 38.0211C202.43 38.0702 202.363 38.1205 202.271 38.172C202.202 38.1989 202.145 38.2252 202.099 38.2509L202.013 38.6424L201.595 38.7336C201.34 38.7932 201.154 38.8377 201.039 38.8669C200.946 38.895 200.83 38.9125 200.689 38.9195L200.336 38.9018C200.068 38.7039 199.861 38.55 199.715 38.4399C199.568 38.3064 199.397 38.1858 199.204 38.0781C198.98 37.8077 198.852 37.6028 198.822 37.4635C198.791 37.3243 198.761 37.1967 198.732 37.0808C198.678 36.9427 198.649 36.8268 198.645 36.7332C198.616 36.6407 198.578 36.5722 198.529 36.5277L198.051 36.1291L198.422 35.7938L198.427 35.1952C198.836 33.9781 199.271 32.8066 199.731 31.6808C200.215 30.5538 200.709 29.4028 201.214 28.2279C201.382 27.844 201.539 27.4608 201.684 27.0781C201.853 26.6942 202.022 26.3104 202.19 25.9265C202.163 25.8575 202.148 25.7761 202.143 25.6825C202.138 25.5888 202.156 25.4823 202.197 25.363C202.435 24.9522 202.628 24.5906 202.777 24.2782C202.925 23.9423 203.072 23.6064 203.22 23.2706C203.387 22.8633 203.555 22.4677 203.724 22.0839C203.916 21.6989 204.154 21.2998 204.439 20.8867L204.988 20.613C205.057 20.5861 205.138 20.5586 205.231 20.5306C205.322 20.4791 205.426 20.4505 205.543 20.4446L206.073 20.4887C206.714 20.1518 207.266 19.7019 207.731 19.139C208.195 18.5528 208.665 17.8606 209.141 17.0625L209.468 16.5535L209.939 16.8117C210.059 16.8761 210.226 16.9382 210.441 16.9979C210.654 17.0343 210.879 17.0817 211.116 17.1403C211.542 17.213 211.946 17.2985 212.326 17.3969C212.706 17.4954 213.019 17.6558 213.265 17.8782C213.424 18.2458 213.52 18.5226 213.553 18.7087C213.586 18.8948 213.63 19.0804 213.686 19.2653C213.776 19.6597 213.854 20.0548 213.921 20.4504C214.011 20.8449 214.08 21.2873 214.128 21.7777C214.265 22.1698 214.378 22.5631 214.468 22.9576C214.58 23.3275 214.682 23.7096 214.772 24.1041C214.917 24.6601 215.061 25.2043 215.205 25.7369C215.347 26.2461 215.524 26.7301 215.735 27.189C215.922 27.1796 216.039 27.1855 216.087 27.2066C216.202 27.154 216.317 27.113 216.433 27.0838C216.573 27.0534 216.724 27.0224 216.886 26.9909L217.271 26.9366L217.429 27.2807C217.458 27.3966 217.581 27.5078 217.797 27.6144C218.103 27.6226 218.329 27.6818 218.475 27.7919C218.62 27.8785 218.754 27.9775 218.877 28.0887C218.975 28.1777 219.072 28.2432 219.168 28.2854L219.705 28.4699L219.451 29.0105C219.238 29.4435 218.918 29.8701 218.494 30.2901C218.091 30.6856 217.627 31.0255 217.101 31.3098C217.131 31.449 217.15 31.5889 217.157 31.7294C217.186 31.8452 217.228 31.9722 217.282 32.1104C217.372 32.5048 217.451 32.9116 217.518 33.3306C217.586 33.7496 217.608 34.1827 217.583 34.6298L217.52 34.7737ZM207.07 29.2038C207.77 29.1221 208.4 29.0438 208.959 28.9691C209.541 28.8698 210.179 28.7324 210.875 28.557C210.676 27.8629 210.464 27.146 210.24 26.4062C210.014 25.6431 209.777 24.8922 209.529 24.1536L209.336 24.5152C208.892 25.03 208.463 25.6028 208.049 26.2336C207.658 26.8632 207.323 27.4547 207.046 28.0082C206.916 28.2259 206.786 28.4436 206.656 28.6612C206.526 28.8789 206.408 29.096 206.301 29.3125C206.44 29.2821 206.568 29.264 206.686 29.2581C206.826 29.2512 206.954 29.2331 207.07 29.2038ZM237.792 33.308C237.869 33.9143 237.824 34.421 237.657 34.8283C237.489 35.2356 237.249 35.5878 236.935 35.885C236.621 36.1822 236.258 36.4232 235.844 36.608C235.431 36.7928 235.029 36.9653 234.638 37.1256C234.445 37.0179 234.252 36.9101 234.059 36.8024C233.888 36.6701 233.684 36.5746 233.446 36.5161C233.114 35.9694 232.797 35.4924 232.495 35.085C232.192 34.6542 232.038 34.1573 232.034 33.5943C232.033 33.5709 232.038 33.4416 232.05 33.2063C232.085 32.9699 232.119 32.7101 232.152 32.4269C232.208 32.1425 232.242 31.8827 232.254 31.6474C232.288 31.3876 232.304 31.246 232.303 31.2226C231.767 31.2962 231.211 31.4411 230.635 31.6575C230.059 31.8739 229.497 32.1248 228.948 32.4102C228.422 32.6945 227.92 32.9776 227.441 33.2595C226.986 33.5403 226.611 33.7819 226.316 33.9843C226.319 34.0545 226.281 34.2324 226.201 34.518C226.12 34.7801 226.017 35.0668 225.892 35.3781C225.766 35.666 225.626 35.9311 225.474 36.1733C225.322 36.4156 225.164 36.5408 225 36.5489C225.027 36.618 225.065 36.6864 225.116 36.7543C225.166 36.8222 225.171 36.9159 225.13 37.0352C224.807 37.1452 224.52 37.2768 224.269 37.43C224.02 37.6067 223.757 37.7488 223.481 37.8564C223.206 37.9874 222.904 38.0611 222.577 38.0774C222.249 38.0937 221.857 37.9959 221.401 37.7839C221.394 37.6434 221.329 37.5293 221.208 37.4415C221.085 37.3303 220.951 37.243 220.807 37.1798C220.686 37.092 220.577 37.027 220.481 36.9848C220.384 36.9193 220.334 36.8631 220.332 36.8163C220.216 36.8455 220.165 36.7659 220.179 36.5774C220.193 36.389 220.284 36.3375 220.453 36.423C220.179 36.1081 220.001 35.8354 219.919 35.6048C219.86 35.3496 219.715 35.04 219.486 34.6759C219.531 34.6268 219.573 34.5425 219.614 34.4232C219.632 34.3049 219.65 34.1984 219.669 34.1036C219.688 34.0088 219.719 33.9369 219.764 33.8877C219.808 33.8386 219.867 33.8474 219.941 33.9141C219.884 33.7058 219.875 33.5302 219.915 33.3874C219.955 33.2446 219.995 33.1136 220.036 32.9942C220.077 32.8748 220.106 32.756 220.124 32.6378C220.141 32.5196 220.1 32.3926 219.999 32.2568C220.348 31.7232 220.567 31.1609 220.655 30.5698C220.741 29.9554 220.784 29.4018 220.783 28.9091C220.939 28.7371 221.068 28.496 221.17 28.1859C221.295 27.8746 221.385 27.565 221.44 27.2572C221.494 26.926 221.502 26.6205 221.465 26.3408C221.45 26.0365 221.403 25.7924 221.323 25.6086C221.341 25.4904 221.468 25.4489 221.704 25.4841C221.806 24.7046 221.857 23.8339 221.856 22.8718C221.877 21.8851 221.936 20.9553 222.034 20.0821C222.13 19.1856 222.326 18.4015 222.621 17.7298C222.915 17.0346 223.419 16.5637 224.135 16.3169C224.299 16.8015 224.497 17.2258 224.726 17.5899C224.979 17.9528 225.242 18.3034 225.517 18.6417C225.815 18.9555 226.101 19.2815 226.376 19.6198C226.674 19.957 226.951 20.3421 227.207 20.7753C227.206 21.2212 227.185 21.7385 227.144 22.3272C227.103 22.9159 227.039 23.5175 226.952 24.1319C226.889 24.7452 226.812 25.3357 226.723 25.9033C226.658 26.4698 226.588 26.9543 226.514 27.3569C226.543 27.4728 226.605 27.5401 226.7 27.5588C226.818 27.5764 226.847 27.6806 226.786 27.8714C227.341 27.703 227.92 27.5451 228.522 27.3978C229.125 27.2505 229.727 27.0915 230.329 26.9208C230.931 26.75 231.508 26.5688 232.062 26.377C232.638 26.1606 233.165 25.9115 233.644 25.6295C233.716 24.7108 233.822 23.7903 233.964 22.868C234.106 21.9458 234.083 21.0083 233.895 20.0555C234.007 19.956 234.095 19.8343 234.158 19.6904C234.222 19.5465 234.334 19.447 234.495 19.392C234.356 18.9531 234.286 18.4873 234.285 17.9945C234.284 17.5018 234.343 17.0295 234.461 16.5778C234.603 16.1249 234.807 15.7393 235.072 15.421C235.36 15.0781 235.713 14.8494 236.129 14.7348C236.406 15.0966 236.648 15.4951 236.858 15.9306C237.066 16.3426 237.275 16.7664 237.484 17.2018C237.716 17.6127 237.947 18.0119 238.177 18.3993C238.43 18.7622 238.739 19.0754 239.104 19.3389C239.208 20.0142 239.29 20.7141 239.349 21.4386C239.432 22.162 239.504 22.8976 239.565 23.6455C239.421 24.5444 239.254 25.4209 239.062 26.2753C238.892 27.1051 238.783 27.9905 238.736 28.9315C238.582 29.1269 238.463 29.344 238.381 29.5827C238.299 29.8214 238.218 30.0719 238.137 30.334C238.055 30.5728 237.961 30.8121 237.856 31.052C237.749 31.2685 237.618 31.4628 237.463 31.6348C237.57 31.911 237.595 32.1796 237.538 32.4406C237.503 32.677 237.588 32.9661 237.792 33.308ZM260.858 25.0154C260.849 25.2974 260.885 25.5655 260.968 25.8195C261.051 26.0735 261.146 26.3269 261.253 26.5797C261.381 26.808 261.499 27.0485 261.605 27.3014C261.712 27.5542 261.795 27.8082 261.854 28.0634C261.918 28.3888 261.936 28.7516 261.909 29.1519C261.88 29.5288 261.817 29.9074 261.719 30.2877C261.619 30.6447 261.483 30.98 261.311 31.2936C261.138 31.5838 260.926 31.8055 260.675 31.9588C260.369 32.3964 259.987 32.744 259.53 33.0013C259.074 33.2587 258.655 33.5611 258.273 33.9086C258.024 34.0853 257.737 34.2169 257.413 34.3034C257.112 34.3888 256.799 34.4747 256.475 34.5612C256.225 34.7145 255.928 34.8818 255.585 35.0631C255.241 35.221 254.885 35.3795 254.517 35.5386C254.149 35.6743 253.779 35.7865 253.408 35.8754C253.036 35.9408 252.708 35.9688 252.426 35.9594C251.737 36.2518 251.055 36.45 250.379 36.554C249.728 36.6802 248.954 36.6718 248.055 36.5288C247.218 36.6877 246.432 36.6916 245.697 36.5404C244.985 36.3881 244.339 36.1269 243.757 35.7569C243.198 35.3623 242.693 34.8946 242.244 34.3538C241.817 33.7883 241.459 33.196 241.17 32.5768C240.917 31.2518 240.903 30.0439 241.131 28.9532C241.357 27.839 241.705 26.8126 242.175 25.8741C242.666 24.911 243.232 24.0263 243.873 23.2201C244.512 22.3904 245.129 21.5853 245.724 20.8048C245.867 20.8447 245.972 20.8394 246.04 20.7891C246.13 20.7142 246.208 20.6282 246.274 20.5311C246.338 20.4106 246.403 20.3017 246.469 20.2046C246.558 20.1063 246.66 20.0426 246.776 20.0133C246.922 19.654 247.143 19.3849 247.44 19.2059C247.758 19.0023 248.003 18.7321 248.174 18.395C248.382 18.3377 248.554 18.2588 248.69 18.1581C248.826 18.0575 248.949 17.9458 249.06 17.8229C249.195 17.6989 249.33 17.5866 249.466 17.486C249.601 17.3619 249.761 17.2718 249.945 17.2157L249.926 16.8295C250.338 16.6213 250.632 16.3954 250.808 16.152C251.006 15.8841 251.236 15.5675 251.5 15.2024C251.709 15.1686 251.873 15.1487 251.99 15.1429C252.13 15.1359 252.328 15.1026 252.583 15.043C252.754 14.7059 252.906 14.452 253.038 14.2812C253.194 14.1091 253.419 13.9219 253.714 13.7195C254.002 13.846 254.311 13.9245 254.641 13.955C254.994 13.9844 255.306 14.1214 255.576 14.3661C255.612 14.599 255.691 14.7828 255.815 14.9174C255.938 15.0287 256.073 15.1393 256.219 15.2494C256.364 15.336 256.498 15.4349 256.621 15.5462C256.767 15.6562 256.869 15.8154 256.926 16.0238C257.021 16.0425 257.079 16.0279 257.1 15.9799C257.144 15.9308 257.214 15.9156 257.309 15.9343C257.395 16.2586 257.488 16.4769 257.588 16.5893C257.686 16.6782 257.79 16.8726 257.898 17.1722C257.793 17.4121 257.712 17.6626 257.654 17.9236C257.619 18.16 257.487 18.3425 257.259 18.4712C257.244 18.6362 257.295 18.7275 257.413 18.7451C257.53 18.7393 257.604 18.7943 257.633 18.9102C257.667 19.1197 257.639 19.2736 257.55 19.3719C258.157 20.2569 258.709 21.2033 259.205 22.2112C259.7 23.1956 260.251 24.1304 260.858 25.0154ZM256.635 28.5694C256.716 28.3072 256.822 28.0907 256.955 27.9199C257.11 27.7479 257.192 27.4974 257.199 27.1685C257.072 26.9871 256.995 26.8501 256.967 26.7576C256.938 26.6418 256.917 26.4668 256.906 26.2327C256.355 25.5326 255.872 24.7823 255.456 23.9816C255.04 23.1575 254.579 22.3943 254.075 21.6919C254.033 21.7879 253.956 21.8856 253.843 21.985C253.731 22.0845 253.601 22.0675 253.454 21.934C253.416 22.1236 253.341 22.2681 253.229 22.3676C253.115 22.4436 252.988 22.4852 252.848 22.4921C252.706 22.4757 252.552 22.4482 252.386 22.4095C252.242 22.3463 252.109 22.2707 251.988 22.1829C251.336 22.7551 250.683 23.3155 250.03 23.8643C249.376 24.413 248.798 25.0402 248.293 25.7458C248.202 25.7973 248.144 25.8236 248.121 25.8248C248.096 25.8025 248.027 25.8177 247.912 25.8704C247.747 26.3244 247.533 26.7457 247.271 27.1342C247.031 27.4982 246.791 27.8738 246.552 28.2612C246.314 28.6485 246.111 29.0575 245.945 29.4882C245.778 29.9188 245.697 30.4157 245.702 30.9786C246.116 31.2866 246.594 31.4623 247.136 31.5057C247.678 31.5492 248.229 31.5335 248.788 31.4587C249.371 31.3828 249.929 31.2847 250.463 31.1643C251.019 31.0193 251.531 30.9351 251.999 30.9119C252.971 30.6289 253.798 30.2827 254.482 29.8732C255.165 29.4403 255.882 29.0057 256.635 28.5694ZM268.995 31.5098C268.784 32.459 268.586 33.1846 268.4 33.6866C268.236 34.1641 267.967 34.6703 267.595 35.205C267.288 35.1734 267.08 35.2189 266.968 35.3418C266.857 35.4647 266.734 35.5764 266.598 35.677C266.389 35.7343 266.237 35.7419 266.141 35.6997C266.045 35.6576 265.961 35.6031 265.887 35.5364C265.814 35.4931 265.718 35.4392 265.597 35.3748C265.501 35.3326 265.348 35.3168 265.137 35.3273C265.081 35.1423 265.014 34.9697 264.935 34.8093C264.88 34.6478 264.725 34.5968 264.47 34.6564C264.508 34.4668 264.512 34.3141 264.483 34.1982C264.452 34.0589 264.411 33.9436 264.36 33.8523C264.331 33.7365 264.302 33.6323 264.274 33.5398C264.245 33.4239 264.249 33.2829 264.288 33.1167C264.171 33.1225 264.073 33.0453 263.995 32.8849C263.917 32.7245 263.827 32.5647 263.725 32.4055C263.774 31.9807 263.824 31.5793 263.876 31.2012C263.928 30.8232 263.992 30.468 264.069 30.1356C264.17 29.8021 264.248 29.4697 264.301 29.1385C264.355 28.8073 264.303 28.4696 264.145 28.1255C264.243 28.191 264.312 28.1758 264.354 28.0799C264.395 27.9605 264.424 27.8183 264.439 27.6533C264.453 27.4648 264.456 27.2887 264.448 27.1248C264.438 26.9376 264.419 26.786 264.39 26.6701C264.594 26.0498 264.75 25.4202 264.859 24.7812C264.99 24.1176 265.099 23.4669 265.184 22.829C265.293 22.19 265.403 21.5627 265.513 20.9471C265.623 20.3315 265.783 19.7604 265.991 19.2337C266.246 19.1741 266.529 19.1953 266.839 19.2972C267.172 19.3745 267.377 19.4934 267.455 19.6537C268.041 19.1553 268.551 18.5667 268.987 17.888C269.421 17.1859 269.868 16.5065 270.329 15.8501C270.789 15.1936 271.299 14.605 271.86 14.0843C272.444 13.5625 273.19 13.232 274.099 13.093C274.584 13.4209 275.117 13.7581 275.698 14.1047C276.3 14.4267 276.804 14.871 277.207 15.4376C277.399 15.5219 277.557 15.6197 277.679 15.7309C277.824 15.8176 277.994 15.9148 278.187 16.0225L278.208 16.4438C278.501 16.6874 278.739 16.9806 278.92 17.3236C279.124 17.642 279.306 17.9967 279.466 18.3876C279.625 18.7552 279.785 19.1345 279.945 19.5254C280.104 19.893 280.286 20.2477 280.491 20.5895C280.45 20.7088 280.431 20.8153 280.436 20.909C280.44 20.9792 280.455 21.0606 280.483 21.153C280.535 21.2443 280.575 21.3362 280.603 21.4287C280.631 21.5212 280.637 21.6499 280.622 21.8149C280.603 22.8484 280.305 23.6963 279.728 24.3586C279.174 25.0197 278.486 25.5819 277.664 26.0452C276.841 26.485 275.957 26.8693 275.011 27.1979C274.065 27.5265 273.214 27.8739 272.458 28.2401C272.463 28.3337 272.5 28.3788 272.571 28.3753C272.664 28.3706 272.702 28.4274 272.685 28.5456C273.264 28.8688 273.723 29.1276 274.061 29.3219C274.399 29.5163 274.712 29.6768 275 29.8032C275.311 29.9286 275.634 30.0416 275.967 30.1423C276.323 30.2185 276.809 30.3117 277.424 30.4219C278.04 30.5321 278.514 30.6258 278.846 30.7031C279.201 30.7559 279.52 30.8104 279.805 30.8667C280.088 30.8995 280.371 30.9324 280.655 30.9652C280.96 30.9735 281.383 30.9877 281.924 31.0077C282.145 31.2079 282.333 31.4567 282.489 31.754C282.667 32.0267 282.787 32.3141 282.849 32.6161C282.909 32.8947 282.935 33.175 282.926 33.4571C282.915 33.7157 282.844 33.9305 282.711 34.1013C282.738 34.1704 282.787 34.2032 282.857 34.1997C282.949 34.1716 283.043 34.1669 283.138 34.1857C283.002 34.2863 282.891 34.4092 282.804 34.5543C282.718 34.6994 282.631 34.8445 282.544 34.9896C282.458 35.1347 282.358 35.257 282.246 35.3565C282.134 35.4793 281.974 35.5577 281.765 35.5916C281.053 35.9086 280.141 35.9657 279.028 35.7629C277.916 35.5835 276.501 35.208 274.783 34.6364C273.924 34.3506 273.219 34.104 272.669 33.8967C272.141 33.6648 271.673 33.4417 271.263 33.2274C270.876 32.9886 270.511 32.7368 270.17 32.4722C269.851 32.2065 269.46 31.8857 268.995 31.5098ZM273.418 19.2164C273.179 19.6038 272.903 19.9577 272.59 20.2784C272.301 20.5978 272.013 20.9289 271.725 21.2718C271.459 21.5901 271.219 21.954 271.004 22.3636C270.789 22.7498 270.647 23.2027 270.579 23.7223C271.394 23.588 272.237 23.3231 273.109 22.9277C273.98 22.5089 274.805 22.1159 275.585 21.7486C275.455 21.0276 275.169 20.4552 274.725 20.0314C274.305 19.6064 273.869 19.3348 273.418 19.2164ZM301.404 30.6021C301.284 31.0071 301.093 31.4272 300.833 31.8625C300.596 32.2733 300.298 32.6518 299.939 32.9982C299.603 33.3199 299.218 33.5972 298.784 33.83C298.35 34.0628 297.887 34.2031 297.397 34.251C297.089 34.1959 296.874 34.1244 296.753 34.0366C296.656 33.9711 296.547 33.9061 296.426 33.8417C296.354 33.7983 296.282 33.7667 296.21 33.7468C296.161 33.7023 296.113 33.6695 296.065 33.6484L295.635 33.4938L295.752 33.0304C295.79 32.8408 295.771 32.7009 295.696 32.6108C295.62 32.4972 295.472 32.3521 295.252 32.1753C295.178 32.1085 295.105 32.0418 295.031 31.9751C294.957 31.9083 294.895 31.841 294.845 31.7731L294.215 31.1357L295.151 30.8427C295.728 30.6498 296.104 30.4199 296.278 30.1531C296.476 29.8851 296.536 29.448 296.459 28.8417C295.986 28.7713 295.588 28.7794 295.264 28.8659C294.963 28.9513 294.651 29.0489 294.328 29.1589C293.912 29.2969 293.484 29.4237 293.044 29.5395C292.626 29.6307 292.16 29.6891 291.645 29.7147C291.458 29.724 291.282 29.7327 291.118 29.7409C290.953 29.7256 290.777 29.7109 290.588 29.6968L290.234 29.6441C290.174 29.3889 290.12 29.2508 290.072 29.2297C290.023 29.1852 289.974 29.1407 289.925 29.0962C289.802 28.985 289.666 28.8393 289.516 28.659C289.388 28.4541 289.352 28.1978 289.407 27.89C289.28 27.6851 289.199 27.4779 289.165 27.2684C289.039 27.5563 288.948 27.8542 288.893 28.162L288.77 28.5201L288.422 28.6078C288.376 28.6335 288.344 28.6938 288.325 28.7886C288.306 28.86 288.297 28.9191 288.299 28.9659L288.153 29.5715C288.109 29.6207 288.064 29.6698 288.02 29.719C287.974 29.7447 287.929 29.7821 287.885 29.8313C287.848 30.0443 287.8 30.2579 287.74 30.472C287.681 30.6862 287.62 30.8887 287.559 31.0794C287.457 31.3896 287.367 31.6991 287.289 32.0081C287.233 32.2925 287.223 32.5746 287.26 32.8543L287.139 33.2475C287.029 33.3938 286.906 33.5172 286.77 33.6179C286.633 33.6951 286.497 33.7723 286.36 33.8495C286.315 33.8986 286.247 33.9489 286.156 34.0004C286.087 34.0273 286.029 34.0536 285.984 34.0794L285.898 34.4709L285.48 34.562C285.225 34.6217 285.039 34.6661 284.923 34.6953C284.831 34.7234 284.714 34.7409 284.574 34.7479L284.221 34.7302C283.953 34.5324 283.746 34.3784 283.6 34.2683C283.452 34.1349 283.282 34.0143 283.089 33.9065C282.864 33.6361 282.737 33.4313 282.706 33.292C282.676 33.1527 282.646 33.0251 282.617 32.9092C282.563 32.7711 282.534 32.6552 282.529 32.5616C282.501 32.4691 282.462 32.4006 282.413 32.3561L281.936 31.9575L282.306 31.6223L282.312 31.0236C282.721 29.8065 283.155 28.635 283.615 27.5092C284.099 26.3822 284.593 25.2313 285.098 24.0563C285.267 23.6725 285.424 23.2892 285.569 22.9065C285.738 22.5226 285.906 22.1388 286.075 21.7549C286.048 21.6859 286.032 21.6045 286.028 21.5109C286.023 21.4173 286.041 21.3108 286.082 21.1914C286.32 20.7806 286.513 20.419 286.662 20.1066C286.809 19.7707 286.957 19.4348 287.104 19.099C287.272 18.6917 287.44 18.2962 287.609 17.9123C287.801 17.5273 288.039 17.1283 288.323 16.7152L288.873 16.4414C288.942 16.4145 289.023 16.3871 289.115 16.359C289.207 16.3075 289.311 16.2789 289.428 16.2731L289.958 16.3171C290.598 15.9802 291.151 15.5303 291.616 14.9675C292.079 14.3812 292.549 13.689 293.026 12.8909L293.353 12.3819L293.823 12.6401C293.944 12.7045 294.111 12.7666 294.325 12.8263C294.538 12.8627 294.763 12.9101 295.001 12.9687C295.427 13.0414 295.83 13.127 296.211 13.2254C296.591 13.3238 296.904 13.4842 297.15 13.7067C297.309 14.0742 297.405 14.351 297.437 14.5371C297.47 14.7233 297.515 14.9088 297.571 15.0937C297.661 15.4882 297.739 15.8832 297.806 16.2788C297.896 16.6733 297.965 17.1157 298.012 17.6061C298.149 17.9983 298.263 18.3915 298.353 18.786C298.465 19.1559 298.566 19.538 298.656 19.9325C298.801 20.4885 298.946 21.0328 299.089 21.5653C299.232 22.0745 299.409 22.5585 299.619 23.0174C299.806 23.0081 299.924 23.0139 299.972 23.035C300.087 22.9824 300.202 22.9415 300.318 22.9122C300.457 22.8818 300.608 22.8509 300.771 22.8193L301.155 22.765L301.313 23.1091C301.343 23.225 301.465 23.3362 301.682 23.4428C301.987 23.4511 302.213 23.5102 302.36 23.6203C302.505 23.7069 302.639 23.8059 302.761 23.9171C302.86 24.0061 302.957 24.0716 303.053 24.1138L303.59 24.2983L303.335 24.839C303.122 25.272 302.803 25.6985 302.378 26.1185C301.975 26.514 301.511 26.8539 300.986 27.1382C301.016 27.2775 301.035 27.4173 301.042 27.5578C301.071 27.6737 301.112 27.8007 301.166 27.9388C301.256 28.3332 301.335 28.74 301.403 29.159C301.471 29.578 301.492 30.0111 301.468 30.4582L301.404 30.6021ZM290.955 25.0322C291.655 24.9505 292.284 24.8723 292.844 24.7975C293.425 24.6982 294.064 24.5608 294.759 24.3855C294.56 23.6913 294.349 22.9744 294.124 22.2346C293.899 21.4715 293.662 20.7206 293.414 19.982L293.221 20.3436C292.777 20.8585 292.348 21.4313 291.933 22.062C291.542 22.6916 291.208 23.2831 290.93 23.8367C290.8 24.0543 290.67 24.272 290.54 24.4897C290.41 24.7073 290.292 24.9244 290.186 25.1409C290.325 25.1105 290.453 25.0924 290.57 25.0866C290.711 25.0796 290.839 25.0615 290.955 25.0322ZM312.358 8.79678C312.369 9.00746 312.346 9.2667 312.291 9.5745C312.26 9.88114 312.228 10.1878 312.196 10.4944C312.165 10.8011 312.167 11.0825 312.203 11.3389C312.238 11.5718 312.351 11.7187 312.542 11.7796C312.182 13.0412 311.941 14.0975 311.819 14.9483C311.721 15.798 311.632 16.612 311.554 17.3903C311.497 18.1441 311.408 18.9463 311.286 19.7972C311.164 20.6481 310.923 21.6926 310.562 22.9308C310.342 23.6927 310.052 24.2351 309.692 24.558C309.332 24.8575 308.941 25.0178 308.52 25.0387C308.098 25.0597 307.659 24.9642 307.203 24.7522C306.747 24.5402 306.324 24.3031 305.936 24.0408C305.843 23.5996 305.805 23.0618 305.82 22.4274C305.858 21.7685 305.906 21.0855 305.965 20.3786C306.023 19.6717 306.084 18.9999 306.146 18.3632C306.207 17.7031 306.25 17.1495 306.275 16.7025C306.496 16.4333 306.649 16.2145 306.735 16.046C306.82 15.8775 306.87 15.699 306.884 15.5105C306.922 15.321 306.945 15.0851 306.955 14.8031C306.964 14.521 307.003 14.1201 307.071 13.6005C307.105 13.3407 307.07 13.1194 306.967 12.9368C306.887 12.7296 306.865 12.5313 306.903 12.3417C306.945 12.2457 307.011 12.172 307.103 12.1205C307.217 12.0679 307.284 11.9824 307.301 11.8642C307.38 11.5553 307.391 11.32 307.337 11.1585C307.28 10.9736 307.304 10.7494 307.409 10.4861C307.516 10.293 307.642 9.99343 307.786 9.58733C307.953 9.15667 308.001 8.72012 307.932 8.27768C308.135 8.10334 308.325 7.90618 308.501 7.68619C308.678 7.4662 308.856 7.26962 309.035 7.09645C309.237 6.8987 309.451 6.73549 309.68 6.6068C309.931 6.47695 310.233 6.4033 310.584 6.38584C310.784 6.63402 310.937 6.87282 311.042 7.10225C311.147 7.33168 311.24 7.54999 311.321 7.75717C311.425 7.9632 311.552 8.15635 311.702 8.33663C311.852 8.51692 312.07 8.6703 312.358 8.79678ZM309.876 28.9489C309.932 29.1338 309.976 29.3076 310.007 29.4703C310.039 29.633 310.071 29.8074 310.104 29.9935C309.988 30.4921 309.858 30.9444 309.713 31.3505C309.651 31.5179 309.61 31.6255 309.589 31.6735C309.568 31.7215 309.558 31.7572 309.559 31.7806C309.56 31.804 309.573 31.8385 309.599 31.8842C309.624 31.9064 309.64 31.9995 309.648 32.1633L309.494 32.5934C309.385 32.7631 309.251 32.8988 309.092 33.0006C308.956 33.1012 308.808 33.1907 308.647 33.2691C308.579 33.3194 308.499 33.3586 308.407 33.3867C308.339 33.437 308.283 33.4867 308.238 33.5359L308.154 33.9625L307.666 34.0571C307.296 34.1694 306.959 34.2331 306.654 34.2482L306.268 34.2674C305.974 34.0239 305.742 33.836 305.571 33.7037C305.4 33.5714 305.207 33.4519 304.99 33.3454C304.711 32.9134 304.539 32.5347 304.476 32.2094C304.414 31.9074 304.346 31.7113 304.271 31.6212L303.755 31.154L304.161 30.8171L303.706 30.1709C303.976 29.9462 304.18 29.7836 304.315 29.683C304.451 29.5824 304.564 29.4829 304.653 29.3846C304.764 29.2617 304.874 29.1155 304.983 28.9458C305.092 28.7761 305.265 28.4976 305.504 28.1103L305.798 27.6381L306.231 27.8629C306.352 27.9273 306.566 27.9871 306.874 28.0422C307.204 28.0727 307.487 28.1055 307.723 28.1407C308.104 28.2391 308.471 28.3147 308.826 28.3675C309.203 28.3957 309.501 28.4982 309.721 28.6749L309.876 28.9489Z" fill="black"/>
<path fill-rule="evenodd" clip-rule="evenodd" d="M257.359 56.3884C216.369 55.1883 189.135 56.0531 134.562 60.2878C129.762 60.6601 122.259 61.2391 117.887 61.5746C81.8739 64.3366 31.4172 72.8188 17.3951 78.468C14.4872 79.6396 9.25232 83.012 9.22202 83.7336C9.21701 83.8529 9.46231 83.6757 10.4322 82.8593C14.9036 79.0956 26.6041 76.0531 55.3055 71.191C72.2593 68.3188 90.7572 65.8599 105.968 64.4567C117.578 63.3855 172.616 59.6308 174.456 59.7847C174.834 59.8162 172.731 60.0396 169.785 60.2812C138.128 62.8766 127.338 64.0147 108.195 66.7785C93.3628 68.9198 84.6445 70.5807 62.3368 75.5158C53.9441 77.3723 54.1872 77.3005 54.0269 77.9761C53.6209 79.6876 54.6824 79.7707 61.562 78.5653C108.218 70.3922 135.963 67.8726 179.283 67.875C190.939 67.8756 231.265 69.1213 230.544 69.4584C230.132 69.651 217.955 70.4259 197.558 71.5573C151.923 74.0891 122.621 78.1416 90.2013 86.4051C81.2121 88.6962 79.5839 89.4677 80.2915 91.0997C81.0388 92.8231 86.1192 92.5551 111.032 89.4772C148.342 84.8676 162.17 83.7939 191.902 83.198C198.814 83.0596 210.674 83.1196 210.328 83.2914C210.231 83.3393 202.717 84.1737 193.629 85.1454C170.891 87.5765 156.287 89.4457 155.757 89.9928C154.939 90.8363 155.112 92.1094 156.1 92.5288C157.305 93.0402 160.777 92.9339 168.791 92.1401C186.172 90.4184 203.494 89.8021 229.062 89.9952C232.888 90.024 237.346 90.0039 238.967 89.9504C242.74 89.8259 248.701 90.077 251.449 90.4761C252.626 90.6469 254.09 90.8581 254.702 90.9455C257.023 91.2767 249.003 89.435 245.575 88.8496C236.984 87.3828 225.734 86.6628 212.355 86.7235C209.286 86.7374 206.75 86.7118 206.719 86.6667C206.655 86.5717 209.777 86.2726 224.899 84.9253C236.494 83.892 236.786 83.8372 237.278 82.6025C237.59 81.8191 237.351 80.8616 236.717 80.3558C236.237 79.9731 219.392 79.3802 210.232 79.4235C188.271 79.5276 176.619 79.9134 161.938 81.022C147.084 82.1439 137.199 83.289 112.451 86.7551C97.3843 88.8653 89.4563 89.8519 86.8125 89.9461L85.1738 90.0045L87.1801 89.3952C93.3689 87.5163 113.919 83.1613 125.586 81.2561C149.823 77.2985 166.34 75.7092 203.321 73.776C234.395 72.1517 240.77 71.5416 241.308 70.1415C241.888 68.633 241.007 67.6853 238.479 67.1007C235.033 66.3035 192.145 64.6693 176.917 64.7548C161.985 64.8389 144.229 65.4698 134.828 66.2507C133.83 66.3336 132.743 66.3767 132.413 66.3465C129.985 66.1249 163.65 63.1353 182.894 61.8639C203.976 60.4712 220.634 59.8558 243.702 59.6174C258.618 59.4635 296.595 61.3845 311.936 63.0692C326.146 64.6299 326.657 64.6644 327.113 64.0984C327.59 63.508 327.621 63.0567 327.227 62.4738C326.725 61.7319 323.743 61.2249 316.943 60.7251C314.44 60.541 308.922 59.9899 304.679 59.5001C300.437 59.0105 295.191 58.4298 293.021 58.2097C288.928 57.7943 266.822 56.6656 257.359 56.3884ZM181.318 59.4974C181.199 59.5562 180.966 59.5505 180.802 59.4844C180.637 59.4183 180.734 59.3702 181.018 59.3774C181.302 59.3847 181.437 59.4386 181.318 59.4974ZM179.071 59.6472C178.858 59.6935 178.471 59.6786 178.212 59.6144C177.953 59.5499 178.127 59.5121 178.6 59.5301C179.073 59.5483 179.285 59.601 179.071 59.6472ZM176.738 59.785C176.476 59.8274 176.05 59.8095 175.792 59.7453C175.535 59.6811 175.749 59.6466 176.269 59.6684C176.789 59.6903 177 59.7427 176.738 59.785ZM131.416 66.4992C131.201 66.5456 130.853 66.531 130.642 66.4667C130.432 66.4022 130.608 66.3642 131.033 66.382C131.459 66.3999 131.631 66.4526 131.416 66.4992ZM129.515 66.6421C129.395 66.7018 129.201 66.6937 129.086 66.6241C128.97 66.5547 129.069 66.506 129.305 66.5159C129.542 66.5258 129.636 66.5827 129.515 66.6421ZM256.194 91.2968C256.31 91.3665 256.503 91.3746 256.624 91.3149C256.745 91.2554 256.651 91.1986 256.414 91.1887C256.178 91.1787 256.079 91.2275 256.194 91.2968Z" fill="#F40CB3"/>
</g>
<defs>
<clipPath id="clip0_272_18">
<rect width="336" height="96" fill="white"/>
</clipPath>
</defs>
</svg>
