<svg width="263" height="126" viewBox="0 0 263 126" fill="none" xmlns="http://www.w3.org/2000/svg">
<g clip-path="url(#clip0_276_24)">
<path d="M54.9357 74.7965C54.9834 74.9553 55.0026 75.0827 54.9934 75.1789C55.0038 75.2485 55.0027 75.3197 54.99 75.3928C55.0005 75.4623 55.0127 75.5434 55.0267 75.6361C55.0372 75.7056 55.0778 75.818 55.1486 75.9733C54.7807 76.8346 54.295 77.4648 53.6915 77.8639C53.1076 78.2363 52.4554 78.5479 51.7347 78.7988C51.0106 79.0264 50.265 79.2691 49.498 79.527C48.7541 79.7813 48.0347 80.1978 47.3398 80.7766C47.021 80.7061 46.7429 80.7481 46.5055 80.9024C46.2912 81.0532 45.9488 81.1403 45.4783 81.1638C45.3602 81.3238 45.2021 81.4543 45.004 81.5553C44.8024 81.6331 44.6025 81.7225 44.4044 81.8234C44.5286 82.018 44.5965 82.233 44.6083 82.4682C44.6397 82.6768 44.7007 82.8454 44.7911 82.974C45.6128 82.9212 46.5033 82.7752 47.4627 82.5358C48.4453 82.2929 49.4099 82.0882 50.3566 81.9218C50.3973 82.0342 50.3979 82.1171 50.3586 82.1704C50.3157 82.2006 50.3128 82.2603 50.35 82.3495C50.5297 82.4409 50.7146 82.5671 50.9048 82.728C51.0915 82.8658 51.2782 83.0036 51.4648 83.1414C51.6515 83.2792 51.8347 83.3938 52.0144 83.4852C52.2138 83.55 52.4276 83.5533 52.6559 83.4952C52.7765 83.6666 52.8659 83.8665 52.924 84.0947C53.0018 84.2963 53.0118 84.52 52.954 84.7657C52.6216 85.0765 52.291 85.3989 51.9621 85.7329C51.6297 86.0438 51.2706 86.3349 50.8849 86.6064C50.5224 86.8743 50.1198 87.1128 49.6772 87.3217C49.2544 87.5039 48.7631 87.6254 48.2034 87.686C48.0875 87.7035 47.9948 87.7175 47.9253 87.7279C47.8789 87.7349 47.8041 87.7106 47.701 87.6551C47.533 87.7989 47.2717 87.8738 46.9171 87.8799C46.5857 87.8824 46.336 87.9556 46.168 88.0994C45.8956 88.022 45.5758 88.0228 45.2085 88.1018C44.8608 88.1542 44.541 88.155 44.2489 88.1043C43.9514 88.6468 43.694 89.2189 43.4765 89.8206C43.2591 90.4222 43.0816 91.0533 42.9442 91.714C43.7496 91.7111 44.4055 91.6597 44.9119 91.5597C45.4414 91.4561 45.9345 91.3463 46.391 91.2301C46.844 91.0907 47.3104 90.9611 47.7901 90.8414C48.2663 90.6986 48.877 90.5828 49.6221 90.4942C50.0472 90.1694 50.5674 89.9251 51.1826 89.7613C51.8176 89.5708 52.3876 89.3426 52.8927 89.0769C53.0886 89.1185 53.27 89.2215 53.437 89.386C53.6005 89.5272 53.7525 89.6702 53.8928 89.815C54.0528 89.9331 54.2111 90.0396 54.3676 90.1345C54.5241 90.2295 54.7049 90.2496 54.91 90.195C55.0167 90.2737 55.0921 90.3809 55.1362 90.5164C55.2 90.6253 55.2523 90.736 55.2929 90.8484C55.3335 90.9607 55.384 91.0598 55.4443 91.1455C55.5243 91.2046 55.6321 91.212 55.7677 91.1679C55.5353 91.9851 55.2188 92.6372 54.8182 93.1242C54.4372 93.5846 53.9728 93.9627 53.4248 94.2586C52.8768 94.5545 52.2524 94.8145 51.5514 95.0387C50.8736 95.2594 50.1181 95.5154 49.2851 95.8069C49.0835 95.8847 48.9079 95.8993 48.7584 95.8507C48.6124 95.8253 48.4466 95.8266 48.2612 95.8546C47.7457 96.0508 47.124 96.2511 46.3964 96.4556C45.6687 96.6601 44.9208 96.8084 44.1525 96.9004C43.3842 96.9925 42.6384 96.9983 41.9152 96.9177C41.1955 96.8602 40.5823 96.6445 40.0756 96.2705C39.8657 96.1362 39.7103 95.9701 39.6093 95.7719C39.5281 95.5472 39.3512 95.3961 39.0788 95.3186C39.0102 95.0208 38.9132 94.6918 38.7878 94.3314C38.6624 93.9711 38.5352 93.5992 38.4063 93.2157C38.2739 92.809 38.1549 92.4121 38.0491 92.0251C37.9666 91.6346 37.9356 91.2719 37.9562 90.937C37.9734 90.5789 38.0653 90.245 38.2319 89.9355C38.4218 89.6224 38.4575 89.3089 38.3391 88.995C38.4514 88.9543 38.5122 88.8859 38.5214 88.7897C38.5272 88.6703 38.6129 88.61 38.7786 88.6087C38.8548 88.1706 38.946 87.7539 39.0524 87.3587C39.1587 86.9634 39.2668 86.5797 39.3767 86.2076C39.5097 85.832 39.6311 85.4582 39.7409 85.0861C39.8704 84.6874 39.9831 84.2556 40.079 83.7908C39.7091 83.5384 39.4169 83.2506 39.2023 82.9275C39.0073 82.5776 38.8489 82.2341 38.727 81.8969C38.6016 81.5366 38.4877 81.1745 38.3855 80.8107C38.2798 80.4237 38.1393 80.0419 37.964 79.6654C38.1434 79.2828 38.3796 78.9628 38.6726 78.7053C38.9853 78.4212 39.3282 78.1799 39.7012 77.9815C40.0742 77.783 40.4855 77.6025 40.935 77.44C41.3846 77.2774 41.8556 77.0998 42.348 76.907C43.2296 76.466 44.0174 76.1103 44.7114 75.8398C45.4286 75.5658 46.1278 75.33 46.8091 75.1325C47.5101 74.9084 48.236 74.6923 48.9868 74.4843C49.7377 74.2764 50.5858 74.0063 51.5312 73.6742C51.7712 73.8513 51.984 73.9259 52.1694 73.898C52.2306 73.6755 52.3262 73.6018 52.456 73.677C52.6056 73.7256 52.653 73.6473 52.5984 73.4423C52.8896 73.8013 53.2299 74.0937 53.6195 74.3194C54.0287 74.5185 54.4674 74.6775 54.9357 74.7965ZM63.2242 87.0932C63.0226 87.1709 62.8911 87.3211 62.8299 87.5437C62.7651 87.743 62.7021 87.954 62.6408 88.1766C62.6027 88.3956 62.5513 88.6048 62.4866 88.8042C62.4415 88.9769 62.3378 89.0755 62.1756 89.1C62.1804 89.2889 62.1353 89.4616 62.0404 89.6181C61.9686 89.7711 61.8986 89.9357 61.8304 90.1119C61.7586 90.265 61.7135 90.4377 61.6951 90.6301C61.6732 90.7993 61.7261 90.9928 61.8537 91.2106C61.6893 91.3776 61.6031 91.592 61.5952 91.8539C61.5872 92.1159 61.566 92.3679 61.5314 92.6102C61.52 92.8489 61.4569 93.0599 61.3423 93.2431C61.2277 93.4263 60.9833 93.5342 60.609 93.5669C60.5534 93.6701 60.5506 93.7298 60.6004 93.746C60.6503 93.7622 60.6972 93.838 60.7414 93.9736C60.4795 93.9657 60.2842 94.007 60.1556 94.0974C60.0537 94.2076 59.9118 94.2882 59.7299 94.3394C59.2686 94.2667 58.8611 94.0792 58.5074 93.777C58.1769 93.4713 57.8644 93.1273 57.5697 92.7451C57.2948 92.3362 57.0314 91.9255 56.7797 91.5131C56.5511 91.0972 56.3312 90.7393 56.1201 90.4393C56.1512 90.1739 56.1261 89.9288 56.0448 89.704C55.96 89.456 55.8475 89.2597 55.7072 89.1149C56.4795 86.5335 57.3317 83.7741 58.2637 80.8368C59.1957 77.8994 60.0635 75.0074 60.8669 72.1605C61.4314 72.2888 61.9895 72.4535 62.5413 72.6548C63.1128 72.8294 63.6333 73.059 64.1029 73.3438C64.5956 73.6251 65.0275 73.9748 65.3987 74.3929C65.7663 74.7878 66.0384 75.2564 66.2149 75.7986C66.1896 75.9447 66.1403 76.0114 66.0673 75.9987C66.014 75.9593 65.9694 75.9779 65.9335 76.0544C66.0437 76.1563 66.1023 76.2304 66.1092 76.2768C66.1394 76.3196 66.1464 76.366 66.1302 76.4158C66.1372 76.4622 66.1477 76.5317 66.1616 76.6244C66.1721 76.6939 66.2226 76.793 66.3131 76.9216C66.2169 76.9124 66.1491 76.9344 66.1097 76.9878C66.0935 77.0376 66.024 77.0481 65.9012 77.0192C66.0323 77.2602 66.0869 77.4652 66.065 77.6345C66.0663 77.8002 66.0426 77.9578 65.994 78.1073C65.942 78.2337 65.905 78.3815 65.8831 78.5507C65.8577 78.6967 65.8972 78.8804 66.0017 79.1017C65.9322 79.1122 65.8777 79.1441 65.8384 79.1974C65.8187 79.2241 65.8007 79.2623 65.7845 79.3122C65.7649 79.3388 65.7353 79.3789 65.696 79.4322C65.6763 79.4589 65.6299 79.4658 65.5569 79.4531C65.7033 79.9525 65.8033 80.4589 65.857 80.9723C65.9107 81.4856 65.9661 82.0106 66.0232 82.5471C66.1001 83.057 66.1937 83.5999 66.3042 84.1758C66.4113 84.7285 66.5797 85.2957 66.8096 85.8773C67.5705 85.2648 68.1367 84.5395 68.5082 83.7014C68.9028 82.8597 69.1791 81.9411 69.3372 80.9455C69.5184 79.9464 69.6081 78.89 69.6061 77.7763C69.6042 76.6626 69.6104 75.5239 69.6246 74.3604C69.8018 74.1204 69.9256 73.841 69.996 73.5222C70.0665 73.2035 70.1236 72.8749 70.1674 72.5364C70.2078 72.1748 70.2498 71.8248 70.2936 71.4864C70.3339 71.1248 70.4026 70.7944 70.4998 70.4954C70.8544 70.4893 71.1616 70.5615 71.4213 70.712C71.7007 70.8358 71.9604 70.9863 72.2004 71.1635C72.4369 71.3174 72.685 71.4696 72.9447 71.6201C73.2009 71.7474 73.5063 71.8081 73.861 71.802C74.1984 72.1541 74.511 72.4981 74.7987 72.8339C75.0863 73.1698 75.2963 73.5411 75.4287 73.9478C75.3408 74.1507 75.2795 74.3732 75.2449 74.6155C75.2335 74.8542 75.2105 75.0947 75.1759 75.3369C75.1413 75.5792 75.0818 75.8133 74.9973 76.0393C74.9094 76.2422 74.7716 76.4289 74.584 76.5994C74.6053 77.2124 74.5964 77.7826 74.5574 78.31C74.538 78.8106 74.5071 79.313 74.4646 79.8172C74.4452 80.3179 74.4409 80.8399 74.4517 81.3835C74.4591 81.9038 74.5215 82.4751 74.639 83.0974C74.5339 83.6583 74.4225 84.2558 74.3047 84.8898C74.1869 85.5239 74.1068 86.0929 74.0643 86.5971C73.7389 86.9543 73.5033 87.3572 73.3576 87.8058C73.2119 88.2544 73.0546 88.7047 72.8857 89.1568C72.807 89.2635 72.7525 89.2954 72.7224 89.2525C72.6922 89.2097 72.6058 89.1871 72.4633 89.1849C72.5004 89.2741 72.5109 89.3436 72.4947 89.3935C72.4785 89.4433 72.4508 89.4949 72.4114 89.5483C72.3917 89.5749 72.3755 89.6248 72.3628 89.6978C72.3733 89.7673 72.4105 89.8565 72.4743 89.9654C72.1708 90.1534 71.9108 90.394 71.6943 90.6874C71.4777 90.9807 71.2346 91.2544 70.9647 91.5084C70.718 91.7589 70.3914 91.9503 69.9847 92.0827C69.6012 92.2117 69.0675 92.2091 68.3836 92.0752C67.3286 91.5231 66.3622 90.851 65.4844 90.059C64.6297 89.2634 63.8763 88.2748 63.2242 87.0932ZM91.6167 89.3558C91.2494 89.4348 90.7841 89.4931 90.2209 89.5306C89.6809 89.5646 89.1949 89.7208 88.7628 89.9992C87.5275 90.138 86.2533 90.176 84.9402 90.1132C83.6271 90.0503 82.4096 89.9138 81.2876 89.7037C81.0174 89.4837 80.7507 89.2869 80.4875 89.1132C80.2209 88.9164 79.8835 88.8013 79.4756 88.768C78.853 88.4115 78.3207 87.9466 77.8788 87.3732C77.4333 86.7767 77.0522 86.1349 76.7353 85.4479C76.4185 84.7609 76.1694 84.0518 75.9881 83.3207C75.8033 82.5663 75.6701 81.8398 75.5885 81.141C75.7789 80.0457 76.1311 79.0801 76.6451 78.2442C77.1788 77.3816 77.7258 76.5288 78.2861 75.6859C78.5664 75.5014 78.7656 75.3292 78.8837 75.1692C79.0215 74.9825 79.1628 74.819 79.3075 74.6787C79.472 74.5117 79.6266 74.358 79.7713 74.2177C79.9358 74.0507 80.0736 73.864 80.1847 73.6576C80.6539 73.4684 81.0466 73.2433 81.3628 72.9823C81.6987 72.6947 82.023 72.4088 82.3357 72.1246C82.6449 71.8173 82.9692 71.5314 83.3086 71.2669C83.648 71.0025 84.0523 70.7756 84.5215 70.5864C84.6755 70.3499 84.8712 70.1544 85.1087 70.0001C85.3426 69.8227 85.5784 69.6568 85.8158 69.5025C86.073 69.3215 86.3069 69.144 86.5177 68.9701C86.7517 68.7926 86.9208 68.5775 87.0249 68.3248C87.1687 68.4927 87.3414 68.5378 87.543 68.46C87.7411 68.359 87.9276 68.2598 88.1026 68.1623C88.215 68.1217 88.3112 68.1309 88.3912 68.19C88.4943 68.2455 88.5859 68.3028 88.6659 68.3619C88.7459 68.4209 88.8109 68.4585 88.8607 68.4747C88.9302 68.4642 88.9795 68.3976 89.0083 68.2747C89.1242 68.2572 89.1677 68.3099 89.1388 68.4328C89.1099 68.5557 89.0874 68.642 89.0712 68.6919C89.2531 68.6407 89.4108 68.6644 89.5441 68.7628C89.6971 68.8346 89.9144 68.8611 90.196 68.8423C90.3062 68.9442 90.3434 69.0334 90.3075 69.1099C90.2681 69.1633 90.2589 69.2595 90.2799 69.3985C91.0066 69.5023 91.4976 69.772 91.7528 70.2076C92.0046 70.62 92.0861 71.0817 91.9972 71.5929C91.9083 72.104 91.6867 72.5996 91.3324 73.0797C90.9781 73.5597 90.5681 73.9059 90.1024 74.1183C89.0354 74.5873 88.0315 75.0822 87.0908 75.6033C86.1698 76.0976 85.4489 76.7396 84.9279 77.5291C84.3961 77.7752 83.9311 78.0705 83.5326 78.4149C83.1539 78.7327 82.7937 79.0952 82.4521 79.5022C82.1302 79.8825 81.8234 80.2843 81.5316 80.7075C81.2596 81.104 80.9643 81.5041 80.6459 81.9076C80.718 82.2286 80.6985 82.4922 80.5874 82.6986C80.4959 82.8783 80.4062 83.0696 80.3183 83.2724C80.4171 83.6131 80.5453 83.9137 80.7031 84.1744C80.8574 84.4119 81.0233 84.6476 81.2008 84.8815C82.8002 85.1145 84.4662 85.1597 86.1987 85.0171C87.9543 84.871 89.703 84.6786 91.4447 84.4398C91.6418 84.6471 91.8604 84.8393 92.1004 85.0165C92.3601 85.1669 92.6002 85.3441 92.8205 85.5479C93.0373 85.7285 93.2247 85.9492 93.3824 86.2098C93.5367 86.4473 93.6088 86.7683 93.5987 87.1727C93.3266 87.5693 93.0163 87.9479 92.6677 88.3085C92.3156 88.646 91.9653 88.9951 91.6167 89.3558ZM111.882 66.0006C112.005 66.5034 112.153 66.9316 112.324 67.2849C112.496 67.6383 112.678 67.9783 112.869 68.3049C113.034 68.6119 113.187 68.9207 113.329 69.2312C113.49 69.515 113.627 69.8736 113.74 70.3069C113.645 70.9374 113.59 71.5146 113.574 72.0385C113.581 72.5588 113.581 73.1041 113.572 73.6743C113.323 74.5413 113.072 75.3139 112.819 75.992C112.566 76.6702 112.37 77.2567 112.231 77.7517C112.132 77.885 112.049 78.0398 111.981 78.216C111.932 78.3655 111.874 78.5284 111.806 78.7046C111.77 78.7811 111.728 78.8941 111.679 79.0437C111.63 79.1932 111.586 79.2946 111.547 79.348L110.815 79.2094L110.807 80.0995L110.341 80.3119L110.057 80.7814C109.731 81.6126 109.366 82.3314 108.959 82.9378C108.55 83.521 108.063 84.0683 107.5 84.5798C106.957 85.0646 106.318 85.5402 105.582 86.0066C104.87 86.4695 104.058 86.9829 103.148 87.5468C102.747 87.5598 102.396 87.589 102.094 87.6344C101.813 87.6532 101.543 87.6701 101.284 87.6854C100.844 87.7518 100.294 87.7991 99.6347 87.8274C99.5373 87.6524 99.4138 87.5407 99.2642 87.4921C99.1147 87.4435 98.982 87.428 98.8661 87.4454C98.4442 87.3194 98.1027 87.0983 97.8418 86.7821C97.6005 86.4392 97.3557 86.0732 97.1074 85.684C96.9531 85.4465 96.8023 85.2322 96.655 85.0411C96.5042 84.8268 96.3418 84.6143 96.1678 84.4035L96.7326 84.1406L95.842 83.4215C95.7852 83.359 95.7185 83.3098 95.642 83.2739C95.562 83.2148 95.4936 83.154 95.4367 83.0915L95.3182 82.5405C95.0076 80.9519 94.7528 79.497 94.5537 78.176C94.3743 76.8283 94.3798 75.6068 94.5703 74.5115L94.5126 74.1291C94.5053 73.6088 94.512 73.1812 94.5326 72.8462C94.5497 72.4881 94.5588 72.1549 94.5597 71.8466C94.5524 71.3263 94.5851 70.8355 94.6578 70.3742C94.9717 70.2557 95.1959 70.0916 95.3302 69.8817C95.461 69.6487 95.5721 69.4423 95.6635 69.2627C95.9845 69.1906 96.2116 69.2037 96.345 69.3022C96.4783 69.4006 96.6221 69.5685 96.7764 69.806C96.9237 69.9971 97.0977 70.2079 97.2984 70.4384C97.5222 70.6654 97.8184 70.8222 98.187 70.9089C98.2613 71.0873 98.3489 71.2755 98.4499 71.4736C98.5705 71.6451 98.6947 71.8397 98.8223 72.0575C99.0671 72.4235 99.2922 72.8162 99.4976 73.2356C99.7227 73.6283 99.8766 74.0199 99.9591 74.4104C99.7937 74.8857 99.6852 75.4235 99.6334 76.0239C99.6049 76.6207 99.6128 77.2239 99.6573 77.8335C99.7214 78.4164 99.8186 78.9824 99.9488 79.5317C100.099 80.0542 100.271 80.4904 100.466 80.8403L100.743 81.2608L101.323 81.1022C101.991 80.812 102.587 80.5207 103.111 80.2283C103.656 79.9092 104.149 79.5623 104.59 79.1877C105.031 78.8131 105.442 78.3956 105.823 77.9352C106.201 77.4517 106.593 76.9067 106.999 76.3003C107.405 75.6939 107.732 75.0285 107.978 74.304C108.244 73.5528 108.437 72.789 108.557 72.0124C108.7 71.2324 108.776 70.4744 108.783 69.7385C108.811 68.9759 108.798 68.2667 108.747 67.6107C109.12 67.4123 109.275 67.1045 109.212 66.6873L109.085 66.3154C108.971 66.1903 108.947 66.0281 109.012 65.8287C109.084 65.3674 109.358 64.9825 109.833 64.6739C110.239 64.8498 110.602 65.0558 110.922 65.292C111.265 65.5247 111.585 65.7609 111.882 66.0006ZM131.624 63.2384C131.672 63.3971 131.691 63.5246 131.682 63.6208C131.692 63.6903 131.691 63.7616 131.679 63.8346C131.689 63.9041 131.701 63.9853 131.715 64.078C131.726 64.1475 131.766 64.2599 131.837 64.4151C131.469 65.2765 130.984 65.9067 130.38 66.3057C129.796 66.6782 129.144 66.9898 128.423 67.2406C127.699 67.4683 126.954 67.711 126.187 67.9688C125.443 68.2231 124.723 68.6397 124.028 69.2185C123.71 69.148 123.432 69.1899 123.194 69.3442C122.98 69.495 122.637 69.5822 122.167 69.6057C122.049 69.7657 121.891 69.8962 121.693 69.9972C121.491 70.0749 121.291 70.1643 121.093 70.2653C121.217 70.4599 121.285 70.6748 121.297 70.9101C121.328 71.1187 121.389 71.2872 121.48 71.4158C122.301 71.3631 123.192 71.217 124.151 70.9776C125.134 70.7347 126.099 70.5301 127.045 70.3637C127.086 70.4761 127.087 70.5589 127.047 70.6123C127.004 70.6424 127.001 70.7021 127.039 70.7913C127.218 70.8828 127.403 71.0089 127.593 71.1699C127.78 71.3077 127.967 71.4455 128.153 71.5832C128.34 71.721 128.523 71.8356 128.703 71.9271C128.902 71.9918 129.116 71.9951 129.344 71.937C129.465 72.1085 129.554 72.3083 129.613 72.5366C129.69 72.7382 129.7 72.9618 129.643 73.2076C129.31 73.5184 128.98 73.8408 128.651 74.1748C128.318 74.4856 127.959 74.7768 127.573 75.0482C127.211 75.3162 126.808 75.5546 126.366 75.7635C125.943 75.9458 125.452 76.0672 124.892 76.1279C124.776 76.1453 124.683 76.1593 124.614 76.1698C124.567 76.1768 124.493 76.1525 124.39 76.0969C124.222 76.2408 123.96 76.3157 123.606 76.3217C123.274 76.3243 123.025 76.3975 122.857 76.5413C122.584 76.4638 122.264 76.4646 121.897 76.5437C121.549 76.5961 121.23 76.5969 120.937 76.5461C120.64 77.0887 120.383 77.6608 120.165 78.2624C119.948 78.864 119.77 79.4952 119.633 80.1559C120.438 80.153 121.094 80.1015 121.6 80.0015C122.13 79.898 122.623 79.7881 123.08 79.6719C123.533 79.5325 123.999 79.403 124.479 79.2833C124.955 79.1404 125.566 79.0247 126.311 78.9361C126.736 78.6113 127.256 78.367 127.871 78.2031C128.506 78.0126 129.076 77.7845 129.581 77.5188C129.777 77.5603 129.959 77.6634 130.126 77.8278C130.289 77.9691 130.441 78.1121 130.581 78.2569C130.741 78.375 130.9 78.4815 131.056 78.5764C131.213 78.6713 131.393 78.6915 131.599 78.6369C131.705 78.7156 131.781 78.8227 131.825 78.9583C131.889 79.0672 131.941 79.1778 131.981 79.2902C132.022 79.4026 132.073 79.5016 132.133 79.5874C132.213 79.6464 132.321 79.6539 132.456 79.6097C132.224 80.4269 131.907 81.079 131.507 81.5661C131.126 82.0264 130.661 82.4045 130.113 82.7005C129.565 82.9964 128.941 83.2564 128.24 83.4806C127.562 83.7012 126.807 83.9573 125.974 84.2488C125.772 84.3265 125.597 84.3412 125.447 84.2926C125.301 84.2672 125.135 84.2685 124.95 84.2964C124.434 84.4926 123.813 84.693 123.085 84.8974C122.357 85.1019 121.609 85.2502 120.841 85.3423C120.073 85.4344 119.327 85.4401 118.604 85.3595C117.884 85.3021 117.271 85.0864 116.764 84.7124C116.554 84.5781 116.399 84.4119 116.298 84.2138C116.217 83.989 116.04 83.8379 115.767 83.7605C115.699 83.4627 115.602 83.1336 115.476 82.7733C115.351 82.4129 115.224 82.041 115.095 81.6575C114.963 81.2508 114.843 80.854 114.738 80.467C114.655 80.0765 114.624 79.7138 114.645 79.3788C114.662 79.0207 114.754 78.6869 114.921 78.3773C115.11 78.0643 115.146 77.7508 115.028 77.4368C115.14 77.3962 115.201 77.3277 115.21 77.2316C115.216 77.1122 115.301 77.0519 115.467 77.0506C115.543 76.6125 115.635 76.1958 115.741 75.8005C115.847 75.4052 115.955 75.0216 116.065 74.6495C116.198 74.2739 116.32 73.9001 116.43 73.528C116.559 73.1292 116.672 72.6975 116.768 72.2327C116.398 71.9803 116.105 71.6925 115.891 71.3693C115.696 71.0195 115.537 70.6759 115.416 70.3388C115.29 69.9785 115.176 69.6164 115.074 69.2526C114.968 68.8655 114.828 68.4838 114.653 68.1073C114.832 67.7247 115.068 67.4047 115.361 67.1472C115.674 66.863 116.017 66.6217 116.39 66.4233C116.763 66.2249 117.174 66.0444 117.624 65.8818C118.073 65.7193 118.544 65.5416 119.037 65.3489C119.918 64.9079 120.706 64.5521 121.4 64.2816C122.117 64.0076 122.816 63.7719 123.498 63.5744C124.199 63.3502 124.925 63.1341 125.675 62.9262C126.426 62.7182 127.274 62.4482 128.22 62.1161C128.46 62.2932 128.673 62.3678 128.858 62.3399C128.919 62.1173 129.015 62.0436 129.145 62.1189C129.294 62.1675 129.342 62.0892 129.287 61.8841C129.578 62.2432 129.918 62.5356 130.308 62.7613C130.717 62.9603 131.156 63.1194 131.624 63.2384ZM131.938 67.2086C132.027 66.6975 132.219 66.2419 132.514 65.8418C132.833 65.4383 133.183 65.0892 133.565 64.7946C133.967 64.4733 134.388 64.1966 134.827 63.9645C135.266 63.7324 135.685 63.527 136.085 63.3483C136.953 62.8146 137.882 62.2953 138.872 61.7905C139.882 61.259 140.911 60.7721 141.959 60.3298C143.029 59.8841 144.139 59.5391 145.287 59.2949C146.432 59.0276 147.669 58.9832 149 59.1619C149.104 59.3832 149.242 59.5877 149.412 59.7753C149.583 59.9629 149.753 60.1505 149.924 60.3382C150.117 60.5223 150.288 60.7099 150.435 60.901C150.579 61.069 150.678 61.2555 150.733 61.4606C150.996 61.6342 151.216 61.8381 151.394 62.072C151.568 62.2828 151.638 62.5922 151.605 63.0002C151.401 63.2205 151.196 63.4293 150.988 63.6264C150.801 63.7969 150.588 63.9593 150.351 64.1136C149.462 64.0343 148.582 64.0957 147.712 64.298C146.842 64.5002 146.062 64.6769 145.374 64.8281C145.134 64.6509 144.863 64.5851 144.562 64.6305C144.284 64.6724 143.99 64.7641 143.679 64.9057C143.392 65.0439 143.093 65.1837 142.783 65.3253C142.495 65.4634 142.209 65.5303 141.924 65.5258C141.72 65.7462 141.45 65.9173 141.113 66.0392C140.795 66.1345 140.443 66.235 140.056 66.3407C140.05 66.4601 140.086 66.5377 140.162 66.5736C140.235 66.5863 140.257 66.654 140.228 66.7769C140.392 66.9182 140.583 67.0079 140.802 67.046C141.044 67.0805 141.287 67.1151 141.529 67.1497C141.794 67.1809 142.028 67.2404 142.231 67.3283C142.431 67.3931 142.582 67.5361 142.687 67.7574C143.035 67.705 143.348 67.7407 143.627 67.8645C143.907 67.9883 144.145 68.1538 144.342 68.3612C144.539 68.5685 144.694 68.8059 144.805 69.0736C144.936 69.3145 145.018 69.5393 145.049 69.7479C145.147 69.9228 145.24 69.9917 145.329 69.9545C145.418 69.9174 145.53 69.948 145.663 70.0464C145.778 70.3373 145.999 70.6239 146.326 70.9065C146.649 71.1658 146.92 71.4687 147.138 71.8151C147.272 72.3875 147.385 72.9037 147.478 73.3637C147.568 73.8006 147.555 74.2647 147.439 74.7562C147.221 75.6661 146.85 76.5042 146.325 77.2706C145.824 78.0335 145.219 78.7409 144.512 79.3927C143.824 80.0178 143.067 80.5822 142.243 81.0857C141.418 81.5893 140.607 82.0314 139.812 82.4121C139.715 82.4028 139.623 82.4168 139.533 82.454C139.444 82.4911 139.412 82.4367 139.438 82.2906C139.277 82.4808 139.084 82.6165 138.859 82.6978C138.658 82.7756 138.427 82.8221 138.169 82.8374C137.914 82.8758 137.646 82.9044 137.364 82.9231C137.106 82.9384 136.864 82.9866 136.639 83.0679C136.453 82.9301 136.278 82.7906 136.114 82.6493C135.977 82.5277 135.857 82.3563 135.752 82.135C135.636 82.1525 135.57 82.1033 135.552 81.9874C135.558 81.868 135.514 81.8153 135.422 81.8293C135.526 81.5766 135.565 81.4404 135.538 81.4207C135.531 81.3743 135.491 81.3448 135.418 81.3321C135.368 81.3159 135.318 81.2997 135.268 81.2836C135.215 81.2442 135.195 81.188 135.207 81.115C135.272 80.9156 135.276 80.7018 135.217 80.4735C135.156 80.2221 135.094 79.9706 135.033 79.7192C134.971 79.4678 134.946 79.2227 134.957 78.9839C134.992 78.7417 135.138 78.5301 135.395 78.3491C136.197 78.3231 136.935 78.1881 137.609 77.9443C138.303 77.6737 138.942 77.3523 139.526 76.9799C140.11 76.6074 140.656 76.2171 141.163 75.8088C141.693 75.397 142.217 75.0217 142.735 74.683C142.773 74.4639 142.84 74.2761 142.935 74.1196C143.053 73.9596 143.173 73.8112 143.294 73.6743C143.416 73.5375 143.524 73.3908 143.619 73.2343C143.714 73.0778 143.769 72.8917 143.784 72.6762C143.783 72.5104 143.722 72.4247 143.603 72.419C143.503 72.3866 143.443 72.3009 143.422 72.1619L143.024 72.1152C142.545 71.9266 142.015 71.7932 141.435 71.7148C140.85 71.6132 140.346 71.4878 139.92 71.3386C139.686 71.5161 139.448 71.5875 139.206 71.5529C138.987 71.5148 138.698 71.4872 138.34 71.4701C137.545 71.5425 136.768 71.5766 136.009 71.5725C135.273 71.5649 134.546 71.4611 133.829 71.2611C133.765 71.1523 133.691 71.0567 133.608 70.9745C133.524 70.8922 133.394 70.8883 133.215 70.9626C133.048 70.7981 132.883 70.6453 132.719 70.504C132.552 70.3396 132.395 70.1618 132.248 69.9707C132.252 69.6856 132.252 69.4486 132.247 69.2597C132.239 69.0476 132.14 68.8611 131.95 68.7001C131.997 68.3849 132.03 68.131 132.048 67.9386C132.067 67.7462 132.03 67.5029 131.938 67.2086ZM167.513 60.7448C166.933 60.8321 166.315 60.9728 165.657 61.1668C164.995 61.3376 164.347 61.5183 163.712 61.7088C163.259 61.8482 162.815 61.9742 162.382 62.0869C161.972 62.1962 161.595 62.2886 161.251 62.3641C161.165 62.8985 161.071 63.3748 160.968 63.7933C160.865 64.2117 160.749 64.6203 160.62 65.0191C160.494 65.441 160.381 65.8728 160.282 66.3144C160.202 66.7293 160.128 67.179 160.058 67.6635C159.883 68.0692 159.738 68.4466 159.625 68.7955C159.531 69.1177 159.467 69.4828 159.434 69.8908C159.208 70.2803 159.056 70.6826 158.976 71.0975C158.893 71.4893 158.837 71.8295 158.81 72.1181L158.734 72.5562C158.616 72.7162 158.552 72.8443 158.543 72.9405C158.53 73.0135 158.483 73.0918 158.4 73.1753C158.416 73.4337 158.373 73.7009 158.272 73.9768C158.243 74.0996 158.226 74.2207 158.22 74.3401C158.211 74.4363 158.21 74.5076 158.217 74.5539C158.252 74.7857 158.217 74.9451 158.111 75.0321C158.152 75.1444 158.171 75.2719 158.169 75.4145C158.163 75.5338 158.158 75.6532 158.152 75.7726C158.124 76.0612 158.134 76.2848 158.182 76.4436C158.265 76.5258 158.336 76.5982 158.392 76.6607C158.472 76.7198 158.533 76.8055 158.573 76.9179C158.726 76.9896 158.839 77.0318 158.912 77.0445C159.016 77.1001 159.167 77.1602 159.366 77.225L159.732 77.5255C159.949 78.1801 159.925 78.7289 159.66 79.1718C159.378 79.6645 158.821 79.9737 157.986 80.0995L157.569 80.1624C157.436 80.0639 157.352 79.9817 157.319 79.9157C157.123 79.8741 156.963 79.8389 156.84 79.81C156.718 79.7811 156.599 79.7041 156.486 79.579C156.163 79.4854 155.903 79.4062 155.703 79.3414L155.364 79.2148C155.326 78.9598 155.305 78.8208 155.301 78.7976C155.108 78.6135 154.945 78.4009 154.814 78.1599C154.706 77.9155 154.61 77.6693 154.525 77.4213C154.447 77.2197 154.36 77.0315 154.262 76.8566C154.188 76.6781 154.094 76.5264 153.98 76.4013C153.731 75.0641 153.688 73.9093 153.849 72.9368C154.011 71.9644 154.189 71.025 154.384 70.1186C154.5 69.6271 154.615 69.1357 154.731 68.6442C154.843 68.1296 154.93 67.6068 154.992 67.076L155.253 66.6812C155.359 66.286 155.441 65.9655 155.499 65.7197C155.576 65.4473 155.654 65.1749 155.731 64.9025C155.776 64.7298 155.812 64.5705 155.837 64.4244C155.882 64.2517 155.919 64.1039 155.948 63.981C155.809 64.002 155.683 64.0328 155.571 64.0734C155.455 64.0909 155.341 64.12 155.228 64.1606C155.093 64.2047 154.969 64.2471 154.857 64.2878C154.741 64.3052 154.625 64.3227 154.509 64.3402C154.347 64.3646 154.229 64.3705 154.156 64.3578C153.919 64.5121 153.649 64.6119 153.348 64.6574L153 64.7097C152.931 64.7202 152.861 64.7307 152.792 64.7412C152.742 64.725 152.694 64.7204 152.647 64.7274C152.416 64.7623 152.235 64.825 152.107 64.9155C151.829 64.9574 151.562 64.9976 151.307 65.036L150.96 65.0884C150.913 65.0954 150.857 65.1157 150.791 65.1494C150.722 65.1598 150.664 65.1686 150.617 65.1756C150.455 65.2 150.28 65.2146 150.091 65.2194C149.898 65.201 149.689 65.1496 149.463 65.0651C149.129 64.7362 148.914 64.5672 148.818 64.558L148.442 64.188C148.398 64.0524 148.344 63.9302 148.28 63.8213C148.213 63.6892 148.144 63.5455 148.073 63.3903C147.945 63.1725 147.816 62.9431 147.685 62.7022C147.573 62.4345 147.49 62.1153 147.434 61.7445C147.429 61.5556 147.454 61.4096 147.51 61.3064C147.565 61.2032 147.611 61.1134 147.647 61.0369L147.673 60.4997L148.13 60.4663L149.103 60.3196C149.845 60.2079 150.595 60.0712 151.352 59.9095C152.107 59.7247 152.884 59.5365 153.685 59.3447C154.141 59.2285 154.598 59.1123 155.055 58.996C155.534 58.8763 156.026 58.7549 156.528 58.6317C156.59 58.4091 156.653 58.1982 156.717 57.9988L157.039 57.7726C157.453 57.6865 157.751 57.7008 157.934 57.8154C158.137 57.9034 158.305 57.9965 158.438 58.0949C158.941 57.9717 159.444 57.8485 159.947 57.7254C160.47 57.5755 160.99 57.414 161.51 57.241C162.28 57.0064 163.052 56.7833 163.826 56.5718C164.624 56.3569 165.393 56.1935 166.135 56.0817C166.459 56.0328 166.774 55.9973 167.078 55.975C167.383 55.9528 167.667 55.9457 167.928 55.9536L168.313 56.1445C168.403 56.2731 168.515 56.3866 168.649 56.485C168.805 56.5799 168.962 56.6749 169.118 56.7698C169.435 56.9828 169.758 57.2422 170.089 57.5479C170.419 57.8536 170.6 58.3478 170.632 59.0303C170.489 59.3364 170.374 59.5196 170.288 59.5799L170.038 60.0442L169.685 60.0619C169.546 60.0828 169.422 60.1252 169.313 60.189C169.201 60.2297 169.09 60.2819 168.981 60.3457C168.896 60.406 168.81 60.4663 168.724 60.5267C168.635 60.5638 168.534 60.6027 168.422 60.6434C168.213 60.6748 168.04 60.701 167.9 60.7219C167.781 60.7162 167.652 60.7239 167.513 60.7448ZM183.498 72.4502C183.419 72.8652 183.271 73.3022 183.056 73.7613C182.86 74.1937 182.602 74.6 182.28 74.9804C181.978 75.3341 181.622 75.6484 181.213 75.9233C180.804 76.1983 180.358 76.384 179.875 76.4805C179.563 76.4564 179.342 76.4067 179.213 76.3315C179.109 76.2759 178.995 76.2221 178.868 76.1701C178.792 76.1342 178.717 76.1099 178.644 76.0972C178.591 76.0579 178.539 76.0301 178.489 76.0139L178.046 75.9029L178.117 75.4301C178.135 75.2377 178.103 75.1004 178.019 75.0181C177.932 74.9127 177.77 74.7831 177.534 74.6291C177.454 74.57 177.374 74.511 177.294 74.4519C177.214 74.3929 177.145 74.3321 177.089 74.2696L176.398 73.6981L177.3 73.3133C177.855 73.0637 178.206 72.7975 178.353 72.5147C178.523 72.2283 178.539 71.7873 178.402 71.1917C177.925 71.1689 177.529 71.2167 177.215 71.3351C176.924 71.45 176.624 71.5783 176.313 71.7199C175.913 71.8987 175.5 72.0676 175.074 72.2266C174.667 72.359 174.209 72.4637 173.699 72.5405C173.514 72.5685 173.34 72.5947 173.178 72.6191C173.012 72.6204 172.835 72.6234 172.646 72.6282L172.288 72.611C172.203 72.3631 172.136 72.231 172.086 72.2148C172.032 72.1755 171.979 72.1361 171.926 72.0967C171.792 71.9983 171.642 71.8669 171.475 71.7024C171.328 71.5113 171.266 71.2599 171.291 70.9481C171.143 70.757 171.042 70.5589 170.988 70.3538C170.89 70.6529 170.83 70.9583 170.806 71.2701L170.719 71.6386L170.382 71.7606C170.339 71.7907 170.313 71.8539 170.304 71.9501C170.291 72.0231 170.288 72.0828 170.295 72.1292L170.211 72.7463C170.171 72.7997 170.132 72.853 170.092 72.9064C170.05 72.9365 170.008 72.9783 169.969 73.0316C169.954 73.2472 169.928 73.4645 169.89 73.6835C169.851 73.9026 169.812 74.1101 169.77 74.306C169.7 74.6247 169.641 74.9417 169.593 75.257C169.566 75.5456 169.585 75.8272 169.65 76.1018L169.568 76.5051C169.473 76.6617 169.363 76.7967 169.238 76.9104C169.11 77.0009 168.981 77.0914 168.852 77.1819C168.813 77.2352 168.751 77.292 168.665 77.3524C168.599 77.386 168.544 77.4179 168.502 77.4481L168.455 77.8462L168.048 77.9786C167.8 78.0634 167.62 78.1261 167.508 78.1667C167.418 78.2039 167.304 78.2329 167.165 78.2539L166.812 78.2715C166.526 78.1013 166.305 77.9688 166.148 77.8739C165.988 77.7558 165.807 77.6528 165.604 77.5648C165.353 77.3182 165.206 77.127 165.162 76.9915C165.118 76.8559 165.075 76.7319 165.035 76.6196C164.967 76.4875 164.927 76.3751 164.913 76.2824C164.876 76.1932 164.83 76.1289 164.777 76.0895L164.262 75.7405L164.597 75.37L164.543 74.7738C164.828 73.5219 165.144 72.313 165.49 71.1469C165.859 69.9773 166.236 68.7828 166.621 67.5633C166.75 67.1646 166.868 66.7675 166.974 66.3723C167.104 65.9735 167.233 65.5748 167.363 65.176C167.329 65.11 167.306 65.0306 167.292 64.9379C167.278 64.8452 167.285 64.7374 167.314 64.6146C167.509 64.1821 167.666 63.8031 167.782 63.4773C167.896 63.1284 168.009 62.7795 168.122 62.4306C168.248 62.0087 168.376 61.5983 168.506 61.1996C168.658 60.7973 168.856 60.3765 169.098 59.9371L169.617 59.6099C169.683 59.5763 169.761 59.5409 169.85 59.5037C169.936 59.4434 170.037 59.4045 170.152 59.387L170.684 59.378C171.288 58.9789 171.793 58.4762 172.199 57.8698C172.602 57.2402 173.001 56.5046 173.395 55.6629L173.67 55.1239L174.164 55.3338C174.29 55.3859 174.463 55.431 174.682 55.4691C174.897 55.484 175.126 55.5087 175.368 55.5433C175.8 55.5732 176.209 55.6181 176.597 55.6781C176.986 55.7381 177.313 55.8665 177.58 56.0633C177.775 56.4132 177.898 56.679 177.949 56.861C178 57.0429 178.063 57.223 178.137 57.4015C178.266 57.785 178.383 58.1702 178.489 58.5572C178.618 58.9407 178.731 59.3741 178.827 59.8573C179.003 60.2338 179.155 60.6138 179.284 60.9973C179.432 61.3542 179.571 61.7244 179.7 62.1079C179.899 62.6466 180.097 63.1738 180.294 63.6894C180.486 64.1818 180.71 64.6457 180.966 65.0813C181.151 65.0534 181.269 65.0475 181.318 65.0637C181.427 64.9999 181.538 64.9476 181.65 64.907C181.786 64.8629 181.933 64.817 182.092 64.7694L182.469 64.677L182.66 65.0036C182.701 65.116 182.834 65.2144 183.061 65.2989C183.365 65.2767 183.596 65.313 183.752 65.4079C183.905 65.4797 184.049 65.5647 184.182 65.6632C184.289 65.7419 184.392 65.7974 184.492 65.8298L185.044 65.9598L184.845 66.5232C184.676 66.9753 184.401 67.4315 184.02 67.8919C183.659 68.3255 183.231 68.71 182.736 69.0453C182.78 69.1809 182.813 69.3182 182.834 69.4572C182.875 69.5696 182.929 69.6918 182.996 69.8239C183.125 70.2074 183.244 70.6042 183.353 71.0144C183.462 71.4246 183.527 71.8534 183.547 72.3007L183.498 72.4502ZM172.545 67.9503C173.234 67.7992 173.852 67.6585 174.402 67.5283C174.97 67.3715 175.592 67.1711 176.266 66.9273C175.999 66.2565 175.717 65.5642 175.42 64.8505C175.119 64.1137 174.809 63.3901 174.489 62.68L174.332 63.059C173.942 63.6156 173.572 64.2283 173.223 64.8973C172.896 65.5627 172.623 66.1846 172.402 66.7631C172.294 66.9926 172.187 67.2222 172.079 67.4517C171.971 67.6813 171.875 67.909 171.791 68.1351C171.926 68.091 172.052 68.0602 172.168 68.0427C172.307 68.0217 172.433 67.9909 172.545 67.9503ZM183.736 59.4019C183.825 58.8907 184.017 58.4352 184.312 58.0351C184.631 57.6316 184.981 57.2825 185.363 56.9879C185.765 56.6666 186.186 56.3899 186.625 56.1578C187.064 55.9257 187.483 55.7203 187.883 55.5415C188.751 55.0078 189.68 54.4886 190.67 53.9838C191.68 53.4523 192.709 52.9654 193.756 52.5231C194.827 52.0773 195.936 51.7324 197.085 51.4882C198.229 51.2208 199.467 51.1765 200.798 51.3552C200.902 51.5765 201.04 51.781 201.21 51.9686C201.381 52.1562 201.551 52.3438 201.722 52.5314C201.915 52.7156 202.086 52.9032 202.233 53.0943C202.377 53.2623 202.476 53.4488 202.531 53.6539C202.794 53.8275 203.014 54.0313 203.192 54.2653C203.366 54.4761 203.436 54.7855 203.403 55.1934C203.199 55.4138 202.993 55.6225 202.786 55.8197C202.598 55.9902 202.386 56.1526 202.148 56.3069C201.259 56.2275 200.38 56.289 199.51 56.4913C198.64 56.6935 197.86 56.8702 197.172 57.0214C196.932 56.8442 196.661 56.7783 196.36 56.8237C196.082 56.8657 195.788 56.9574 195.477 57.099C195.19 57.2371 194.891 57.377 194.58 57.5186C194.293 57.6567 194.007 57.7235 193.722 57.7191C193.518 57.9394 193.248 58.1106 192.91 58.2325C192.593 58.3277 192.241 58.4282 191.854 58.534C191.848 58.6533 191.883 58.731 191.96 58.7668C192.033 58.7795 192.055 58.8473 192.026 58.9702C192.19 59.1115 192.381 59.2011 192.6 59.2392C192.842 59.2738 193.084 59.3084 193.327 59.343C193.592 59.3741 193.826 59.4336 194.029 59.5216C194.228 59.5863 194.38 59.7294 194.485 59.9506C194.832 59.8982 195.146 59.934 195.425 60.0578C195.705 60.1816 195.943 60.3471 196.14 60.5544C196.337 60.7617 196.492 60.9992 196.603 61.2668C196.734 61.5078 196.815 61.7326 196.847 61.9412C196.944 62.1161 197.038 62.185 197.127 62.1478C197.216 62.1107 197.327 62.1413 197.461 62.2397C197.576 62.5305 197.797 62.8172 198.124 63.0997C198.447 63.3591 198.718 63.662 198.936 64.0083C199.07 64.5808 199.183 65.097 199.276 65.557C199.366 65.9938 199.353 66.458 199.237 66.9494C199.019 67.8593 198.647 68.6975 198.123 69.4639C197.622 70.2268 197.017 70.9342 196.31 71.586C195.622 72.2111 194.865 72.7754 194.04 73.279C193.216 73.7825 192.405 74.2246 191.609 74.6053C191.513 74.5961 191.42 74.6101 191.331 74.6472C191.242 74.6844 191.21 74.6299 191.236 74.4839C191.075 74.6741 190.882 74.8098 190.657 74.8911C190.455 74.9689 190.225 75.0154 189.967 75.0306C189.712 75.0691 189.444 75.0976 189.162 75.1164C188.904 75.1316 188.662 75.1799 188.437 75.2612C188.251 75.1234 188.076 74.9839 187.912 74.8426C187.775 74.721 187.655 74.5496 187.55 74.3283C187.434 74.3458 187.368 74.2965 187.35 74.1807C187.356 74.0613 187.312 74.0086 187.22 74.0226C187.324 73.7699 187.362 73.6337 187.336 73.614C187.329 73.5676 187.289 73.5381 187.216 73.5254C187.166 73.5092 187.116 73.493 187.066 73.4768C187.013 73.4375 186.993 73.3813 187.005 73.3083C187.07 73.1089 187.073 72.8951 187.015 72.6668C186.954 72.4153 186.892 72.1639 186.83 71.9125C186.769 71.661 186.744 71.4159 186.755 71.1772C186.79 70.935 186.936 70.7234 187.193 70.5424C187.995 70.5163 188.733 70.3814 189.407 70.1375C190.101 69.867 190.74 69.5456 191.324 69.1731C191.908 68.8007 192.453 68.4104 192.961 68.0021C193.491 67.5903 194.015 67.215 194.533 66.8763C194.571 66.6572 194.638 66.4694 194.733 66.3129C194.851 66.1529 194.971 66.0044 195.092 65.8676C195.214 65.7308 195.322 65.5841 195.417 65.4276C195.512 65.2711 195.567 65.085 195.582 64.8694C195.58 64.7037 195.52 64.618 195.401 64.6123C195.301 64.5799 195.241 64.4942 195.22 64.3551L194.822 64.3085C194.343 64.1199 193.813 63.9864 193.232 63.908C192.648 63.8065 192.143 63.6811 191.718 63.5319C191.484 63.7093 191.246 63.7808 191.004 63.7462C190.785 63.7081 190.496 63.6805 190.138 63.6633C189.343 63.7358 188.566 63.7699 187.807 63.7658C187.071 63.7582 186.344 63.6544 185.627 63.4544C185.563 63.3455 185.489 63.25 185.406 63.1677C185.322 63.0855 185.191 63.0816 185.013 63.1559C184.846 62.9914 184.681 62.8385 184.517 62.6973C184.35 62.5328 184.193 62.355 184.046 62.1639C184.05 61.8788 184.05 61.6418 184.045 61.4529C184.037 61.2409 183.938 61.0543 183.748 60.8934C183.795 60.5781 183.828 60.3243 183.846 60.1319C183.865 59.9395 183.828 59.6962 183.736 59.4019Z" fill="black"/>
<path d="M262.353 28.0577L262.003 26.4487L261.509 25.3487L260.597 24.1108L259.761 23.2622L257.781 21.8924L255.089 20.9464L251.409 20.3154L242.554 19.57L237.412 19.4669L226.517 19.6907L213.135 20.5696L212.633 21.5155L212.893 22.554L213.726 23.1139L227.038 22.2355L237.902 22.0165L243.018 22.1146L251.828 22.8562L254.947 23.3769L257.422 24.2509L258.344 24.814L259.766 26.0675L260.487 27.342L260.568 27.7467L260.543 28.422L259.781 30.269L257.932 32.7194L253.672 36.7681L247.747 41.321L242.835 44.6464L237.219 48.1503L227.686 53.619L216.787 59.3492L204.617 65.3081L204.611 65.3111L191.556 71.3089L191.55 71.3114L177.43 77.4245L177.423 77.4273L152.669 87.3945L152.662 87.3969L137.214 93.186L137.209 93.1879L121.728 98.6548L121.722 98.6567L106.694 103.615L106.688 103.617L91.8919 108.145L91.8842 108.147L77.9453 111.983L69.2472 114.092L69.2385 114.094L56.9416 116.665L56.9302 116.667L49.3829 117.921L49.3711 117.922L42.4455 118.774L42.4274 118.775L33.0635 119.324L24.9396 119.052L18.2606 118.033L14.4242 116.896L11.1087 115.414L9.71375 114.573L7.39249 112.668L5.92616 110.725L5.31994 109.543L4.86415 108.328L4.43817 105.987L4.40032 104.612L4.74001 101.755L5.69463 98.539L6.41335 96.8003L8.32488 93.1697L9.49176 91.3425L13.9696 85.5791L17.7055 81.5894L22.0192 77.5658L29.3801 71.6967L38.2856 65.5693L38.3009 65.5594L48.2354 59.5646L55.4522 55.6452L55.4626 55.6398L67.1755 49.8705L67.1861 49.8655L79.3553 44.4727L79.3648 44.4687L87.6878 41.132L87.6964 41.1287L100.59 36.4396L100.598 36.4366L113.191 32.3186L113.198 32.3162L121.275 29.9311L121.283 29.9287L133.135 26.841L144.17 24.3477L144.181 24.3455L154.257 22.4869L163.47 21.199L174.128 20.1681L182.962 19.937L191.621 20.2161L199.19 21.2172L202.079 22.16L202.718 22.8904L203.516 23.0652L204.144 22.5293L204.354 21.4843L204.071 20.3572L203.136 19.0871L201.093 18.4154L198.021 17.8075L192.46 17.2986L187.916 17.1219L178.211 17.292L171.085 17.755L156.87 19.5161L143.587 21.8993L128.63 25.3697L112.557 29.8688L99.9329 33.9782L87.0083 38.6551L78.6554 41.9894L78.6459 41.9934L66.4533 47.3821L54.7077 53.1626L54.6976 53.1679L47.4681 57.0836L40.7135 61.0698L31.3841 67.2002L23.3069 73.3139L18.4639 77.5485L14.3974 81.6062L9.41566 87.5377L6.86215 91.3213L5.80097 93.2034L4.14388 96.8745L3.03178 100.767L2.6268 104.081L2.6705 105.703L2.88374 107.275L3.36734 109.219L4.6057 112.02L5.48847 113.336L6.74488 114.803L7.92696 115.892L10.7248 117.752L14.1422 119.281L16.0769 119.919L20.6049 120.974L25.3797 121.595L30.7024 121.868L36.5693 121.782L42.9867 121.322L49.9494 120.466L49.9614 120.464L57.5307 119.203L57.5399 119.201L65.6399 117.572L78.573 114.513L97.4155 109.223L112.364 104.522L127.524 99.4059L143.096 93.7859L158.378 87.9626L173.249 81.9712L187.673 75.8387L201.079 69.8049L213.595 63.8094L224.983 57.9725L234.959 52.4219L243.643 47.0984L250.75 42.1709L256.503 37.479L260.393 33.3746L261.873 30.892L262.222 29.6589L262.353 28.0577Z" fill="#F40CB3" stroke="#F40CB3" stroke-linecap="round"/>
</g>
<defs>
<clipPath id="clip0_276_24">
<rect width="263" height="126" fill="white"/>
</clipPath>
</defs>
</svg>
