<svg width="197" height="166" viewBox="0 0 197 166" fill="none" xmlns="http://www.w3.org/2000/svg">
<g clip-path="url(#clip0_268_17)">
<g filter="url(#filter0_d_268_17)">
<path d="M10.2221 102.106L22.7936 99.6L42.5657 111.769L35.3091 102.732L23.9947 0L113.252 67.0264L117.862 101.479L116.395 106.491L120.12 108.37L168.03 16.9132L144.712 115.887L153.33 113.381L197 166L80.5664 152.653L68.6235 160.362L66.7378 155.351L17.1364 110.875L0 128.415L10.2221 102.106Z" fill="white"/>
<path d="M22.7936 99.6L10.2221 102.106L0 128.415M22.7936 99.6L13.9936 106.491M22.7936 99.6L42.5657 111.769M0 128.415L13.9936 106.491M0 128.415L17.1364 110.875M13.9936 106.491L17.1364 110.875M17.1364 110.875L66.7378 155.351M73.0235 128.415L64.2235 138.438M73.0235 128.415L62.3377 123.938M73.0235 128.415L93.1378 100.226L95.9579 96.4679M64.2235 138.438L56.6806 141.57L62.3377 144.195M64.2235 138.438L137.785 117.828M117.862 101.479L113.252 67.0264L23.9947 0L35.309 102.732L42.5657 111.769M117.862 101.479L116.395 106.491M117.862 101.479L95.9579 96.4679M62.3377 123.938L90.6235 98.3472L95.9579 96.4679M62.3377 123.938L42.5657 111.769M66.7378 155.351L62.3377 144.195M66.7378 155.351L68.6235 160.362L80.5664 152.653M62.3377 144.195L80.5664 152.653M80.5664 152.653L197 166L153.33 113.381L144.712 115.887M116.395 106.491L120.12 108.37M116.395 106.491L95.9579 96.4679M144.712 115.887L168.03 16.9132L120.12 108.37M144.712 115.887L137.785 117.828M120.12 108.37L137.785 117.828" stroke="black" stroke-width="2" stroke-linejoin="round"/>
</g>
</g>
<defs>
<filter id="filter0_d_268_17" x="-94.3089" y="-24.3272" width="385.618" height="354.617" filterUnits="userSpaceOnUse" color-interpolation-filters="sRGB">
<feFlood flood-opacity="0" result="BackgroundImageFix"/>
<feColorMatrix in="SourceAlpha" type="matrix" values="0 0 0 0 0 0 0 0 0 0 0 0 0 0 0 0 0 0 127 0" result="hardAlpha"/>
<feOffset dy="69.9816"/>
<feGaussianBlur stdDeviation="46.6544"/>
<feColorMatrix type="matrix" values="0 0 0 0 0.1125 0 0 0 0 0.1125 0 0 0 0 0.1125 0 0 0 0.08 0"/>
<feBlend mode="multiply" in2="BackgroundImageFix" result="effect1_dropShadow_268_17"/>
<feBlend mode="normal" in="SourceGraphic" in2="effect1_dropShadow_268_17" result="shape"/>
</filter>
<clipPath id="clip0_268_17">
<rect width="197" height="166" fill="white"/>
</clipPath>
</defs>
</svg>
