<svg width="579" height="238" viewBox="0 0 579 238" fill="none" xmlns="http://www.w3.org/2000/svg">
<path d="M279.424 93.584C280.736 94.352 281.776 95.424 282.544 96.8C283.344 98.144 283.744 99.616 283.744 101.216C283.744 102.816 283.344 104.288 282.544 105.632C281.776 106.976 280.704 108.048 279.328 108.848C277.984 109.616 276.512 110 274.912 110H264.4V78.032L273.76 77.984C275.36 77.984 276.832 78.384 278.176 79.184C279.52 79.984 280.592 81.056 281.392 82.4C282.192 83.744 282.592 85.216 282.592 86.816C282.592 88.16 282.304 89.424 281.728 90.608C281.184 91.76 280.416 92.752 279.424 93.584ZM279.28 86.816C279.28 85.312 278.736 84.016 277.648 82.928C276.56 81.84 275.264 81.296 273.76 81.296H267.664V92.384H273.76C275.264 92.384 276.56 91.84 277.648 90.752C278.736 89.664 279.28 88.352 279.28 86.816ZM274.912 106.736C276.448 106.736 277.76 106.192 278.848 105.104C279.936 104.016 280.48 102.72 280.48 101.216C280.48 99.68 279.936 98.368 278.848 97.28C277.76 96.192 276.448 95.648 274.912 95.648H267.664V106.736H274.912ZM290.232 79.328C290.808 79.328 291.304 79.536 291.72 79.952C292.136 80.368 292.344 80.864 292.344 81.44C292.344 82.048 292.136 82.56 291.72 82.976C291.304 83.392 290.808 83.6 290.232 83.6C289.624 83.6 289.112 83.392 288.696 82.976C288.28 82.56 288.072 82.048 288.072 81.44C288.072 80.864 288.28 80.368 288.696 79.952C289.112 79.536 289.624 79.328 290.232 79.328ZM291.864 86V110H288.552V86H291.864ZM298.689 99.776C299.073 101.824 300.081 103.536 301.713 104.912C303.345 106.256 305.217 106.928 307.329 106.928C308.897 106.928 310.337 106.56 311.649 105.824C312.961 105.088 314.017 104.08 314.817 102.8L317.649 104.432C316.561 106.192 315.105 107.6 313.281 108.656C311.457 109.712 309.473 110.24 307.329 110.24C305.153 110.24 303.137 109.696 301.281 108.608C299.425 107.52 297.953 106.048 296.865 104.192C295.777 102.336 295.233 100.32 295.233 98.144C295.233 95.936 295.777 93.92 296.865 92.096C297.953 90.24 299.425 88.768 301.281 87.68C303.137 86.592 305.153 86.048 307.329 86.048C309.505 86.048 311.521 86.592 313.377 87.68C315.233 88.768 316.705 90.24 317.793 92.096C318.881 93.92 319.425 95.936 319.425 98.144C319.425 98.528 319.393 99.072 319.329 99.776H298.689ZM307.329 89.312C305.921 89.312 304.545 89.648 303.201 90.32C301.857 90.96 300.769 91.856 299.937 93.008C299.105 94.128 298.689 95.344 298.689 96.656H315.969C315.969 95.344 315.553 94.128 314.721 93.008C313.889 91.856 312.801 90.96 311.457 90.32C310.145 89.648 308.769 89.312 307.329 89.312ZM333.248 86C334.976 86 336.56 86.432 338 87.296C339.472 88.128 340.64 89.28 341.504 90.752C342.368 92.192 342.8 93.776 342.8 95.504V110H339.488V95.504C339.488 94.384 339.2 93.36 338.624 92.432C338.08 91.472 337.328 90.72 336.368 90.176C335.408 89.6 334.368 89.312 333.248 89.312C332.128 89.312 331.088 89.6 330.128 90.176C329.168 90.72 328.4 91.472 327.824 92.432C327.28 93.36 327.008 94.384 327.008 95.504V110H323.744V86.624H327.008V88.736C327.808 87.84 328.736 87.168 329.792 86.72C330.88 86.24 332.032 86 333.248 86ZM369.07 86.096L359.614 110H356.11L346.654 86.096H350.158L357.886 105.44L365.566 86.096H369.07ZM373.501 99.776C373.885 101.824 374.893 103.536 376.525 104.912C378.157 106.256 380.029 106.928 382.141 106.928C383.709 106.928 385.149 106.56 386.461 105.824C387.773 105.088 388.829 104.08 389.629 102.8L392.461 104.432C391.373 106.192 389.917 107.6 388.093 108.656C386.269 109.712 384.285 110.24 382.141 110.24C379.965 110.24 377.949 109.696 376.093 108.608C374.237 107.52 372.765 106.048 371.677 104.192C370.589 102.336 370.045 100.32 370.045 98.144C370.045 95.936 370.589 93.92 371.677 92.096C372.765 90.24 374.237 88.768 376.093 87.68C377.949 86.592 379.965 86.048 382.141 86.048C384.317 86.048 386.333 86.592 388.189 87.68C390.045 88.768 391.517 90.24 392.605 92.096C393.693 93.92 394.237 95.936 394.237 98.144C394.237 98.528 394.205 99.072 394.141 99.776H373.501ZM382.141 89.312C380.733 89.312 379.357 89.648 378.013 90.32C376.669 90.96 375.581 91.856 374.749 93.008C373.917 94.128 373.501 95.344 373.501 96.656H390.781C390.781 95.344 390.365 94.128 389.533 93.008C388.701 91.856 387.613 90.96 386.269 90.32C384.957 89.648 383.581 89.312 382.141 89.312ZM408.06 86C409.788 86 411.372 86.432 412.812 87.296C414.284 88.128 415.452 89.28 416.316 90.752C417.18 92.192 417.612 93.776 417.612 95.504V110H414.3V95.504C414.3 94.384 414.012 93.36 413.436 92.432C412.892 91.472 412.14 90.72 411.18 90.176C410.22 89.6 409.18 89.312 408.06 89.312C406.94 89.312 405.9 89.6 404.94 90.176C403.98 90.72 403.212 91.472 402.636 92.432C402.092 93.36 401.82 94.384 401.82 95.504V110H398.556V86.624H401.82V88.736C402.62 87.84 403.548 87.168 404.604 86.72C405.692 86.24 406.844 86 408.06 86ZM424.107 79.328C424.683 79.328 425.179 79.536 425.595 79.952C426.011 80.368 426.219 80.864 426.219 81.44C426.219 82.048 426.011 82.56 425.595 82.976C425.179 83.392 424.683 83.6 424.107 83.6C423.499 83.6 422.987 83.392 422.571 82.976C422.155 82.56 421.947 82.048 421.947 81.44C421.947 80.864 422.155 80.368 422.571 79.952C422.987 79.536 423.499 79.328 424.107 79.328ZM425.739 86V110H422.427V86H425.739ZM453.444 110H450.228V105.536C447.892 108.672 444.9 110.24 441.252 110.24C439.044 110.24 437.012 109.696 435.156 108.608C433.3 107.52 431.828 106.048 430.74 104.192C429.652 102.304 429.108 100.272 429.108 98.096C429.108 95.92 429.652 93.904 430.74 92.048C431.828 90.16 433.3 88.672 435.156 87.584C437.012 86.496 439.044 85.952 441.252 85.952C445.028 85.952 448.02 87.44 450.228 90.416V78.128H453.444V110ZM450.132 98.096C450.132 96.496 449.732 95.024 448.932 93.68C448.132 92.336 447.044 91.264 445.668 90.464C444.324 89.664 442.852 89.264 441.252 89.264C439.652 89.264 438.18 89.664 436.836 90.464C435.492 91.264 434.42 92.336 433.62 93.68C432.82 95.024 432.42 96.496 432.42 98.096C432.42 99.696 432.82 101.184 433.62 102.56C434.42 103.904 435.492 104.976 436.836 105.776C438.18 106.576 439.652 106.976 441.252 106.976C442.852 106.976 444.324 106.576 445.668 105.776C447.044 104.976 448.132 103.904 448.932 102.56C449.732 101.184 450.132 99.696 450.132 98.096ZM473.828 77.984C476.74 77.984 479.428 78.704 481.892 80.144C484.356 81.584 486.308 83.536 487.748 86C489.188 88.464 489.908 91.152 489.908 94.064C489.908 98.48 488.868 101.664 486.788 103.616C486.18 104.16 485.476 104.592 484.676 104.912C483.876 105.2 483.06 105.344 482.228 105.344C481.46 105.344 480.74 105.2 480.068 104.912C479.332 104.592 478.756 104.128 478.34 103.52C477.924 102.88 477.716 102.144 477.716 101.312V99.632C476.34 100.752 474.756 101.312 472.964 101.312C471.652 101.312 470.42 100.992 469.268 100.352C468.148 99.68 467.252 98.784 466.58 97.664C465.94 96.544 465.62 95.312 465.62 93.968C465.62 92.656 465.94 91.44 466.58 90.32C467.252 89.168 468.148 88.272 469.268 87.632C470.42 86.96 471.652 86.624 472.964 86.624C474.724 86.624 476.308 87.2 477.716 88.352V86.624H480.98V99.248V101.312C480.98 101.472 480.996 101.6 481.028 101.696C481.092 101.76 481.204 101.824 481.364 101.888C481.62 101.984 481.908 102.032 482.228 102.032C483.188 102.032 483.956 101.76 484.532 101.216C485.94 99.872 486.644 97.488 486.644 94.064C486.644 91.76 486.068 89.632 484.916 87.68C483.764 85.728 482.196 84.176 480.212 83.024C478.26 81.872 476.132 81.296 473.828 81.296C471.524 81.296 469.396 81.872 467.444 83.024C465.492 84.176 463.94 85.728 462.788 87.68C461.636 89.632 461.06 91.76 461.06 94.064C461.06 96.368 461.636 98.512 462.788 100.496C463.94 102.448 465.492 104 467.444 105.152C469.396 106.304 471.524 106.88 473.828 106.88C474.916 106.88 475.988 106.736 477.044 106.448L477.86 109.664C476.612 109.984 475.268 110.144 473.828 110.144C470.916 110.144 468.228 109.424 465.764 107.984C463.332 106.544 461.38 104.592 459.908 102.128C458.468 99.664 457.748 96.976 457.748 94.064C457.748 91.152 458.468 88.464 459.908 86C461.38 83.536 463.332 81.584 465.764 80.144C468.228 78.704 470.916 77.984 473.828 77.984ZM472.964 98.048C474.084 98.048 475.044 97.648 475.844 96.848C476.644 96.048 477.044 95.088 477.044 93.968C477.044 92.848 476.644 91.904 475.844 91.136C475.044 90.336 474.084 89.936 472.964 89.936C471.876 89.936 470.932 90.336 470.132 91.136C469.332 91.904 468.932 92.848 468.932 93.968C468.932 95.088 469.316 96.048 470.084 96.848C470.884 97.648 471.844 98.048 472.964 98.048ZM539.598 86.624V110H536.286V105.584C534.078 108.688 531.134 110.24 527.454 110.24C525.246 110.24 523.214 109.712 521.358 108.656C519.502 107.568 518.03 106.096 516.942 104.24C515.886 102.384 515.358 100.368 515.358 98.192C515.358 95.984 515.886 93.952 516.942 92.096C518.03 90.24 519.502 88.784 521.358 87.728C523.214 86.64 525.246 86.096 527.454 86.096C529.726 86.096 531.582 86.576 533.022 87.536C534.494 88.464 535.582 89.472 536.286 90.56V86.624H539.598ZM527.454 106.976C529.054 106.976 530.526 106.592 531.87 105.824C533.214 105.024 534.27 103.952 535.038 102.608C535.838 101.264 536.238 99.792 536.238 98.192C536.238 96.592 535.838 95.12 535.038 93.776C534.27 92.4 533.214 91.328 531.87 90.56C530.526 89.76 529.054 89.36 527.454 89.36C525.854 89.36 524.366 89.76 522.99 90.56C521.646 91.328 520.574 92.4 519.773 93.776C519.006 95.12 518.622 96.592 518.622 98.192C518.622 99.792 519.006 101.264 519.773 102.608C520.574 103.952 521.646 105.024 522.99 105.824C524.366 106.592 525.854 106.976 527.454 106.976Z" fill="black"/>
<path d="M279.904 158.24C276.992 158.24 274.32 157.52 271.888 156.08C269.456 154.64 267.52 152.704 266.08 150.272C264.64 147.84 263.92 145.168 263.92 142.256C263.92 139.344 264.64 136.672 266.08 134.24C267.52 131.776 269.456 129.824 271.888 128.384C274.352 126.944 277.024 126.224 279.904 126.224C282.784 126.224 285.456 126.944 287.92 128.384C290.384 129.824 292.336 131.776 293.776 134.24C295.216 136.704 295.936 139.376 295.936 142.256C295.936 145.136 295.216 147.808 293.776 150.272C292.336 152.704 290.384 154.64 287.92 156.08C285.488 157.52 282.816 158.24 279.904 158.24ZM279.904 154.976C282.208 154.976 284.336 154.416 286.288 153.296C288.24 152.144 289.776 150.592 290.896 148.64C292.048 146.688 292.624 144.56 292.624 142.256C292.624 139.952 292.048 137.824 290.896 135.872C289.776 133.92 288.24 132.384 286.288 131.264C284.336 130.112 282.208 129.536 279.904 129.536C277.6 129.536 275.472 130.112 273.52 131.264C271.568 132.384 270.016 133.92 268.864 135.872C267.744 137.824 267.184 139.952 267.184 142.256C267.184 144.56 267.744 146.688 268.864 148.64C270.016 150.592 271.568 152.144 273.52 153.296C275.472 154.416 277.6 154.976 279.904 154.976ZM311.251 137.552C310.515 137.232 309.779 137.072 309.043 137.072C307.539 137.072 306.243 137.616 305.155 138.704C304.067 139.792 303.523 141.088 303.523 142.592V158H300.259V142.592C300.259 140.864 300.707 139.296 301.603 137.888C302.531 136.448 303.731 135.376 305.203 134.672L305.299 134.624C306.483 134.08 307.731 133.808 309.043 133.808C311.091 133.808 312.915 134.432 314.515 135.68L311.251 137.552ZM319.529 127.328C320.105 127.328 320.601 127.536 321.017 127.952C321.433 128.368 321.641 128.864 321.641 129.44C321.641 130.048 321.433 130.56 321.017 130.976C320.601 131.392 320.105 131.6 319.529 131.6C318.921 131.6 318.409 131.392 317.993 130.976C317.577 130.56 317.369 130.048 317.369 129.44C317.369 128.864 317.577 128.368 317.993 127.952C318.409 127.536 318.921 127.328 319.529 127.328ZM321.161 134V158H317.849V134H321.161ZM348.721 134.624V156.176C348.721 158.352 348.177 160.368 347.089 162.224C346.001 164.08 344.529 165.536 342.673 166.592C340.817 167.68 338.801 168.224 336.625 168.224C334.737 168.224 332.961 167.824 331.297 167.024C329.665 166.224 328.289 165.12 327.169 163.712L330.097 161.984C330.897 162.912 331.857 163.632 332.977 164.144C334.129 164.688 335.345 164.96 336.625 164.96C338.225 164.96 339.697 164.56 341.041 163.76C342.385 162.992 343.441 161.936 344.209 160.592C345.009 159.248 345.409 157.776 345.409 156.176V153.488C343.201 156.592 340.257 158.144 336.577 158.144C334.433 158.144 332.433 157.568 330.577 156.416C328.721 155.264 327.249 153.744 326.161 151.856C325.073 149.936 324.529 147.904 324.529 145.76C324.529 143.616 325.073 141.648 326.161 139.856C327.249 138.064 328.705 136.64 330.529 135.584C332.385 134.528 334.401 134 336.577 134C338.817 134 340.673 134.48 342.145 135.44C343.617 136.368 344.705 137.376 345.409 138.464V134.624H348.721ZM336.577 154.88C338.177 154.88 339.649 154.496 340.993 153.728C342.337 152.928 343.393 151.856 344.161 150.512C344.961 149.168 345.361 147.696 345.361 146.096C345.361 144.496 344.961 143.024 344.161 141.68C343.393 140.336 342.337 139.28 340.993 138.512C339.649 137.712 338.177 137.312 336.577 137.312C334.977 137.312 333.505 137.712 332.161 138.512C330.817 139.28 329.745 140.336 328.945 141.68C328.145 143.024 327.745 144.496 327.745 146.096C327.745 147.696 328.145 149.168 328.945 150.512C329.745 151.856 330.817 152.928 332.161 153.728C333.505 154.496 334.977 154.88 336.577 154.88ZM377.269 134.624V158H373.957V153.584C371.749 156.688 368.805 158.24 365.125 158.24C362.917 158.24 360.885 157.712 359.029 156.656C357.173 155.568 355.701 154.096 354.613 152.24C353.557 150.384 353.029 148.368 353.029 146.192C353.029 143.984 353.557 141.952 354.613 140.096C355.701 138.24 357.173 136.784 359.029 135.728C360.885 134.64 362.917 134.096 365.125 134.096C367.397 134.096 369.253 134.576 370.693 135.536C372.165 136.464 373.253 137.472 373.957 138.56V134.624H377.269ZM365.125 154.976C366.725 154.976 368.197 154.592 369.541 153.824C370.885 153.024 371.941 151.952 372.709 150.608C373.509 149.264 373.909 147.792 373.909 146.192C373.909 144.592 373.509 143.12 372.709 141.776C371.941 140.4 370.885 139.328 369.541 138.56C368.197 137.76 366.725 137.36 365.125 137.36C363.525 137.36 362.037 137.76 360.661 138.56C359.317 139.328 358.245 140.4 357.445 141.776C356.677 143.12 356.293 144.592 356.293 146.192C356.293 147.792 356.677 149.264 357.445 150.608C358.245 151.952 359.317 153.024 360.661 153.824C362.037 154.592 363.525 154.976 365.125 154.976ZM405.192 134C406.792 134 408.264 134.4 409.608 135.2C410.952 135.968 412.008 137.04 412.776 138.416C413.576 139.76 413.976 141.232 413.976 142.832V158H410.712V142.832C410.712 141.296 410.168 140 409.08 138.944C407.992 137.856 406.696 137.312 405.192 137.312C403.656 137.312 402.344 137.856 401.256 138.944C400.2 140 399.672 141.28 399.672 142.784V142.832V158H396.36V142.784C396.36 141.28 395.816 140 394.728 138.944C393.64 137.856 392.344 137.312 390.84 137.312C389.336 137.312 388.04 137.872 386.952 138.992C385.864 140.08 385.32 141.392 385.32 142.928V158H382.056V134.624H385.32V136.496C385.96 135.728 386.776 135.12 387.768 134.672C388.792 134.224 389.816 134 390.84 134C392.28 134 393.624 134.336 394.872 135.008C396.152 135.68 397.192 136.576 397.992 137.696C398.824 136.576 399.864 135.68 401.112 135.008C402.392 134.336 403.752 134 405.192 134ZM420.919 127.328C421.495 127.328 421.991 127.536 422.407 127.952C422.823 128.368 423.031 128.864 423.031 129.44C423.031 130.048 422.823 130.56 422.407 130.976C421.991 131.392 421.495 131.6 420.919 131.6C420.311 131.6 419.799 131.392 419.383 130.976C418.967 130.56 418.759 130.048 418.759 129.44C418.759 128.864 418.967 128.368 419.383 127.952C419.799 127.536 420.311 127.328 420.919 127.328ZM422.551 134V158H419.239V134H422.551Z" fill="black"/>
<g filter="url(#filter0_d_260_3)">
<path d="M47.2221 122.106L59.7936 119.6L79.5657 131.769L72.3091 122.732L60.9947 20L150.252 87.0264L154.862 121.479L153.395 126.491L157.12 128.37L205.03 36.9132L181.712 135.887L190.33 133.381L234 186L117.566 172.653L105.623 180.362L103.738 175.351L54.1364 130.875L37 148.415L47.2221 122.106Z" fill="white"/>
<path d="M59.7936 119.6L47.2221 122.106L37 148.415M59.7936 119.6L50.9936 126.491M59.7936 119.6L79.5657 131.769M37 148.415L50.9936 126.491M37 148.415L54.1364 130.875M50.9936 126.491L54.1364 130.875M54.1364 130.875L103.738 175.351M110.023 148.415L101.223 158.438M110.023 148.415L99.3377 143.938M110.023 148.415L130.138 120.226L132.958 116.468M101.223 158.438L93.6806 161.57L99.3377 164.195M101.223 158.438L174.785 137.828M154.862 121.479L150.252 87.0264L60.9947 20L72.309 122.732L79.5657 131.769M154.862 121.479L153.395 126.491M154.862 121.479L132.958 116.468M99.3377 143.938L127.624 118.347L132.958 116.468M99.3377 143.938L79.5657 131.769M103.738 175.351L99.3377 164.195M103.738 175.351L105.623 180.362L117.566 172.653M99.3377 164.195L117.566 172.653M117.566 172.653L234 186L190.33 133.381L181.712 135.887M153.395 126.491L157.12 128.37M153.395 126.491L132.958 116.468M181.712 135.887L205.03 36.9132L157.12 128.37M181.712 135.887L174.785 137.828M157.12 128.37L174.785 137.828" stroke="black" stroke-width="2" stroke-linejoin="round"/>
</g>
<path d="M456.56 174.068L458 172.957L457.316 170.977L453.914 168.518L449.743 168L443.591 169.144L434.514 171.779L421.496 176.215L407.322 181.527L360.691 200.483L353.8 202.9L353.779 202.577L354.452 194.024L352.301 191.804L348.854 191.1L345.242 192.03L336.847 198.031L333.174 200.051L329.504 201.586L325.322 202.783L321.858 203.175L318.041 203.199L316.863 202.698L314.678 199.706L313.523 195.447L313.233 190.684L314.166 179.549L313.804 176.443L313.309 175.528L311.454 174.049L307.929 173.411L304.924 173.928L301.003 175.362L295.495 177.92L279.427 186.429L238.731 211.11L235.104 213.966L235 216.225L237.34 218.455L240.325 219L243.242 218.468L245.018 217.093L245.155 215.745L246.923 213.479L253.366 207.708L262.868 200.785L274.722 193.218L284.305 187.726L293.586 182.946L301.447 179.477L306.291 177.896L306.62 179.014L307.249 191.642L308.653 199.964L310.568 204.679L313.825 207.464L317.785 208.414L321.092 208.557L325.49 207.854L329.143 206.888L335.876 203.774L345.818 197.773L345.896 199.059L345.897 199.067L346.103 204.035L346.679 205.766L348.71 207.179L351.766 207.789L356.377 207.121L363.442 204.452L402.997 186.965L426.489 177.904L438.888 173.873L447.182 171.947L449.512 171.966L450.406 172.335L452.103 174.052L454.378 174.469L456.56 174.068Z" fill="#F40CB3"/>
<defs>
<filter id="filter0_d_260_3" x="31.9999" y="15" width="207" height="176" filterUnits="userSpaceOnUse" color-interpolation-filters="sRGB">
<feFlood flood-opacity="0" result="BackgroundImageFix"/>
<feColorMatrix in="SourceAlpha" type="matrix" values="0 0 0 0 0 0 0 0 0 0 0 0 0 0 0 0 0 0 127 0" result="hardAlpha"/>
<feOffset/>
<feGaussianBlur stdDeviation="2"/>
<feColorMatrix type="matrix" values="0 0 0 0 0.1125 0 0 0 0 0.1125 0 0 0 0 0.1125 0 0 0 0.25 0"/>
<feBlend mode="multiply" in2="BackgroundImageFix" result="effect1_dropShadow_260_3"/>
<feBlend mode="normal" in="SourceGraphic" in2="effect1_dropShadow_260_3" result="shape"/>
</filter>
</defs>
</svg>
