<svg width="367" height="168" viewBox="0 0 367 168" fill="none" xmlns="http://www.w3.org/2000/svg">
<g clip-path="url(#clip0_276_23)">
<path d="M46.8082 126.121C46.6074 126.289 46.4154 126.444 46.232 126.584C46.0714 126.719 45.8657 126.816 45.6149 126.876C44.568 126.427 43.8257 125.388 43.3881 123.757C42.9732 122.121 42.8284 119.951 42.9535 117.246C43.0511 117.151 43.0754 117 43.0264 116.795L42.637 116.527C42.5458 116.548 42.4574 116.582 42.3716 116.626C42.3087 116.665 42.2707 116.759 42.2578 116.906C41.7686 117.481 41.2278 118.092 40.6354 118.74C40.0376 119.364 39.4002 119.975 38.7232 120.57C38.0634 121.137 37.3646 121.642 36.6266 122.083C35.9114 122.519 35.1777 122.827 34.4254 123.006C32.5106 123.464 30.843 122.838 29.4227 121.129L29.0267 120.681L28.8593 121.191C28.8127 121.299 28.7564 121.517 28.6904 121.846C28.6189 122.152 28.5584 122.504 28.5087 122.901C28.4591 123.299 28.4235 123.705 28.4021 124.12C28.398 124.506 28.4401 124.833 28.5282 125.102C28.3721 125.356 28.2127 125.647 28.05 125.975C27.8874 126.303 27.7899 126.651 27.7576 127.021C27.7556 127.214 27.8192 127.379 27.9485 127.517C27.952 127.733 27.8875 127.917 27.7551 128.069C27.6912 128.205 27.6158 128.344 27.5291 128.485C27.4597 128.598 27.4044 128.719 27.3632 128.85C27.3448 128.975 27.3379 129.097 27.3423 129.216C27.3695 129.33 27.3853 129.447 27.3898 129.566C27.4279 129.726 27.4405 129.879 27.4276 130.027C27.2306 130.918 27.0454 131.504 26.8718 131.786C26.7038 132.092 26.426 132.29 26.0384 132.383C25.8561 132.427 25.5515 132.463 25.1249 132.493C24.7523 132.244 24.3753 131.877 23.9939 131.389C23.6298 130.874 23.3031 130.313 23.0139 129.708C22.7474 129.097 22.538 128.472 22.3855 127.834C22.2504 127.167 22.2283 126.57 22.3191 126.042C22.3137 126.02 22.3504 125.77 22.4293 125.293C22.5082 124.816 22.6028 124.204 22.713 123.454C22.846 122.7 22.9969 121.868 23.1656 120.961C23.3289 120.03 23.5003 119.134 23.6799 118.271C23.8541 117.386 24.0218 116.575 24.183 115.838C24.3671 115.095 24.5323 114.526 24.6785 114.129C24.7956 113.812 24.8953 113.523 24.9776 113.263C25.0773 112.974 25.1683 112.699 25.2506 112.438C25.4921 111.634 25.7408 110.96 25.9967 110.417C26.2699 109.845 26.7385 109.336 27.4027 108.888C27.9532 108.974 28.3751 109.126 28.6684 109.345L28.8266 109.705C28.9723 109.911 29.1363 109.992 29.3186 109.949C29.5857 109.957 29.8072 109.976 29.9831 110.007C30.1764 110.009 30.3811 110.008 30.5971 110.005C30.8003 110.149 31.0002 110.33 31.1968 110.548C31.4445 110.778 31.6808 111.011 31.9058 111.246C32.148 111.454 32.3474 111.683 32.5039 111.935C32.6778 112.158 32.7974 112.407 32.8628 112.68C32.9509 112.949 32.9734 113.244 32.9302 113.568L33.046 113.902C33.209 114.08 33.2999 114.359 33.3186 114.74C33.3339 114.905 33.3634 115.079 33.4069 115.261C33.445 115.421 33.5114 115.598 33.606 115.792C34.0926 116.013 34.4954 116.086 34.8146 116.01C35.1793 115.922 35.4908 115.764 35.749 115.533C36.0246 115.275 36.2774 115.022 36.5074 114.774C36.6571 114.594 36.8122 114.436 36.9728 114.301C37.128 114.144 37.294 114.032 37.4709 113.965C37.7887 113.48 38.0718 113.051 38.3201 112.678C38.5913 112.3 38.8739 111.919 39.1678 111.536C39.721 110.825 40.2405 110.075 40.7264 109.284C41.2122 108.493 41.5346 107.573 41.6934 106.523C41.8887 106.332 42.1117 106.206 42.3625 106.146C42.6133 106.086 42.889 106.081 43.1898 106.129C43.4906 106.178 43.78 106.229 44.0579 106.284C44.1372 106.313 44.2024 106.333 44.2534 106.345C44.3273 106.352 44.3897 106.361 44.4407 106.373C44.4952 106.601 44.6326 106.773 44.8531 106.889C44.9606 106.935 45.0285 106.967 45.0568 106.985C45.085 107.002 45.1246 107.017 45.1757 107.029C45.5612 107.129 45.8213 107.26 45.9561 107.421C46.2409 107.907 46.6211 108.238 47.0968 108.413C47.1056 108.652 47.1574 108.869 47.252 109.063C47.3639 109.229 47.49 109.404 47.6302 109.587C47.6693 109.65 47.7084 109.713 47.7476 109.776C47.7867 109.839 47.8399 109.91 47.9073 109.991L47.2413 110.077L47.499 110.703C47.6209 111.011 47.6711 111.372 47.6496 111.787C47.651 112.197 47.6106 112.531 47.5282 112.792C47.6926 113.379 47.8156 113.844 47.8973 114.186C47.9963 114.5 48.0584 114.81 48.0836 115.117C48.1034 115.402 48.0976 115.68 48.0663 115.953C48.0578 116.22 48.0205 116.518 47.9546 116.847C48.3942 118.284 48.5418 119.659 48.3972 120.97C48.27 122.254 48.1037 123.474 47.8982 124.632C47.8799 124.757 47.8501 124.884 47.8089 125.014C47.7906 125.139 47.7722 125.264 47.7538 125.389C47.565 125.506 47.4017 125.63 47.2639 125.759C47.1207 125.866 46.9687 125.986 46.8082 126.121ZM66.293 101.768C66.3539 101.922 66.3839 102.047 66.3828 102.144C66.3992 102.212 66.4041 102.283 66.3977 102.357C66.414 102.426 66.433 102.506 66.4548 102.597C66.4712 102.665 66.5212 102.774 66.6049 102.922C66.3113 103.812 65.8807 104.481 65.3132 104.93C64.7631 105.35 64.1396 105.716 63.4428 106.027C62.7405 106.315 62.0182 106.62 61.2758 106.942C60.5562 107.259 59.8747 107.735 59.2313 108.37C58.9077 108.327 58.6342 108.392 58.4106 108.566C58.2099 108.735 57.8761 108.851 57.4093 108.914C57.3052 109.083 57.1587 109.227 56.9699 109.344C56.7756 109.439 56.5841 109.545 56.3952 109.662C56.5354 109.846 56.6214 110.054 56.653 110.287C56.702 110.493 56.777 110.655 56.8781 110.776C57.6923 110.654 58.5672 110.433 59.5029 110.113C60.4614 109.787 61.4052 109.502 62.3344 109.256C62.3844 109.364 62.3921 109.447 62.3574 109.503C62.3172 109.537 62.3194 109.597 62.364 109.682C62.5508 109.758 62.7458 109.868 62.9489 110.013C63.1466 110.134 63.3443 110.255 63.542 110.377C63.7397 110.498 63.9319 110.597 64.1187 110.673C64.3229 110.721 64.5362 110.706 64.7587 110.628C64.8934 110.789 64.9994 110.981 65.0767 111.203C65.1713 111.397 65.2002 111.619 65.1635 111.869C64.8586 112.207 64.5565 112.556 64.2571 112.917C63.9523 113.255 63.6192 113.575 63.2578 113.879C62.9193 114.176 62.5384 114.448 62.1152 114.694C61.7093 114.911 61.23 115.074 60.6775 115.182C60.5635 115.209 60.4723 115.231 60.4039 115.247C60.3583 115.258 60.2818 115.24 60.1743 115.193C60.0191 115.351 59.7651 115.448 59.4123 115.484C59.0822 115.514 58.8397 115.609 58.6845 115.766C58.4065 115.712 58.0879 115.74 57.7286 115.85C57.3866 115.931 57.068 115.959 56.7727 115.934C56.5223 116.499 56.3142 117.091 56.1486 117.709C55.9829 118.327 55.8596 118.971 55.7786 119.641C56.5809 119.57 57.2301 119.463 57.7262 119.32C58.2451 119.172 58.727 119.021 59.172 118.867C59.6116 118.689 60.0653 118.521 60.5332 118.361C60.9956 118.178 61.5942 118.011 62.3291 117.859C62.7252 117.5 63.2228 117.212 63.8219 116.997C64.4385 116.753 64.9871 116.478 65.4678 116.17C65.6665 116.195 65.8561 116.282 66.0364 116.432C66.2113 116.559 66.3748 116.688 66.5269 116.821C66.6963 116.925 66.8631 117.017 67.0271 117.099C67.1911 117.18 67.3729 117.185 67.5726 117.113C67.6856 117.182 67.7698 117.283 67.8253 117.414C67.8981 117.517 67.9595 117.623 68.0095 117.732C68.0596 117.84 68.1183 117.935 68.1856 118.015C68.2704 118.067 68.3784 118.065 68.5097 118.01C68.3475 118.844 68.0874 119.52 67.7295 120.04C67.3889 120.531 66.9582 120.947 66.4373 121.288C65.9164 121.629 65.3162 121.941 64.6367 122.224C63.98 122.501 63.249 122.821 62.4437 123.182C62.2494 123.276 62.0757 123.306 61.9226 123.27C61.7749 123.257 61.6099 123.272 61.4276 123.316C60.9305 123.555 60.3281 123.807 59.6204 124.073C58.9127 124.338 58.18 124.549 57.4222 124.706C56.6645 124.863 55.9219 124.932 55.1945 124.913C54.4725 124.917 53.8432 124.754 53.3066 124.424C53.0861 124.308 52.9172 124.156 52.7998 123.967C52.6998 123.75 52.5107 123.614 52.2328 123.56C52.1392 123.269 52.0146 122.95 51.8591 122.601C51.7036 122.253 51.5454 121.893 51.3844 121.522C51.218 121.128 51.0658 120.743 50.9276 120.366C50.8122 119.984 50.7506 119.625 50.7428 119.289C50.7295 118.931 50.7928 118.591 50.9326 118.268C51.0952 117.94 51.1042 117.625 50.9596 117.322C51.0682 117.272 51.1229 117.199 51.124 117.102C51.1195 116.983 51.1998 116.915 51.3648 116.9C51.4036 116.457 51.4592 116.034 51.5317 115.631C51.6041 115.228 51.6793 114.837 51.7572 114.457C51.8579 114.071 51.9472 113.688 52.0251 113.308C52.1204 112.9 52.196 112.46 52.2522 111.989C51.8622 111.769 51.5466 111.507 51.3054 111.203C51.0815 110.871 50.8945 110.542 50.7445 110.217C50.589 109.868 50.4448 109.517 50.3121 109.163C50.174 108.787 50.0016 108.418 49.7951 108.058C49.9414 107.661 50.1496 107.323 50.4197 107.041C50.7072 106.732 51.0284 106.462 51.3833 106.233C51.7381 106.003 52.1326 105.789 52.5668 105.589C53.0009 105.388 53.4552 105.172 53.9294 104.938C54.7705 104.424 55.5253 104.002 56.1939 103.674C56.8853 103.34 57.562 103.046 58.2241 102.791C58.9036 102.509 59.6086 102.232 60.339 101.961C61.0695 101.69 61.8917 101.349 62.8056 100.938C63.0598 101.094 63.2781 101.151 63.4604 101.107C63.5026 100.88 63.5916 100.799 63.7273 100.863C63.8805 100.898 63.9211 100.816 63.8493 100.617C64.1698 100.95 64.5337 101.212 64.941 101.404C65.3657 101.568 65.8163 101.689 66.293 101.768ZM82.831 101.396C82.927 102 82.9838 102.54 83.0015 103.018C83.0192 103.496 83.0082 104.004 82.9684 104.544C83.0219 106.483 82.9853 108.347 82.8584 110.137C82.7544 111.921 82.5297 113.553 82.1844 115.033C81.7496 115.835 81.3072 116.556 80.857 117.193C80.4297 117.825 79.8986 118.326 79.2637 118.694C78.9327 118.821 78.6386 118.952 78.3813 119.086C78.1415 119.191 77.9043 119.308 77.6699 119.436C77.5614 119.486 77.4414 119.539 77.3101 119.595C77.2016 119.645 77.0957 119.706 76.9926 119.779C76.6344 119.792 76.2902 119.814 75.9602 119.845C75.6584 119.893 75.3821 119.947 75.1313 120.007L74.6541 119.976C74.4098 119.962 74.2139 119.949 74.0662 119.936C73.9413 119.917 73.8192 119.91 73.6997 119.915C73.5977 119.891 73.4755 119.884 73.3333 119.894C73.2139 119.898 73.0147 119.922 72.7357 119.964C72.4264 120.183 72.1236 120.327 71.8272 120.398C71.4169 120.496 70.9315 120.431 70.3711 120.204C69.8107 119.976 69.2376 119.342 68.6516 118.301C68.5938 117.857 68.5723 117.465 68.5873 117.124C68.574 116.765 68.5911 116.484 68.6388 116.28C69.1097 115.83 69.5275 115.562 69.8922 115.475C70.3253 115.371 70.752 115.342 71.1722 115.386C71.6152 115.425 72.0495 115.477 72.4752 115.545C72.6739 115.569 72.8129 115.596 72.8922 115.626C72.9714 115.655 73.0366 115.675 73.0876 115.687C73.1387 115.699 73.187 115.7 73.2326 115.689C73.301 115.673 73.4263 115.643 73.6087 115.599C73.7227 115.572 73.8139 115.55 73.8823 115.534C73.968 115.489 74.0538 115.445 74.1395 115.4L74.4896 115.353C74.6427 115.388 74.8105 115.384 74.9928 115.341C75.2208 115.286 75.4921 115.161 75.8069 114.966C75.9501 114.859 76.0646 114.784 76.1503 114.739C76.2589 114.689 76.3674 114.639 76.4759 114.589L76.6841 114.25C76.873 114.133 77.0021 114.017 77.0715 113.904C77.1637 113.786 77.2304 113.662 77.2715 113.531C77.3355 113.396 77.3854 113.251 77.4211 113.098C77.4568 112.945 77.5126 112.775 77.5884 112.588C77.6524 112.452 77.705 112.319 77.7461 112.189C77.8101 112.053 77.8741 111.918 77.938 111.782L77.8563 111.44C77.9948 110.708 78.0936 109.962 78.1528 109.2C78.2065 108.416 78.2374 107.638 78.2456 106.865C78.2537 106.092 78.2331 105.35 78.1837 104.639C78.1571 103.922 78.1241 103.279 78.0846 102.711L77.7427 102.792C77.1728 102.928 76.7082 103.051 76.3489 103.161C75.9841 103.248 75.659 103.35 75.3736 103.466C75.0827 103.56 74.7744 103.682 74.4488 103.832C74.146 103.977 73.7547 104.154 73.275 104.365L72.7866 104.59C72.4882 104.854 72.1843 105.096 71.8751 105.314C71.5658 105.533 71.2402 105.683 70.8982 105.764C70.3055 105.906 69.7496 105.798 69.2303 105.44C68.7264 105.247 68.3831 104.919 68.2004 104.457C68.0537 104.347 67.9814 104.196 67.9834 104.003C67.8269 103.751 67.7242 103.522 67.6752 103.317C67.6207 103.089 67.5717 102.884 67.5281 102.702L67.4138 102.223L67.8583 102.117C67.9451 101.976 68.0058 101.877 68.0405 101.82C68.0698 101.741 68.0849 101.653 68.0859 101.556L68.3886 101.159C68.7652 101.021 69.1505 100.868 69.5445 100.702C69.9559 100.507 70.3786 100.31 70.8128 100.11C71.2241 99.9153 71.5725 99.7598 71.858 99.6435C72.1662 99.5216 72.4544 99.4167 72.7225 99.3285C73.0134 99.235 73.3071 99.1528 73.6034 99.082C73.9171 98.983 74.2791 98.8844 74.6895 98.7864L75.4759 98.5986C75.5226 98.4911 75.5801 98.4291 75.6484 98.4128C75.7342 98.3682 75.7998 98.3405 75.8454 98.3296C75.9594 98.3024 76.0533 98.292 76.1272 98.2985C76.201 98.3049 76.2634 98.3141 76.3145 98.326C76.9255 98.0596 77.5019 97.8496 78.0436 97.6961C78.5798 97.5199 79.0645 97.38 79.4976 97.2766C79.7256 97.2221 79.9307 97.1731 80.1131 97.1295C80.3183 97.0805 80.5148 97.0457 80.7026 97.0249L81.831 96.7554L82.5833 96.5757C82.6918 96.5257 82.8714 96.4707 83.1222 96.4108C83.4869 96.3237 83.7176 96.2806 83.8143 96.2817C83.9282 96.2544 84.1274 96.231 84.4119 96.2112C84.7419 96.1806 85.0378 96.1581 85.2994 96.1438C85.5784 96.1013 85.8547 96.0473 86.1283 95.982L86.6412 95.8595L86.8254 96.1769L87.1807 96.4535C87.2535 96.5566 87.3464 96.6429 87.4593 96.7123C87.5951 96.7762 87.7336 96.8516 87.8748 96.9383C88.1572 97.1118 88.4364 97.3223 88.7123 97.5696C89.0111 97.8115 89.197 98.237 89.2702 98.846L89.1207 99.2793C89.0176 99.3522 88.9053 99.4874 88.7839 99.6851L88.5415 100.032C88.2961 100.115 88.085 100.189 87.9081 100.256C87.7257 100.299 87.5434 100.343 87.361 100.386C87.019 100.468 86.663 100.541 86.2928 100.605C85.9454 100.664 85.5752 100.729 85.1822 100.798C84.9771 100.847 84.8175 100.885 84.7035 100.913C84.5895 100.94 84.4756 100.967 84.3616 100.994C84.2704 101.016 84.1678 101.041 84.0538 101.068C83.9398 101.095 83.7917 101.131 83.6093 101.174C83.4269 101.218 83.2901 101.25 83.199 101.272C83.1078 101.294 82.9851 101.335 82.831 101.396ZM106.26 101.728C106.303 102.007 106.388 102.264 106.516 102.498C106.645 102.732 106.784 102.964 106.935 103.193C107.104 103.394 107.263 103.609 107.415 103.838C107.566 104.067 107.694 104.301 107.799 104.541C107.921 104.849 108.006 105.203 108.053 105.601C108.094 105.977 108.101 106.36 108.075 106.752C108.042 107.122 107.97 107.476 107.859 107.816C107.742 108.133 107.574 108.39 107.356 108.587C107.135 109.073 106.824 109.485 106.422 109.822C106.021 110.159 105.664 110.533 105.353 110.945C105.14 111.164 104.883 111.346 104.58 111.491C104.3 111.63 104.008 111.772 103.706 111.916C103.487 112.113 103.226 112.332 102.923 112.573C102.613 112.792 102.293 113.013 101.961 113.237C101.623 113.438 101.28 113.616 100.932 113.772C100.578 113.905 100.261 113.992 99.9825 114.035C99.3585 114.449 98.7241 114.769 98.0794 114.995C97.4628 115.239 96.6997 115.373 95.7899 115.398C94.9964 115.708 94.2246 115.856 93.4743 115.842C92.7469 115.823 92.0633 115.685 91.4237 115.428C90.8013 115.143 90.2197 114.776 89.6787 114.327C89.155 113.85 88.6943 113.333 88.2965 112.778C87.8038 111.522 87.569 110.337 87.5921 109.223C87.6097 108.086 87.7631 107.013 88.0523 106.005C88.3588 104.967 88.7527 103.994 89.2342 103.084C89.7101 102.151 90.1687 101.246 90.61 100.369C90.7577 100.382 90.8602 100.358 90.9177 100.296C90.9926 100.206 91.0533 100.107 91.0999 99.9994C91.1411 99.8691 91.185 99.7502 91.2316 99.6426C91.301 99.5297 91.39 99.4482 91.4985 99.3982C91.5764 99.0181 91.7445 98.7129 92.0027 98.4825C92.2783 98.2239 92.4692 97.9133 92.5753 97.5506C92.7696 97.456 92.9242 97.3468 93.0392 97.2229C93.1542 97.099 93.2551 96.9665 93.3418 96.8253C93.4514 96.6787 93.5637 96.5434 93.6787 96.4196C93.7882 96.2729 93.9287 96.155 94.1002 96.0658L94.0104 95.6897C94.3772 95.4093 94.6245 95.1334 94.7524 94.8619C94.8977 94.5621 95.0663 94.2086 95.2582 93.8013C95.4579 93.7295 95.6147 93.68 95.7287 93.6528C95.8655 93.6201 96.0538 93.551 96.2937 93.4455C96.3998 93.0828 96.5022 92.8053 96.6009 92.6131C96.7223 92.4154 96.9095 92.19 97.1623 91.9368C97.4685 92.0083 97.7866 92.0287 98.1167 91.998C98.4695 91.962 98.8012 92.0393 99.1119 92.2302C99.1891 92.4527 99.3011 92.6188 99.4477 92.7283C99.5889 92.8151 99.7415 92.8991 99.9055 92.9804C100.064 93.0389 100.214 93.1116 100.355 93.1983C100.519 93.2796 100.648 93.4174 100.743 93.6117C100.84 93.6127 100.894 93.5877 100.906 93.5367C100.941 93.4802 101.006 93.4525 101.103 93.4535C101.248 93.7563 101.379 93.9538 101.497 94.046C101.61 94.1154 101.748 94.2874 101.91 94.562C101.85 94.8172 101.816 95.0783 101.808 95.3454C101.817 95.5842 101.721 95.7879 101.52 95.9563C101.535 96.1213 101.603 96.2016 101.722 96.1972C101.836 96.17 101.918 96.2106 101.968 96.3192C102.04 96.5189 102.041 96.6752 101.972 96.7882C102.731 97.5466 103.447 98.3755 104.12 99.2751C104.787 100.152 105.501 100.969 106.26 101.728ZM102.762 105.997C102.793 105.725 102.858 105.492 102.957 105.3C103.078 105.102 103.112 104.841 103.059 104.517C102.901 104.362 102.8 104.241 102.755 104.155C102.705 104.047 102.653 103.879 102.599 103.651C101.928 103.064 101.316 102.415 100.76 101.704C100.2 100.971 99.6068 100.305 98.9821 99.7071C98.9582 99.8092 98.9002 99.9194 98.808 100.038C98.7158 100.156 98.585 100.163 98.4156 100.059C98.4135 100.253 98.3664 100.408 98.2742 100.527C98.1766 100.622 98.0594 100.687 97.9226 100.719C97.7804 100.729 97.624 100.73 97.4536 100.723C97.3004 100.687 97.156 100.637 97.0202 100.573C96.4844 101.256 95.9458 101.926 95.4045 102.586C94.8632 103.245 94.4093 103.968 94.0429 104.754C93.9626 104.822 93.9111 104.858 93.8883 104.864C93.86 104.846 93.7944 104.874 93.6913 104.947C93.6124 105.423 93.4797 105.877 93.2933 106.307C93.1242 106.709 92.9578 107.122 92.7942 107.547C92.6305 107.971 92.5065 108.411 92.4222 108.864C92.3378 109.318 92.3496 109.822 92.4574 110.374C92.9212 110.601 93.4234 110.686 93.9641 110.629C94.5047 110.572 95.0432 110.455 95.5794 110.279C96.1384 110.097 96.6692 109.898 97.1717 109.682C97.6916 109.437 98.1795 109.26 98.6354 109.152C99.5384 108.695 100.288 108.203 100.885 107.674C101.476 107.124 102.102 106.564 102.762 105.997ZM115.452 106.617C115.419 107.589 115.357 108.338 115.266 108.866C115.193 109.366 115.022 109.912 114.754 110.506C114.447 110.532 114.25 110.615 114.163 110.756C114.077 110.897 113.976 111.03 113.861 111.154C113.667 111.248 113.518 111.284 113.416 111.26C113.314 111.236 113.221 111.198 113.136 111.146C113.057 111.117 112.952 111.081 112.822 111.04C112.72 111.016 112.566 111.029 112.361 111.078C112.272 110.907 112.174 110.749 112.067 110.606C111.984 110.457 111.822 110.436 111.582 110.541C111.584 110.348 111.56 110.197 111.51 110.089C111.455 109.957 111.393 109.851 111.326 109.771C111.276 109.663 111.228 109.565 111.184 109.48C111.134 109.371 111.113 109.232 111.12 109.061C111.006 109.088 110.896 109.03 110.789 108.887C110.683 108.744 110.565 108.603 110.436 108.466C110.406 108.039 110.382 107.635 110.363 107.254C110.344 106.873 110.342 106.512 110.357 106.171C110.395 105.825 110.41 105.484 110.402 105.148C110.394 104.813 110.281 104.49 110.063 104.181C110.17 104.228 110.236 104.2 110.26 104.098C110.278 103.973 110.28 103.828 110.264 103.663C110.244 103.475 110.214 103.302 110.176 103.142C110.133 102.96 110.086 102.814 110.036 102.706C110.122 102.058 110.16 101.411 110.15 100.763C110.157 100.086 110.144 99.4266 110.111 98.7839C110.101 98.1357 110.093 97.499 110.089 96.8736C110.084 96.2482 110.135 95.6575 110.244 95.1016C110.484 94.9961 110.765 94.9649 111.089 95.0081C111.43 95.0231 111.653 95.1022 111.76 95.2454C112.244 94.6479 112.637 93.9756 112.941 93.2284C113.239 92.4584 113.554 91.7085 113.885 90.9787C114.217 90.2488 114.611 89.5765 115.066 88.9616C115.545 88.3413 116.218 87.8794 117.085 87.5759C117.622 87.8089 118.208 88.0425 118.843 88.2766C119.494 88.4824 120.07 88.8267 120.571 89.3095C120.775 89.3571 120.948 89.4243 121.089 89.511C121.248 89.5696 121.432 89.634 121.642 89.7044L121.74 90.1148C122.073 90.3002 122.36 90.5448 122.602 90.8487C122.86 91.1242 123.104 91.4395 123.333 91.7943C123.557 92.1264 123.784 92.4699 124.013 92.8247C124.237 93.1568 124.481 93.472 124.745 93.7704C124.727 93.8953 124.729 94.0033 124.75 94.0945C124.767 94.1629 124.797 94.24 124.842 94.3257C124.909 94.406 124.965 94.489 125.01 94.5748C125.054 94.6605 125.084 94.7859 125.099 94.9509C125.271 95.9703 125.133 96.8585 124.688 97.6156C124.265 98.3672 123.692 99.0462 122.969 99.6525C122.241 100.236 121.443 100.776 120.573 101.273C119.704 101.77 118.931 102.268 118.255 102.766C118.277 102.858 118.322 102.895 118.391 102.879C118.482 102.857 118.53 102.906 118.534 103.025C119.163 103.236 119.661 103.407 120.029 103.536C120.397 103.664 120.735 103.765 121.041 103.836C121.37 103.902 121.708 103.954 122.054 103.992C122.418 104.001 122.912 104.004 123.538 103.999C124.163 103.994 124.646 103.999 124.987 104.014C125.345 104.001 125.669 103.996 125.959 103.999C126.244 103.979 126.528 103.959 126.813 103.939C127.114 103.891 127.533 103.828 128.068 103.748C128.322 103.904 128.553 104.114 128.761 104.378C128.986 104.613 129.156 104.874 129.273 105.159C129.384 105.422 129.46 105.693 129.503 105.972C129.54 106.228 129.509 106.452 129.411 106.644C129.45 106.707 129.503 106.731 129.572 106.714C129.658 106.67 129.749 106.648 129.845 106.649C129.73 106.773 129.644 106.914 129.585 107.072C129.527 107.231 129.468 107.39 129.41 107.548C129.351 107.707 129.276 107.845 129.184 107.964C129.097 108.105 128.954 108.211 128.754 108.283C128.112 108.725 127.226 108.949 126.095 108.954C124.969 108.982 123.509 108.873 121.715 108.627C120.818 108.504 120.081 108.391 119.502 108.288C118.94 108.157 118.439 108.024 117.997 107.889C117.572 107.725 117.168 107.544 116.783 107.347C116.421 107.144 115.978 106.901 115.452 106.617ZM117.54 93.7202C117.377 94.1448 117.171 94.5434 116.922 94.916C116.697 95.2832 116.474 95.6617 116.254 96.0516C116.051 96.4133 115.882 96.8152 115.747 97.2571C115.606 97.6763 115.55 98.1476 115.578 98.6709C116.354 98.3891 117.135 97.9738 117.919 97.425C118.698 96.8533 119.437 96.3154 120.136 95.8111C119.876 95.1262 119.489 94.6162 118.976 94.281C118.485 93.9405 118.006 93.7535 117.54 93.7202ZM144.222 83.1544C144.283 83.3086 144.313 83.4339 144.312 83.5306C144.328 83.599 144.333 83.6701 144.327 83.7439C144.343 83.8123 144.362 83.8921 144.384 83.9833C144.4 84.0516 144.45 84.1602 144.534 84.3089C144.24 85.1983 143.81 85.8674 143.242 86.3162C142.692 86.7368 142.069 87.1026 141.372 87.4136C140.67 87.7018 139.947 88.0069 139.205 88.3288C138.485 88.6452 137.804 89.1213 137.16 89.7569C136.837 89.7137 136.563 89.779 136.34 89.9529C136.139 90.1213 135.805 90.2372 135.338 90.3005C135.234 90.4699 135.088 90.6134 134.899 90.7307C134.705 90.8253 134.513 90.9313 134.324 91.0487C134.464 91.2321 134.55 91.4405 134.582 91.6739C134.631 91.8791 134.706 92.0419 134.807 92.1623C135.621 92.0402 136.496 91.8191 137.432 91.4993C138.39 91.1739 139.334 90.8883 140.263 90.6422C140.313 90.7508 140.321 90.8333 140.286 90.8897C140.246 90.9234 140.248 90.9831 140.293 91.0689C140.48 91.1448 140.675 91.2548 140.878 91.3991C141.076 91.5205 141.273 91.642 141.471 91.7635C141.669 91.8849 141.861 91.9836 142.048 92.0594C142.252 92.1071 142.465 92.0923 142.688 92.015C142.822 92.1756 142.928 92.3672 143.006 92.5897C143.1 92.7839 143.129 93.006 143.092 93.2557C142.788 93.5936 142.486 93.9429 142.186 94.3035C141.881 94.6414 141.548 94.9619 141.187 95.2651C140.848 95.5628 140.467 95.8345 140.044 96.0802C139.638 96.2976 139.159 96.4603 138.606 96.5682C138.492 96.5954 138.401 96.6172 138.333 96.6335C138.287 96.6444 138.211 96.6266 138.103 96.5799C137.948 96.7375 137.694 96.8343 137.341 96.8704C137.011 96.901 136.769 96.9951 136.614 97.1526C136.336 97.0986 136.017 97.1265 135.658 97.2364C135.316 97.3181 134.997 97.346 134.702 97.3201C134.451 97.886 134.243 98.4778 134.078 99.0957C133.912 99.7136 133.789 100.358 133.708 101.027C134.51 100.956 135.159 100.849 135.655 100.707C136.174 100.559 136.656 100.408 137.101 100.253C137.541 100.076 137.994 99.9072 138.462 99.7473C138.925 99.5646 139.523 99.3975 140.258 99.246C140.654 98.8864 141.152 98.5988 141.751 98.3834C142.367 98.1398 142.916 97.8642 143.397 97.5566C143.596 97.5814 143.785 97.6687 143.965 97.8184C144.14 97.9453 144.304 98.0749 144.456 98.2072C144.625 98.3114 144.792 98.4041 144.956 98.4854C145.12 98.5667 145.302 98.5714 145.502 98.4996C145.615 98.569 145.699 98.6694 145.754 98.8007C145.827 98.9038 145.889 99.0097 145.939 99.1182C145.989 99.2267 146.047 99.3211 146.115 99.4014C146.199 99.4535 146.307 99.4518 146.439 99.3963C146.276 100.23 146.016 100.907 145.658 101.426C145.318 101.917 144.887 102.333 144.366 102.675C143.845 103.016 143.245 103.328 142.566 103.611C141.909 103.888 141.178 104.207 140.373 104.568C140.178 104.663 140.005 104.692 139.852 104.656C139.704 104.644 139.539 104.659 139.357 104.702C138.859 104.942 138.257 105.194 137.549 105.459C136.842 105.725 136.109 105.936 135.351 106.093C134.594 106.25 133.851 106.319 133.123 106.3C132.401 106.303 131.772 106.14 131.236 105.811C131.015 105.695 130.846 105.542 130.729 105.354C130.629 105.136 130.44 105.001 130.162 104.947C130.068 104.656 129.944 104.336 129.788 103.988C129.633 103.639 129.474 103.28 129.313 102.908C129.147 102.514 128.995 102.129 128.857 101.752C128.741 101.37 128.68 101.012 128.672 100.676C128.659 100.318 128.722 99.9774 128.862 99.6548C129.024 99.3268 129.033 99.0114 128.889 98.7086C128.997 98.6586 129.052 98.5852 129.053 98.4886C129.049 98.3692 129.129 98.3018 129.294 98.2865C129.333 97.8435 129.388 97.4206 129.461 97.0177C129.533 96.6148 129.608 96.2234 129.686 95.8433C129.787 95.4578 129.876 95.0751 129.954 94.695C130.049 94.2867 130.125 93.8469 130.181 93.3757C129.791 93.1556 129.476 92.8936 129.234 92.5898C129.011 92.2577 128.824 91.9288 128.673 91.6032C128.518 91.2548 128.374 90.9037 128.241 90.5498C128.103 90.1732 127.931 89.8047 127.724 89.4444C127.87 89.048 128.079 88.7091 128.349 88.4277C128.636 88.1181 128.957 87.8486 129.312 87.6193C129.667 87.3899 130.062 87.1752 130.496 86.9751C130.93 86.775 131.384 86.5581 131.858 86.3243C132.7 85.8102 133.454 85.3889 134.123 85.0606C134.814 84.7268 135.491 84.4326 136.153 84.1781C136.833 83.8953 137.538 83.6185 138.268 83.3476C138.999 83.0767 139.821 82.7358 140.735 82.3247C140.989 82.4809 141.207 82.5372 141.389 82.4936C141.432 82.2667 141.521 82.1852 141.656 82.2491C141.809 82.2849 141.85 82.2029 141.778 82.0031C142.099 82.3362 142.463 82.5987 142.87 82.7906C143.295 82.9542 143.745 83.0755 144.222 83.1544ZM157.831 83.9883C157.876 83.4715 158.029 83.0012 158.289 82.5776C158.572 82.1486 158.892 81.771 159.248 81.4451C159.621 81.0909 160.016 80.7795 160.434 80.511C160.852 80.2426 161.253 80.0023 161.636 79.7903C162.455 79.185 163.337 78.5889 164.281 78.0019C165.242 77.3867 166.226 76.8144 167.232 76.2849C168.261 75.75 169.337 75.3122 170.461 74.9716C171.579 74.6081 172.808 74.4591 174.149 74.5243C174.272 74.736 174.426 74.928 174.612 75.1005C174.798 75.273 174.984 75.4455 175.169 75.618C175.378 75.7851 175.564 75.9576 175.727 76.1355C175.884 76.2906 175.999 76.4681 176.071 76.6678C176.348 76.8185 176.585 77.0029 176.781 77.221C176.972 77.4163 177.069 77.7186 177.07 78.1279C176.886 78.3647 176.699 78.5902 176.509 78.8042C176.336 78.99 176.138 79.1698 175.915 79.3437C175.022 79.34 174.151 79.4758 173.301 79.7511C172.451 80.0264 171.69 80.2685 171.017 80.4774C170.763 80.3213 170.487 80.2786 170.191 80.3493C169.917 80.4147 169.632 80.5311 169.335 80.6985C169.06 80.8604 168.774 81.0251 168.477 81.1925C168.202 81.3545 167.923 81.4454 167.638 81.4651C167.454 81.7019 167.199 81.8954 166.873 82.0454C166.565 82.1673 166.222 82.2973 165.846 82.4354C165.85 82.5548 165.892 82.6292 165.971 82.6584C166.045 82.6649 166.073 82.7306 166.055 82.8554C166.229 82.9823 166.428 83.0555 166.649 83.0749C166.893 83.0888 167.138 83.1027 167.382 83.1167C167.649 83.1252 167.887 83.1646 168.097 83.2351C168.301 83.2827 168.465 83.4123 168.588 83.6239C168.93 83.5423 169.245 83.5513 169.534 83.651C169.823 83.7506 170.074 83.8954 170.288 84.0852C170.502 84.2751 170.676 84.4986 170.81 84.7558C170.961 84.9848 171.061 85.2019 171.11 85.4071C171.222 85.5731 171.321 85.6338 171.406 85.5893C171.492 85.5447 171.606 85.5658 171.747 85.6525C171.886 85.9325 172.13 86.1995 172.48 86.4533C172.825 86.6843 173.12 86.9631 173.367 87.2897C173.549 87.8487 173.705 88.3535 173.837 88.804C173.963 89.2316 173.99 89.6952 173.916 90.1947C173.776 91.1199 173.477 91.9865 173.019 92.7946C172.584 93.5972 172.042 94.3533 171.392 95.0627C170.76 95.7439 170.054 96.3704 169.275 96.942C168.495 97.5136 167.725 98.0229 166.965 98.4696C166.868 98.4686 166.777 98.4904 166.691 98.535C166.605 98.5795 166.569 98.528 166.582 98.3803C166.438 98.5835 166.257 98.7351 166.04 98.8351C165.846 98.9297 165.62 98.9955 165.364 99.0326C165.113 99.0925 164.849 99.1437 164.57 99.1863C164.313 99.2234 164.077 99.292 163.86 99.392C163.662 99.2705 163.476 99.1464 163.301 99.0195C163.154 98.9099 163.019 98.7493 162.897 98.5377C162.783 98.5649 162.712 98.5215 162.685 98.4075C162.68 98.2881 162.633 98.2393 162.541 98.2611C162.624 98.0004 162.651 97.8615 162.622 97.8441C162.612 97.7985 162.569 97.7725 162.495 97.766C162.444 97.7541 162.393 97.7422 162.342 97.7303C162.286 97.6956 162.261 97.6413 162.267 97.5675C162.315 97.3633 162.3 97.15 162.223 96.9275C162.14 96.6822 162.057 96.4369 161.975 96.1916C161.892 95.9462 161.846 95.7042 161.837 95.4653C161.851 95.221 161.979 94.9978 162.22 94.7957C163.017 94.7017 163.741 94.5047 164.392 94.2046C165.06 93.8762 165.67 93.5018 166.22 93.0812C166.77 92.6606 167.281 92.2254 167.751 91.7756C168.245 91.3203 168.736 90.902 169.223 90.5205C169.242 90.299 169.292 90.1063 169.374 89.9423C169.478 89.7728 169.585 89.6148 169.694 89.4681C169.804 89.3215 169.899 89.1662 169.981 89.0022C170.062 88.8382 170.101 88.6481 170.097 88.4321C170.082 88.267 170.015 88.1868 169.895 88.1912C169.793 88.1674 169.726 88.0871 169.693 87.9503L169.293 87.9376C168.8 87.7902 168.26 87.7021 167.675 87.6733C167.085 87.6216 166.571 87.5394 166.134 87.4268C165.916 87.6235 165.685 87.7148 165.441 87.7009C165.219 87.6815 164.929 87.6785 164.571 87.6918C163.785 87.8313 163.014 87.9312 162.257 87.9914C161.523 88.0463 160.79 88.0044 160.058 87.866C159.986 87.7629 159.904 87.6739 159.814 87.5991C159.724 87.5242 159.593 87.5314 159.422 87.6205C159.241 87.4708 159.064 87.3325 158.889 87.2056C158.708 87.0559 158.537 86.8921 158.374 86.7142C158.354 86.4297 158.334 86.1936 158.313 86.0058C158.287 85.7952 158.172 85.6177 157.969 85.4735C157.989 85.1553 158.001 84.8996 158.003 84.7064C158.005 84.5131 157.947 84.2738 157.831 83.9883ZM192.729 71.3516C192.894 71.8422 193.078 72.2563 193.279 72.5938C193.48 72.9313 193.69 73.2547 193.908 73.564C194.098 73.8559 194.277 74.1506 194.445 74.4479C194.629 74.7171 194.796 75.0627 194.945 75.485C194.904 76.1212 194.898 76.701 194.927 77.2243C194.978 77.7422 195.024 78.2855 195.063 78.8544C194.889 79.7394 194.705 80.5305 194.51 81.2277C194.315 81.9248 194.169 82.5259 194.073 83.0308C193.986 83.172 193.916 83.3333 193.863 83.5147C193.827 83.6678 193.783 83.835 193.73 84.0164C193.701 84.0956 193.668 84.2118 193.632 84.3649C193.597 84.5181 193.562 84.6229 193.527 84.6793L192.786 84.6033L192.853 85.4909L192.407 85.742L192.163 86.234C191.91 87.0897 191.606 87.8369 191.253 88.4756C190.894 89.0914 190.456 89.678 189.938 90.2354C189.438 90.7645 188.841 91.2926 188.148 91.8196C187.477 92.3413 186.712 92.9216 185.853 93.5606C185.454 93.6076 185.107 93.6665 184.811 93.7372C184.532 93.7798 184.264 93.8196 184.008 93.8567C183.575 93.9601 183.031 94.0539 182.376 94.138C182.264 93.9719 182.132 93.8711 181.979 93.8353C181.825 93.7996 181.692 93.7954 181.578 93.8226C181.147 93.7328 180.788 93.5414 180.501 93.2485C180.232 92.9273 179.957 92.5833 179.676 92.2166C179.502 91.993 179.334 91.7923 179.171 91.6143C179.002 91.4136 178.823 91.2156 178.631 91.0203L179.172 90.7105L178.224 90.0695C178.162 90.012 178.091 89.9686 178.012 89.9394C177.927 89.8873 177.854 89.8325 177.792 89.775L177.627 89.2361C177.183 87.6795 176.806 86.2515 176.495 84.9521C176.202 83.6245 176.104 82.4069 176.201 81.2994L176.111 80.9233C176.06 80.4054 176.03 79.9787 176.022 79.6433C176.009 79.285 175.99 78.9522 175.965 78.645C175.913 78.1271 175.904 77.6353 175.938 77.1695C176.24 77.0249 176.45 76.8423 176.566 76.6218C176.676 76.3786 176.77 76.1635 176.846 75.9767C177.159 75.8777 177.387 75.8716 177.528 75.9583C177.669 76.0451 177.827 76.2002 178.001 76.4238C178.163 76.6017 178.355 76.797 178.574 77.0096C178.816 77.2168 179.125 77.348 179.5 77.4031C179.589 77.5746 179.692 77.7547 179.809 77.9436C179.944 78.1042 180.084 78.2875 180.23 78.4937C180.505 78.8377 180.762 79.2099 181.003 79.6104C181.26 79.9826 181.447 80.3598 181.562 80.7418C181.438 81.2294 181.375 81.7745 181.374 82.3771C181.396 82.9742 181.455 83.5746 181.551 84.1782C181.665 84.7535 181.81 85.3093 181.986 85.8455C182.179 86.3535 182.388 86.7735 182.612 87.1056L182.923 87.5011L183.488 87.2939C184.129 86.9482 184.698 86.6074 185.196 86.2715C185.712 85.9075 186.173 85.5201 186.581 85.1094C186.989 84.6987 187.363 84.2478 187.704 83.7568C188.039 83.2431 188.383 82.6668 188.737 82.0282C189.09 81.3895 189.359 80.6988 189.543 79.956C189.745 79.185 189.872 78.4076 189.926 77.6236C190.002 76.8343 190.013 76.0726 189.958 75.3387C189.921 74.5766 189.849 73.8709 189.742 73.2217C190.097 72.9924 190.225 72.6725 190.127 72.2622L189.969 71.9024C189.845 71.7874 189.807 71.6278 189.855 71.4237C189.888 70.9579 190.128 70.5511 190.575 70.2034C190.994 70.3442 191.373 70.5187 191.712 70.7269C192.074 70.9297 192.413 71.1379 192.729 71.3516ZM234.159 81.3719C233.958 81.5404 233.766 81.6947 233.583 81.8349C233.422 81.9696 233.217 82.0669 232.966 82.1268C231.919 81.6781 231.177 80.6385 230.739 79.0081C230.324 77.3722 230.179 75.2019 230.304 72.4973C230.402 72.4017 230.426 72.2513 230.377 72.0461L229.988 71.7777C229.897 71.7995 229.808 71.8326 229.723 71.8772C229.66 71.9164 229.622 72.0098 229.609 72.1574C229.12 72.7321 228.579 73.3432 227.986 73.9907C227.389 74.6155 226.751 75.2255 226.074 75.821C225.414 76.3882 224.716 76.8925 223.978 77.3338C223.262 77.7697 222.529 78.0775 221.776 78.2572C219.862 78.7146 218.194 78.0887 216.774 76.3797L216.378 75.9322L216.21 76.442C216.164 76.5496 216.107 76.7678 216.041 77.0968C215.97 77.4031 215.909 77.7549 215.86 78.1523C215.81 78.5497 215.775 78.9558 215.753 79.3706C215.749 79.7571 215.791 80.0844 215.879 80.3525C215.723 80.6067 215.564 80.8978 215.401 81.2258C215.238 81.5538 215.141 81.9023 215.109 82.2715C215.107 82.4648 215.17 82.6303 215.3 82.7681C215.303 82.9842 215.239 83.1682 215.106 83.3203C215.042 83.4561 214.967 83.5946 214.88 83.7358C214.811 83.8487 214.755 83.9704 214.714 84.1007C214.696 84.2256 214.689 84.3477 214.693 84.4671C214.721 84.5811 214.736 84.6978 214.741 84.8173C214.779 84.9768 214.792 85.1304 214.779 85.2781C214.582 86.1685 214.396 86.755 214.223 87.0374C214.055 87.3426 213.777 87.5415 213.389 87.634C213.207 87.6776 212.903 87.7142 212.476 87.7438C212.103 87.4954 211.726 87.1277 211.345 86.6404C210.981 86.125 210.654 85.5644 210.365 84.9588C210.098 84.3477 209.889 83.7231 209.737 83.0848C209.601 82.4182 209.579 81.8211 209.67 81.2934C209.665 81.2706 209.701 81.0208 209.78 80.5441C209.859 80.0675 209.954 79.4545 210.064 78.7053C210.197 77.9506 210.348 77.1194 210.517 76.2116C210.68 75.281 210.851 74.3846 211.031 73.5224C211.205 72.6374 211.373 71.8263 211.534 71.089C211.718 70.3462 211.883 69.7766 212.03 69.3802C212.147 69.0631 212.246 68.7742 212.329 68.5136C212.428 68.2247 212.519 67.95 212.602 67.6894C212.843 66.8847 213.092 66.2108 213.348 65.6678C213.621 65.0965 214.09 64.5869 214.754 64.1391C215.304 64.2245 215.726 64.3768 216.019 64.5959L216.178 64.9557C216.323 65.1618 216.487 65.2432 216.67 65.1996C216.937 65.2081 217.158 65.2275 217.334 65.2578C217.527 65.2598 217.732 65.2591 217.948 65.2557C218.151 65.3999 218.351 65.5811 218.548 65.7992C218.796 66.0292 219.032 66.2619 219.257 66.4974C219.499 66.7046 219.698 66.934 219.855 67.1858C220.029 67.4094 220.148 67.6579 220.214 67.9315C220.302 68.1996 220.324 68.4954 220.281 68.819L220.397 69.1528C220.56 69.3307 220.651 69.6102 220.67 69.9913C220.685 70.1563 220.714 70.33 220.758 70.5124C220.796 70.6719 220.862 70.8489 220.957 71.0431C221.444 71.2643 221.846 71.3367 222.166 71.2605C222.53 71.1734 222.842 71.0147 223.1 70.7843C223.376 70.5257 223.628 70.2725 223.858 70.0248C224.008 69.8445 224.163 69.687 224.324 69.5522C224.479 69.3947 224.645 69.2827 224.822 69.2164C225.14 68.7308 225.423 68.3018 225.671 67.9292C225.942 67.5512 226.225 67.1704 226.519 66.7869C227.072 66.0765 227.592 65.3259 228.077 64.5351C228.563 63.7444 228.886 62.824 229.044 61.774C229.24 61.5828 229.463 61.4572 229.714 61.3973C229.964 61.3374 230.24 61.3318 230.541 61.3804C230.842 61.4291 231.131 61.4804 231.409 61.5345C231.488 61.5638 231.553 61.5844 231.604 61.5963C231.678 61.6027 231.741 61.6119 231.792 61.6238C231.846 61.8518 231.984 62.0238 232.204 62.1398C232.312 62.1864 232.38 62.2184 232.408 62.2357C232.436 62.2531 232.476 62.2677 232.527 62.2796C232.912 62.3803 233.172 62.511 233.307 62.6715C233.592 63.1577 233.972 63.4886 234.448 63.6642C234.457 63.903 234.508 64.1196 234.603 64.3139C234.715 64.4799 234.841 64.6546 234.981 64.838C235.02 64.9009 235.059 64.9639 235.099 65.0268C235.138 65.0898 235.191 65.1614 235.258 65.2417L234.592 65.3285L234.85 65.9537C234.972 66.2619 235.022 66.6234 235.001 67.0382C235.002 67.4475 234.962 67.7825 234.879 68.0431C235.044 68.6304 235.167 69.095 235.248 69.4369C235.347 69.7506 235.409 70.0611 235.435 70.3683C235.454 70.6528 235.449 70.9313 235.417 71.2038C235.409 71.4709 235.372 71.769 235.306 72.098C235.745 73.5352 235.893 74.9096 235.748 76.2212C235.621 77.5046 235.455 78.7251 235.249 79.8826C235.231 80.0075 235.201 80.1351 235.16 80.2654C235.142 80.3903 235.123 80.5152 235.105 80.64C234.916 80.7574 234.753 80.8808 234.615 81.0101C234.472 81.1166 234.32 81.2372 234.159 81.3719ZM256.565 73.6348C256.52 74.055 256.41 74.503 256.235 74.9786C256.077 75.4261 255.853 75.8529 255.565 76.2592C255.294 76.6372 254.966 76.9805 254.582 77.2891C254.198 77.5978 253.769 77.8206 253.296 77.9578C252.983 77.9602 252.759 77.9294 252.623 77.8654C252.516 77.8188 252.397 77.7749 252.266 77.7338C252.187 77.7045 252.111 77.6866 252.037 77.6802C251.98 77.6455 251.927 77.6222 251.875 77.6103L251.424 77.5373L251.455 77.0601C251.457 76.8669 251.413 76.7328 251.323 76.6579C251.227 76.5603 251.055 76.4448 250.806 76.3114C250.721 76.2594 250.637 76.2073 250.552 76.1553C250.467 76.1032 250.394 76.0484 250.332 75.9909L249.596 75.4801L250.462 75.0202C250.993 74.7245 251.321 74.4295 251.443 74.1352C251.588 73.8354 251.567 73.3946 251.38 72.8128C250.903 72.8305 250.512 72.9117 250.209 73.0563C249.929 73.1955 249.641 73.3488 249.343 73.5162C248.96 73.7282 248.563 73.9315 248.152 74.1261C247.758 74.2925 247.31 74.4356 246.808 74.5554C246.626 74.599 246.455 74.6398 246.295 74.6779C246.13 74.6932 245.954 74.7113 245.766 74.7321L245.408 74.7453C245.302 74.5055 245.224 74.3796 245.173 74.3677C245.117 74.333 245.06 74.2983 245.004 74.2636C244.863 74.1768 244.702 74.0586 244.521 73.9089C244.358 73.7309 244.276 73.4856 244.273 73.1729C244.11 72.995 243.993 72.8062 243.921 72.6064C243.85 72.9127 243.815 73.2221 243.818 73.5348L243.762 73.9094L243.437 74.0595C243.397 74.0932 243.376 74.1583 243.375 74.255C243.369 74.3288 243.371 74.3885 243.382 74.4341L243.35 75.0562C243.315 75.1127 243.28 75.1692 243.246 75.2257C243.205 75.2594 243.168 75.3045 243.133 75.3609C243.137 75.577 243.129 75.7958 243.109 76.0173C243.09 76.2388 243.068 76.4489 243.043 76.6476C243 76.9712 242.968 77.292 242.948 77.6101C242.945 77.9 242.987 78.179 243.075 78.4471L243.028 78.856C242.947 79.02 242.849 79.1639 242.734 79.2877C242.613 79.3888 242.493 79.4899 242.372 79.5909C242.338 79.6474 242.28 79.7093 242.2 79.7767C242.137 79.8158 242.085 79.8522 242.045 79.8859L242.033 80.2866L241.639 80.453C241.399 80.5584 241.225 80.6362 241.116 80.6862C241.03 80.7308 240.919 80.7694 240.782 80.8021L240.432 80.8496C240.132 80.7043 239.9 80.591 239.736 80.5097C239.567 80.4056 239.377 80.3183 239.168 80.2479C238.897 80.0233 238.734 79.8454 238.679 79.7141C238.623 79.5827 238.571 79.4628 238.521 79.3543C238.442 79.2284 238.392 79.1198 238.371 79.0287C238.326 78.9429 238.276 78.8827 238.219 78.848L237.677 78.5438L237.979 78.1462L237.875 77.5568C238.053 76.2853 238.265 75.0539 238.51 73.8627C238.779 72.666 239.053 71.4439 239.333 70.1962C239.429 69.7879 239.512 69.3823 239.585 68.9794C239.68 68.5711 239.775 68.1628 239.871 67.7545C239.832 67.6916 239.801 67.6145 239.779 67.5233C239.758 67.4322 239.756 67.3241 239.774 67.1993C239.932 66.7518 240.056 66.3609 240.145 66.0264C240.228 65.6692 240.311 65.3119 240.395 64.9546C240.484 64.5235 240.577 64.1038 240.672 63.6955C240.79 63.2818 240.951 62.8458 241.155 62.3874L241.645 62.0174C241.708 61.9783 241.782 61.9364 241.868 61.8918C241.948 61.8245 242.045 61.7772 242.159 61.7499L242.689 61.6958C243.256 61.247 243.717 60.7033 244.07 60.0646C244.418 59.4032 244.753 58.6364 245.075 57.7643L245.303 57.204L245.812 57.3713C245.943 57.4125 246.119 57.4428 246.34 57.4622C246.556 57.4587 246.786 57.464 247.031 57.4779C247.463 57.4711 247.875 57.4811 248.267 57.508C248.659 57.5349 248.996 57.6351 249.278 57.8086C249.502 58.1406 249.647 58.3951 249.714 58.5721C249.78 58.749 249.858 58.9232 249.947 59.0947C250.108 59.4659 250.258 59.8398 250.396 60.2164C250.557 60.5876 250.706 61.0099 250.843 61.4832C251.049 61.8435 251.233 62.2092 251.394 62.5804C251.572 62.9234 251.742 63.2805 251.903 63.6517C252.148 64.1716 252.39 64.68 252.629 65.1771C252.863 65.6514 253.125 66.0948 253.416 66.5071C253.599 66.4636 253.715 66.4477 253.766 66.4596C253.87 66.3868 253.975 66.3254 254.084 66.2754C254.215 66.2199 254.358 66.1617 254.512 66.1008L254.88 65.9768L255.098 66.2861C255.148 66.3946 255.29 66.4814 255.522 66.5463C255.824 66.4983 256.057 66.515 256.221 66.5963C256.379 66.6548 256.529 66.7275 256.67 66.8142C256.783 66.8836 256.891 66.9302 256.993 66.9541L257.555 67.0367L257.404 67.615C257.274 68.0797 257.039 68.5576 256.698 69.0486C256.375 69.5114 255.981 69.9307 255.517 70.3067C255.572 70.4381 255.616 70.5721 255.649 70.7089C255.699 70.8174 255.763 70.9346 255.841 71.0605C256.002 71.4317 256.154 71.8171 256.298 72.2165C256.442 72.6159 256.542 73.0377 256.6 73.4817L256.565 73.6348ZM245.269 70.0795C245.942 69.8706 246.547 69.678 247.083 69.5017C247.637 69.2972 248.239 69.0449 248.89 68.7448C248.568 68.099 248.228 67.4332 247.871 66.7472C247.509 66.0385 247.138 65.3439 246.759 64.6634L246.635 65.0544C246.294 65.642 245.977 66.2839 245.686 66.9801C245.417 67.6708 245.197 68.3137 245.026 68.9088C244.938 69.1466 244.85 69.3844 244.763 69.6223C244.675 69.8601 244.598 70.0952 244.533 70.3276C244.665 70.2722 244.787 70.2308 244.901 70.2036C245.038 70.1709 245.161 70.1296 245.269 70.0795ZM264.163 71.0969C264.13 72.0687 264.068 72.8184 263.978 73.3461C263.904 73.8456 263.734 74.3924 263.466 74.9865C263.159 75.0117 262.962 75.0949 262.875 75.2361C262.788 75.3773 262.687 75.5098 262.572 75.6337C262.378 75.7283 262.23 75.7637 262.128 75.7398C262.026 75.716 261.932 75.6781 261.847 75.626C261.768 75.5968 261.663 75.5616 261.533 75.5204C261.431 75.4966 261.277 75.5092 261.072 75.5582C260.983 75.3867 260.885 75.2294 260.779 75.0861C260.695 74.9374 260.533 74.9158 260.293 75.0213C260.295 74.8281 260.271 74.6772 260.221 74.5686C260.166 74.4373 260.105 74.3315 260.037 74.2512C259.987 74.1426 259.94 74.0455 259.895 73.9598C259.845 73.8512 259.824 73.7117 259.831 73.5413C259.717 73.5685 259.607 73.5105 259.501 73.3672C259.394 73.224 259.276 73.0835 259.147 72.9457C259.117 72.519 259.093 72.1152 259.074 71.7341C259.056 71.353 259.054 70.992 259.069 70.6511C259.107 70.3047 259.122 69.9638 259.114 69.6283C259.106 69.2928 258.993 68.9704 258.774 68.6612C258.882 68.7078 258.947 68.68 258.971 68.578C258.99 68.4531 258.991 68.3082 258.976 68.1431C258.955 67.9553 258.926 67.7816 258.888 67.622C258.844 67.4397 258.797 67.2942 258.747 67.1857C258.834 66.5385 258.872 65.8909 258.861 65.2427C258.869 64.5663 258.856 63.9067 258.823 63.264C258.812 62.6158 258.805 61.9791 258.8 61.3537C258.795 60.7283 258.847 60.1377 258.955 59.5817C259.195 59.4762 259.477 59.4451 259.8 59.4883C260.141 59.5032 260.365 59.5823 260.471 59.7255C260.955 59.1281 261.349 58.4557 261.652 57.7085C261.95 56.9385 262.265 56.1886 262.597 55.4588C262.929 54.7289 263.322 54.0566 263.778 53.4417C264.256 52.8215 264.929 52.3595 265.796 52.056C266.334 52.289 266.92 52.5226 267.554 52.7567C268.206 52.9625 268.782 53.3068 269.283 53.7896C269.487 53.8372 269.659 53.9044 269.801 53.9912C269.959 54.0497 270.143 54.1141 270.353 54.1846L270.451 54.5949C270.784 54.7803 271.072 55.0249 271.313 55.3288C271.572 55.6044 271.816 55.9196 272.045 56.2744C272.269 56.6065 272.495 56.95 272.725 57.3049C272.949 57.6369 273.193 57.9522 273.457 58.2505C273.438 58.3754 273.44 58.4834 273.462 58.5746C273.478 58.643 273.509 58.7201 273.553 58.8058C273.62 58.8861 273.676 58.9691 273.721 59.0549C273.766 59.1406 273.796 59.266 273.811 59.431C273.982 60.4504 273.845 61.3386 273.399 62.0957C272.976 62.8473 272.403 63.5263 271.681 64.1326C270.953 64.7162 270.154 65.2563 269.285 65.7531C268.415 66.2499 267.643 66.7478 266.967 67.2466C266.988 67.3378 267.034 67.3752 267.102 67.3589C267.193 67.3371 267.241 67.3859 267.245 67.5053C267.874 67.7166 268.373 67.8867 268.741 68.0156C269.109 68.1446 269.446 68.2448 269.752 68.3162C270.081 68.3822 270.419 68.4341 270.765 68.4718C271.129 68.4813 271.624 68.4837 272.249 68.4789C272.874 68.4741 273.358 68.4792 273.698 68.4941C274.057 68.4809 274.381 68.4757 274.671 68.4788C274.955 68.459 275.24 68.4393 275.524 68.4196C275.826 68.3716 276.244 68.3078 276.78 68.2281C277.034 68.3843 277.265 68.5942 277.472 68.8579C277.697 69.0933 277.868 69.3538 277.984 69.6392C278.095 69.9019 278.172 70.1727 278.214 70.4517C278.251 70.7079 278.221 70.9322 278.122 71.1244C278.161 71.1873 278.215 71.2106 278.283 71.1943C278.369 71.1497 278.46 71.128 278.557 71.129C278.442 71.2528 278.355 71.394 278.297 71.5526C278.238 71.7111 278.179 71.8697 278.121 72.0283C278.062 72.1868 277.987 72.3253 277.895 72.4437C277.808 72.5849 277.665 72.6914 277.465 72.7632C276.824 73.2056 275.937 73.4293 274.806 73.4345C273.68 73.4624 272.22 73.3533 270.427 73.107C269.53 72.9839 268.792 72.8709 268.213 72.7682C267.652 72.6372 267.15 72.5041 266.708 72.3687C266.283 72.205 265.879 72.0245 265.494 71.8272C265.133 71.6244 264.689 71.381 264.163 71.0969ZM266.252 58.2003C266.088 58.625 265.882 59.0236 265.634 59.3961C265.408 59.7633 265.185 60.1418 264.965 60.5317C264.762 60.8934 264.593 61.2953 264.458 61.7373C264.317 62.1564 264.261 62.6277 264.29 63.151C265.066 62.8692 265.846 62.4539 266.631 61.9051C267.41 61.3334 268.149 60.7955 268.848 60.2912C268.588 59.6063 268.201 59.0963 267.687 58.7612C267.196 58.4206 266.718 58.2336 266.252 58.2003ZM292.692 68.1141C292.333 68.224 291.874 68.3215 291.316 68.4066C290.781 68.4863 290.31 68.6831 289.903 68.9972C288.684 69.2402 287.418 69.386 286.104 69.4347C284.79 69.4834 283.566 69.4507 282.43 69.3364C282.142 69.1401 281.86 68.9666 281.583 68.8159C281.3 68.6423 280.954 68.5563 280.545 68.5576C279.895 68.2552 279.325 67.8371 278.836 67.3032C278.341 66.7466 277.907 66.1395 277.533 65.4818C277.159 64.8241 276.851 64.1387 276.608 63.4255C276.36 62.6896 276.166 61.977 276.025 61.2876C276.122 60.1801 276.391 59.1881 276.833 58.3116C277.291 57.4069 277.764 56.5108 278.251 55.6235C278.515 55.4159 278.698 55.2274 278.803 55.0579C278.924 54.8603 279.051 54.6854 279.183 54.5333C279.333 54.3529 279.474 54.1867 279.606 54.0346C279.756 53.8543 279.878 53.6566 279.971 53.4416C280.422 53.2132 280.794 52.9557 281.087 52.6688C281.398 52.3537 281.697 52.0414 281.984 51.7317C282.266 51.3993 282.565 51.0869 282.881 50.7947C283.197 50.5024 283.58 50.2421 284.032 50.0137C284.165 49.765 284.343 49.5537 284.567 49.3798C284.785 49.1832 285.006 48.9979 285.229 48.824C285.47 48.6219 285.688 48.4252 285.884 48.234C286.102 48.0373 286.252 47.8087 286.334 47.5481C286.492 47.7032 286.668 47.7335 286.862 47.6389C287.051 47.5215 287.228 47.4068 287.394 47.2949C287.503 47.2448 287.6 47.2459 287.684 47.2979C287.792 47.3445 287.888 47.3939 287.973 47.4459C288.057 47.498 288.125 47.5299 288.176 47.5419C288.245 47.5255 288.288 47.4549 288.306 47.33C288.42 47.3028 288.468 47.3516 288.45 47.4765C288.431 47.6014 288.416 47.6893 288.404 47.7404C288.581 47.674 288.74 47.6842 288.882 47.771C289.04 47.8295 289.259 47.8375 289.538 47.7949C289.656 47.8871 289.701 47.9729 289.672 48.0522C289.637 48.1086 289.636 48.2053 289.669 48.342C290.401 48.3839 290.914 48.611 291.205 49.0233C291.491 49.4129 291.611 49.8661 291.566 50.3829C291.52 50.8998 291.342 51.4124 291.029 51.9207C290.717 52.429 290.338 52.8088 289.892 53.0599C288.868 53.6176 287.91 54.1959 287.017 54.7948C286.141 55.3654 285.477 56.0662 285.025 56.8971C284.516 57.1873 284.078 57.5209 283.71 57.8979C283.359 58.2467 283.031 58.6383 282.725 59.0729C282.437 59.4791 282.165 59.9055 281.91 60.3519C281.673 60.77 281.413 61.1937 281.13 61.6227C281.229 61.9364 281.232 62.2008 281.138 62.4158C281.063 62.6026 280.989 62.8008 280.919 63.0104C281.046 63.3415 281.199 63.6302 281.379 63.8765C281.553 64.1 281.738 64.3209 281.935 64.5389C283.548 64.6355 285.212 64.5393 286.926 64.2504C288.663 63.956 290.389 63.616 292.104 63.2304C292.318 63.4203 292.552 63.5933 292.806 63.7494C293.078 63.8774 293.332 64.0335 293.569 64.2179C293.8 64.3795 294.006 64.5835 294.185 64.8298C294.359 65.0534 294.458 65.3671 294.482 65.7709C294.245 66.1891 293.968 66.5927 293.651 66.9816C293.329 67.3477 293.009 67.7252 292.692 68.1141ZM313.84 59.9545C313.796 60.3747 313.686 60.8226 313.511 61.2983C313.352 61.7457 313.129 62.1726 312.84 62.5788C312.569 62.9568 312.242 63.3002 311.858 63.6088C311.473 63.9174 311.045 64.1403 310.571 64.2774C310.259 64.2798 310.035 64.249 309.899 64.1851C309.791 64.1385 309.672 64.0946 309.542 64.0534C309.463 64.0242 309.386 64.0063 309.312 63.9998C309.256 63.9651 309.202 63.9418 309.151 63.9299L308.7 63.857L308.73 63.3798C308.733 63.1865 308.688 63.0525 308.598 62.9776C308.503 62.88 308.331 62.7645 308.082 62.6311C307.997 62.579 307.912 62.527 307.828 62.4749C307.743 62.4229 307.67 62.3681 307.608 62.3106L306.871 61.7997L307.737 61.3399C308.269 61.0442 308.596 60.7492 308.719 60.4548C308.864 60.1551 308.843 59.7143 308.656 59.1325C308.178 59.1502 307.788 59.2314 307.485 59.376C307.205 59.5151 306.916 59.6684 306.619 59.8359C306.236 60.0478 305.839 60.2512 305.427 60.4458C305.033 60.6122 304.586 60.7553 304.084 60.8751C303.902 60.9186 303.731 60.9595 303.571 60.9976C303.406 61.0129 303.23 61.0309 303.042 61.0517L302.684 61.065C302.578 60.8251 302.5 60.6992 302.449 60.6873C302.392 60.6526 302.336 60.6179 302.279 60.5832C302.138 60.4965 301.977 60.3782 301.797 60.2285C301.634 60.0506 301.551 59.8053 301.549 59.4926C301.386 59.3147 301.269 59.1258 301.197 58.9261C301.125 59.2323 301.091 59.5418 301.093 59.8545L301.038 60.2291L300.712 60.3791C300.672 60.4128 300.652 60.478 300.651 60.5746C300.644 60.6484 300.646 60.7082 300.657 60.7538L300.625 61.3759C300.591 61.4324 300.556 61.4889 300.521 61.5453C300.481 61.579 300.444 61.6241 300.409 61.6806C300.412 61.8967 300.404 62.1154 300.385 62.3369C300.366 62.5584 300.343 62.7685 300.319 62.9672C300.275 63.2908 300.244 63.6117 300.223 63.9298C300.22 64.2197 300.263 64.4987 300.351 64.7668L300.304 65.1756C300.223 65.3396 300.124 65.4835 300.009 65.6074C299.889 65.7085 299.769 65.8095 299.648 65.9106C299.613 65.9671 299.556 66.029 299.476 66.0964C299.413 66.1355 299.361 66.1719 299.321 66.2056L299.308 66.6062L298.914 66.7726C298.674 66.8781 298.5 66.9559 298.392 67.0059C298.306 67.0505 298.195 67.0891 298.058 67.1217L297.708 67.1692C297.408 67.0239 297.176 66.9107 297.012 66.8293C296.843 66.7252 296.653 66.638 296.443 66.5676C296.173 66.343 296.01 66.1651 295.955 66.0337C295.899 65.9024 295.846 65.7825 295.796 65.6739C295.718 65.548 295.668 65.4395 295.646 65.3483C295.602 65.2626 295.551 65.2024 295.495 65.1676L294.952 64.8635L295.255 64.4659L295.15 63.8764C295.328 62.6049 295.54 61.3736 295.786 60.1824C296.054 58.9857 296.329 57.7635 296.609 56.5158C296.704 56.1075 296.788 55.7019 296.86 55.2991C296.956 54.8908 297.051 54.4825 297.146 54.0742C297.107 54.0112 297.077 53.9342 297.055 53.843C297.033 53.7518 297.031 53.6438 297.05 53.5189C297.208 53.0715 297.331 52.6805 297.42 52.3461C297.504 51.9888 297.587 51.6315 297.67 51.2743C297.76 50.8432 297.853 50.4235 297.948 50.0152C298.066 49.6014 298.227 49.1654 298.431 48.7071L298.921 48.3371C298.984 48.2979 299.058 48.2561 299.144 48.2115C299.224 48.1441 299.321 48.0968 299.435 48.0696L299.964 48.0155C300.532 47.5667 300.992 47.0229 301.346 46.3843C301.694 45.7228 302.029 44.9561 302.351 44.084L302.578 43.5236L303.088 43.691C303.218 43.7322 303.394 43.7624 303.616 43.7818C303.832 43.7784 304.062 43.7837 304.306 43.7976C304.738 43.7908 305.15 43.8008 305.542 43.8277C305.934 43.8545 306.272 43.9547 306.554 44.1282C306.778 44.4603 306.923 44.7148 306.989 44.8917C307.056 45.0686 307.133 45.2428 307.223 45.4143C307.384 45.7855 307.533 46.1595 307.671 46.5361C307.832 46.9073 307.981 47.3295 308.118 47.8028C308.325 48.1631 308.509 48.5289 308.67 48.9001C308.848 49.243 309.018 49.6001 309.179 49.9713C309.423 50.4912 309.665 50.9997 309.904 51.4968C310.138 51.9711 310.401 52.4144 310.692 52.8268C310.874 52.7832 310.991 52.7674 311.042 52.7793C311.145 52.7065 311.251 52.6451 311.359 52.595C311.491 52.5396 311.634 52.4814 311.788 52.4205L312.156 52.2964L312.374 52.6057C312.424 52.7143 312.565 52.801 312.798 52.866C313.099 52.818 313.332 52.8347 313.496 52.916C313.655 52.9745 313.805 53.0471 313.946 53.1339C314.059 53.2033 314.167 53.2499 314.269 53.2737L314.831 53.3564L314.679 53.9346C314.55 54.3994 314.314 54.8773 313.974 55.3683C313.65 55.831 313.257 56.2504 312.792 56.6264C312.848 56.7577 312.892 56.8918 312.924 57.0286C312.974 57.1371 313.039 57.2543 313.117 57.3802C313.278 57.7514 313.43 58.1367 313.574 58.5362C313.717 58.9356 313.818 59.3573 313.876 59.8014L313.84 59.9545ZM302.545 56.3992C303.218 56.1903 303.823 55.9977 304.359 55.8214C304.912 55.6169 305.515 55.3646 306.166 55.0644C305.843 54.4187 305.503 53.7528 305.147 53.0669C304.785 52.3582 304.414 51.6636 304.035 50.9831L303.911 51.3741C303.569 51.9617 303.253 52.6036 302.961 53.2997C302.693 53.9904 302.473 54.6333 302.302 55.2284C302.214 55.4663 302.126 55.7041 302.038 55.9419C301.95 56.1798 301.874 56.4149 301.809 56.6473C301.94 56.5918 302.063 56.5505 302.177 56.5232C302.314 56.4906 302.436 56.4492 302.545 56.3992ZM320.602 36.5078C320.651 36.713 320.676 36.9719 320.679 37.2846C320.704 37.5918 320.729 37.8991 320.754 38.2063C320.779 38.5136 320.833 38.7898 320.916 39.0351C320.993 39.2577 321.131 39.3813 321.33 39.4062C321.208 40.7124 321.166 41.7949 321.202 42.6537C321.261 43.507 321.324 44.3234 321.389 45.1029C321.472 45.8542 321.532 46.6592 321.569 47.518C321.605 48.3767 321.56 49.4478 321.433 50.7313C321.356 51.5206 321.171 52.1071 320.877 52.4905C320.577 52.8512 320.223 53.0805 319.812 53.1785C319.402 53.2766 318.953 53.2633 318.465 53.1388C317.978 53.0143 317.519 52.8588 317.089 52.6724C316.917 52.2556 316.78 51.734 316.679 51.1076C316.595 50.453 316.517 49.7728 316.445 49.0672C316.372 48.3615 316.308 47.69 316.253 47.0527C316.191 46.3927 316.132 45.8406 316.074 45.3966C316.242 45.0914 316.353 44.8481 316.406 44.6668C316.459 44.4854 316.475 44.3008 316.454 44.113C316.456 43.9197 316.436 43.6836 316.393 43.4046C316.351 43.1256 316.315 42.7245 316.287 42.2012C316.272 41.9395 316.198 41.7284 316.063 41.5678C315.946 41.379 315.888 41.1879 315.89 40.9947C315.914 40.8926 315.966 40.8079 316.046 40.7405C316.149 40.6677 316.199 40.5716 316.194 40.4521C316.215 40.134 316.183 39.9006 316.099 39.7519C316.01 39.5804 315.993 39.3557 316.047 39.0777C316.117 38.8681 316.186 38.5505 316.253 38.1249C316.337 37.671 316.305 37.2329 316.156 36.8107C316.323 36.6021 316.473 36.3734 316.606 36.1247C316.74 35.876 316.879 35.65 317.023 35.4469C317.184 35.2155 317.366 35.0156 317.566 34.8472C317.79 34.6733 318.073 34.5456 318.415 34.4639C318.657 34.6711 318.851 34.8778 318.996 35.084C319.142 35.2901 319.274 35.4876 319.391 35.6765C319.531 35.8599 319.691 36.0264 319.872 36.1761C320.052 36.3258 320.295 36.4364 320.602 36.5078ZM321.864 56.773C321.953 56.9445 322.028 57.1073 322.089 57.2614C322.15 57.4155 322.213 57.5811 322.28 57.758C322.257 58.2694 322.212 58.7379 322.145 59.1635C322.115 59.3395 322.094 59.4529 322.082 59.504C322.07 59.555 322.067 59.5919 322.072 59.6147C322.078 59.6375 322.097 59.669 322.131 59.7091C322.159 59.7265 322.193 59.8149 322.231 59.9745L322.158 60.4257C322.082 60.6125 321.975 60.7705 321.837 60.8998C321.722 61.0237 321.593 61.1389 321.45 61.2454C321.392 61.3073 321.321 61.3606 321.235 61.4051C321.177 61.4671 321.131 61.5263 321.097 61.5827L321.092 62.0176L320.63 62.2003C320.287 62.3786 319.967 62.5032 319.671 62.5739L319.295 62.6638C318.961 62.4784 318.698 62.3363 318.506 62.2377C318.314 62.139 318.101 62.0572 317.869 61.9922C317.515 61.619 317.277 61.2782 317.155 60.97C317.039 60.6845 316.935 60.5043 316.845 60.4295L316.252 60.0651L316.589 59.6594L316.023 59.1077C316.248 58.8372 316.418 58.64 316.533 58.5161C316.648 58.3923 316.74 58.2739 316.809 58.1609C316.896 58.0197 316.977 57.8557 317.053 57.6689C317.129 57.4821 317.249 57.1764 317.413 56.7517L317.614 56.2337L318.082 56.3751C318.212 56.4162 318.434 56.4356 318.746 56.4332C319.076 56.4026 319.361 56.3828 319.6 56.374C319.991 56.4008 320.367 56.4076 320.725 56.3943C321.101 56.3528 321.413 56.3987 321.661 56.5321L321.864 56.773Z" fill="black"/>
<path d="M362.848 36.1972L362.409 34.1552L361.76 32.7655L360.544 31.2104L359.422 30.1495L356.749 28.4529L353.092 27.314L348.075 26.6012L335.984 25.8709L328.955 25.8672L314.052 26.4228L295.731 27.8752L295.021 29.0933L295.351 30.4104L296.475 31.1035L314.701 29.6533L329.563 29.1045L336.556 29.1026L348.584 29.8291L352.836 30.4152L356.199 31.4678L357.445 32.1626L359.36 33.725L360.314 35.3314L360.415 35.8452L360.363 36.7066L359.276 39.0795L356.686 42.2485L350.761 47.5145L342.545 53.4645L335.746 57.8248L327.979 62.43L314.807 69.6368L299.762 77.2106L282.973 85.1076L282.964 85.1117L264.963 93.0801L264.955 93.0835L245.494 101.225L245.485 101.229L211.388 114.547L211.379 114.551L190.111 122.312L190.104 122.315L168.798 129.667L168.791 129.67L148.118 136.362L148.11 136.365L127.764 142.503L127.754 142.506L108.598 147.741L96.6513 150.646L96.6394 150.649L79.7603 154.23L79.7447 154.233L69.3932 156.018L69.377 156.02L59.8855 157.278L59.8607 157.28L47.0425 158.212L35.9403 158.066L26.8325 156.934L21.6148 155.579L17.1178 153.774L15.2311 152.737L12.1042 150.366L10.1474 147.926L9.34775 146.434L8.75464 144.898L8.23026 141.924L8.21264 140.172L8.74808 136.522L10.1333 132.4L11.1593 130.166L13.8633 125.491L15.5043 123.134L21.7705 115.677L26.9783 110.499L32.9768 105.264L43.1881 97.6005L55.518 89.5698L55.5392 89.5568L69.2728 81.6696L79.2386 76.495L79.2528 76.4879L95.4128 68.8439L95.4273 68.8373L112.202 61.6618L112.215 61.6565L123.679 57.1971L123.691 57.1927L141.438 50.8962L141.45 50.8921L158.772 45.331L158.782 45.3278L169.885 42.0873L169.897 42.084L186.18 37.8544L201.332 34.4027L201.347 34.3996L215.171 31.7806L227.802 29.9104L242.4 28.3319L254.486 27.8181L266.321 27.9588L276.646 29.0469L280.573 30.1768L281.429 31.0919L282.515 31.2949L283.387 30.5962L283.7 29.2591L283.342 27.8296L282.095 26.234L279.317 25.4287L275.132 24.7301L267.54 24.2195L261.33 24.1072L248.056 24.5649L238.3 25.3319L218.818 27.9294L200.596 31.2966L180.056 36.0911L157.966 42.2243L140.601 47.7753L122.811 54.057L111.307 58.5142L111.293 58.5195L94.487 65.6902L78.2821 73.3494L78.2681 73.3563L68.2851 78.5265L58.9496 83.7748L46.04 91.8198L34.8432 99.8125L28.1156 105.33L22.4541 110.602L15.4947 118.286L11.909 123.172L10.4112 125.597L8.05407 130.317L6.43671 135.306L5.80063 139.54L5.82013 141.606L6.0727 143.604L6.68574 146.07L8.30957 149.609L9.48404 151.264L11.1657 153.103L12.7551 154.461L16.5348 156.763L21.1699 158.626L23.7997 159.391L29.9652 160.624L36.479 161.297L43.7507 161.513L51.7754 161.257L60.5624 160.512L70.1046 159.248L70.121 159.245L80.503 157.45L80.5155 157.447L91.6322 155.17L109.393 150.95L135.291 143.74L155.848 137.378L176.705 130.48L198.139 122.931L219.181 115.13L239.665 107.124L259.541 98.95L278.022 90.9268L295.287 82.9746L311.004 75.2526L324.783 67.9304L336.79 60.9298L346.631 54.4731L354.614 48.3503L360.035 43.0225L362.121 39.8216L362.629 38.2413L362.848 36.1972Z" fill="#F40CB3" stroke="#F40CB3" stroke-linecap="round"/>
</g>
<defs>
<clipPath id="clip0_276_23">
<rect width="367" height="168" fill="white"/>
</clipPath>
</defs>
</svg>
